<?xml version="1.0" encoding="UTF-8" standalone="no"?>
<!-- Created with Inkscape (http://www.inkscape.org/) -->

<svg
   xmlns:dc="http://purl.org/dc/elements/1.1/"
   xmlns:cc="http://creativecommons.org/ns#"
   xmlns:rdf="http://www.w3.org/1999/02/22-rdf-syntax-ns#"
   xmlns:svg="http://www.w3.org/2000/svg"
   xmlns="http://www.w3.org/2000/svg"
   xmlns:sodipodi="http://sodipodi.sourceforge.net/DTD/sodipodi-0.dtd"
   xmlns:inkscape="http://www.inkscape.org/namespaces/inkscape"
   width="196.05482mm"
   height="77.480484mm"
   viewBox="0 0 694.68248 274.53713"
   id="svg8347"
   version="1.1"
   inkscape:version="0.91 r13725"
   sodipodi:docname="phaseattnew.svg">
  <defs
     id="defs8349">
    <mask
       maskUnits="userSpaceOnUse"
       id="mask5512">
      <rect
         style="fill:#ffef06;fill-opacity:1;stroke-width:0.85900003;stroke-miterlimit:4;stroke-dasharray:none"
         id="rect5514"
         width="670"
         height="120"
         x="29.999998"
         y="35.392651" />
    </mask>
    <clipPath
       clipPathUnits="userSpaceOnUse"
       id="clipPath5008">
      <path
         style="fill:none;fill-rule:evenodd;stroke:#000000;stroke-width:0.55438077px;stroke-linecap:butt;stroke-linejoin:miter;stroke-opacity:1"
         d="m 47.491467,328.47902 159.731343,0 0,115.44562 -159.731343,0 z"
         id="path5010"
         inkscape:connector-curvature="0" />
    </clipPath>
    <clipPath
       clipPathUnits="userSpaceOnUse"
       id="clipPath5014">
      <path
         style="fill:none;fill-rule:evenodd;stroke:#000000;stroke-width:1px;stroke-linecap:butt;stroke-linejoin:miter;stroke-opacity:1"
         d="m 206.99999,328.70183 300,0 0,140 -300,0 z"
         id="path5016"
         inkscape:connector-curvature="0" />
    </clipPath>
    <clipPath
       clipPathUnits="userSpaceOnUse"
       id="clipPath5024">
      <path
         style="fill:none;fill-rule:evenodd;stroke:#000000;stroke-width:0.90346724px;stroke-linecap:butt;stroke-linejoin:miter;stroke-opacity:1"
         d="m 506.95173,318.75509 210.09652,0 0,73.42901 -210.09652,0 z"
         id="path5026"
         inkscape:connector-curvature="0" />
    </clipPath>
  </defs>
  <sodipodi:namedview
     id="base"
     pagecolor="#ffffff"
     bordercolor="#666666"
     borderopacity="1.0"
     inkscape:pageopacity="0.0"
     inkscape:pageshadow="2"
     inkscape:zoom="1.4"
     inkscape:cx="362.39551"
     inkscape:cy="141.70244"
     inkscape:document-units="px"
     inkscape:current-layer="g5110"
     showgrid="true"
     inkscape:window-width="1920"
     inkscape:window-height="1017"
     inkscape:window-x="-8"
     inkscape:window-y="-8"
     inkscape:window-maximized="1"
     showborder="true"
     fit-margin-top="0"
     fit-margin-left="0"
     fit-margin-right="0"
     fit-margin-bottom="0">
    <inkscape:grid
       type="xygrid"
       id="grid8895"
       originx="-132.14287"
       originy="-2299.7236" />
  </sodipodi:namedview>
  <metadata
     id="metadata8352">
    <rdf:RDF>
      <cc:Work
         rdf:about="">
        <dc:format>image/svg+xml</dc:format>
        <dc:type
           rdf:resource="http://purl.org/dc/dcmitype/StillImage" />
        <dc:title></dc:title>
      </cc:Work>
    </rdf:RDF>
  </metadata>
  <g
     inkscape:groupmode="layer"
     id="layer3"
     inkscape:label="Ebene 2"
     transform="translate(-39.142849,-24.441044)" />
  <g
     inkscape:label="Ebene 1"
     inkscape:groupmode="layer"
     id="layer1"
     transform="translate(-39.142849,-24.441044)">
    <g
       id="g5110">
      <g
         id="g5099">
        <text
           xml:space="preserve"
           style="font-style:normal;font-weight:normal;font-size:11.25px;line-height:125%;font-family:sans-serif;letter-spacing:0px;word-spacing:0px;fill:#000000;fill-opacity:1;stroke:none;stroke-width:1px;stroke-linecap:butt;stroke-linejoin:miter;stroke-opacity:1"
           x="42.999992"
           y="130.70184"
           id="text4166"
           sodipodi:linespacing="125%"><tspan
             sodipodi:role="line"
             id="tspan4168"
             x="42.999992"
             y="130.70184">propagation</tspan><tspan
             sodipodi:role="line"
             x="42.999992"
             y="144.76434"
             id="tspan4170">direction</tspan></text>
        <path
           style="fill:#000000;fill-opacity:0.98039216;stroke:none;stroke-width:1.20099998;stroke-miterlimit:10;stroke-dasharray:none;stroke-opacity:1"
           d="m 39.270245,151.12115 70.497615,0 -1e-5,-3.57143 10.08929,5.35714 -10.08928,5.35715 0,-3.57143 -70.625011,0 z"
           id="rect4172"
           inkscape:connector-curvature="0"
           sodipodi:nodetypes="cccccccc" />
      </g>
      <g
         id="g5094">
        <path
           inkscape:connector-curvature="0"
           style="display:inline;fill:none;stroke:#000000;stroke-width:1.20099998;stroke-linecap:butt;stroke-linejoin:miter;stroke-miterlimit:10;stroke-dasharray:none;stroke-opacity:1"
           d="m 30.191146,97.757379 0.694564,-2.165 0.666461,-2.17969 0.694564,-2.16378 0.694563,-2.14906 0.666464,-2.14785 0.694563,-2.11721 0.668467,-2.10251 0.692559,-2.08535 0.694563,-2.0388 0.668468,-2.02287 0.692559,-1.99223 0.694563,-1.94446 0.668468,-1.91382 0.692559,-1.86604 0.694563,-1.81948 0.668467,-1.77169 0.692559,-1.70921 0.668468,-1.66265 0.694563,-1.61486 0.692559,-1.53768 0.668467,-1.48989 0.694563,-1.41147 0.692559,-1.34899 0.668468,-1.28527 0.694563,-1.20809 0.692559,-1.14437 0.668467,-1.05125 0.694564,-0.98755 0.66847,-0.91035 0.692556,-0.83071 0.694563,-0.73759 0.66847,-0.67389 0.692557,-0.56483 0.694563,-0.50112 0.66847,-0.40801 0.692556,-0.32959 0.694563,-0.23524 0.66847,-0.15683 0.692557,-0.0625 0.668467,0.0306 0.694566,0.11027 0.692556,0.20339 0.668468,0.28303 0.694566,0.36022 0.692556,0.45456 0.668467,0.54891 0.694566,0.62732 0.692557,0.70574 0.668467,0.78415 0.694566,0.86257 0.66646,0.95691 0.694564,1.0194 0.694565,1.11374 0.666461,1.17623 0.694563,1.23871 0.694566,1.31713 0.666461,1.39678 0.694563,1.45803 0.694566,1.50582 0.66646,1.58423 0.694563,1.63079 0.668468,1.69328 0.692559,1.75699 0.694563,1.78763 0.668468,1.85011 0.692558,1.88196 0.694564,1.92975 0.668467,1.97631 0.692559,2.00694 0.668468,2.03879 0.694563,2.07066 0.692559,2.08535 0.668467,2.11721 0.694563,2.13314 0.692559,2.14785 0.668468,2.16499 0.694563,2.16377 0.692559,2.1797 0.668467,2.165 0.694564,2.179701 0.66847,2.16377 0.692556,2.16499 0.694563,2.14785 0.66847,2.13314 0.692557,2.10128 0.694563,2.10251 0.66847,2.0535 0.692556,2.0388 0.694563,2.00816 0.66847,1.96038 0.692557,1.92853 0.668467,1.88196 0.694566,1.85134 0.692556,1.78762 0.668468,1.74106 0.694566,1.69328 0.692555,1.6308 0.66847,1.5683 0.69456,1.52175 0.692555,1.4421 0.66847,1.38085 0.694557,1.31713 0.66646,1.23871 0.69457,1.17623 0.69456,1.09781 0.66646,1.0194 0.69458,0.94098 0.69456,0.86257 0.66646,0.78415 0.69457,0.70574 0.69456,0.6114 0.66646,0.5342 0.69457,0.45457 0.66846,0.36021 0.69256,0.28303 0.69457,0.18746 0.66846,0.0943 0.69256,0.0159 0.69457,-0.0625 0.66846,-0.15683 0.69256,-0.25117 0.69457,-0.32959 0.66846,-0.40801 0.69256,-0.50112 0.66847,-0.5967 0.69456,-0.65795 0.69256,-0.75352 0.66847,-0.8307 0.69456,-0.91035 0.69256,-1.00348 0.66847,-1.06595 0.69456,-1.1456 0.69256,-1.20686 0.66847,-1.2865 0.69456,-1.36369 0.66847,-1.41148 0.69256,-1.48989 0.69456,-1.5536 0.66847,-1.61486 0.69256,-1.66265 0.69456,-1.72514 0.66847,-1.77169 0.69256,-1.81948 0.69456,-1.86604 0.66847,-1.91382 0.69256,-1.96038 0.66846,-1.99101 0.69457,-2.0241 0.69256,-2.0535 0.66846,-2.07065 0.69457,-2.10129 0.69256,-2.13313 0.66846,-2.13314 0.69457,-2.16378 0.69256,-2.16499 0.66846,-2.179701 0.69457,-2.16377 0.66646,-2.1797 0.69456,-2.165 0.69457,-2.16377 0.66646,-2.16499 0.69456,-2.13192 0.69456,-2.11721 0.66647,-2.10251 0.69456,-2.08535 0.69456,-2.0388 0.66647,-2.02287 0.69456,-1.99224 0.66847,-1.94445 0.69255,-1.89789 0.69457,-1.86604 0.66847,-1.81947 0.69255,-1.75577 0.69457,-1.72514 0.66847,-1.64672 0.69255,-1.60016 0.69457,-1.55238 0.66847,-1.47396 0.69255,-1.41147 0.66847,-1.34899 0.69457,-1.27057 0.69255,-1.20809 0.66847,-1.12844 0.69457,-1.06718 0.69255,-0.97162 0.66847,-0.89442 0.69457,-0.83071 0.66846,-0.7376 0.69256,-0.65795 0.69457,-0.56483 0.66846,-0.48642 0.69256,-0.40801 0.69457,-0.31366 0.66846,-0.23524 0.69256,-0.14091 0.69456,-0.0625 0.66847,0.0306 0.69256,0.1262 0.66847,0.20339 0.69456,0.28303 0.69256,0.37615 0.66847,0.47049 0.69456,0.54891 0.69256,0.62732 0.66847,0.70574 0.69456,0.80008 0.69256,0.87727 0.66847,0.95691 0.69456,1.03533 0.66646,1.09781 0.69457,1.19216 0.69456,1.25464 0.66646,1.31713 0.69457,1.39555 0.69456,1.45926 0.66646,1.52052 0.69457,1.58423 0.69456,1.64672 0.66646,1.69328 0.69457,1.74106 0.66846,1.80356 0.69256,1.85133 0.69457,1.89667 0.66846,1.92975 0.69256,1.97631 0.69457,2.00694 0.66846,2.03879 0.69256,2.07066 0.69456,2.08535 0.66847,2.11721 0.69256,2.13314 0.66847,2.14785 0.69456,2.16499 0.69256,2.1797 0.66847,2.16377 0.69456,2.18093 0.69256,2.179701 0.66847,2.16377 0.69456,2.14906 0.69256,2.14785 0.66847,2.13314 0.69456,2.11721 0.66847,2.08658 0.69256,2.0535 0.69456,2.0388 0.66847,2.00816 0.69256,1.96038 0.69456,1.9126 0.66847,1.89789 0.69256,1.83541 0.69456,1.78762 0.66847,1.74107 0.69256,1.67735 0.66846,1.63202 0.69457,1.5683 0.69256,1.50459 0.66846,1.44333 0.69457,1.37962 0.69255,1.30244 0.66847,1.23871 0.69457,1.17622 0.69255,1.08188 0.66847,1.0194 0.69457,0.92507 0.66646,0.86256 0.69456,0.78416 0.69456,0.69102 0.66647,0.61141 0.69456,0.53297 0.69456,0.43864 0.66647,0.36145 0.69456,0.26587 0.69456,0.18868 0.46171,0.15684 1.02779,0 0.54,-0.1409 0.69256,-0.15683 0.69456,-0.25118 0.66847,-0.34552 0.69256,-0.4227 0.69456,-0.50236 0.66847,-0.59545 0.69256,-0.67511 0.69456,-0.7523 0.66847,-0.84664 0.69256,-0.91035 0.66846,-1.00348 0.69457,-1.06595 0.69256,-1.1456 0.66846,-1.22279 0.69457,-1.3012 0.69255,-1.34899 0.66847,-1.44333 0.69457,-1.48989 0.69255,-1.55237 0.66847,-1.61487 0.69457,-1.66265 0.66847,-1.74106 0.69255,-1.77169 0.69456,-1.81948 0.66847,-1.88197 0.69256,-1.91382 0.69456,-1.96038 0.66847,-1.99102 0.69256,-2.02409 0.69456,-2.0535 0.66847,-2.08658 0.69256,-2.10128 0.66847,-2.11722 0.69456,-2.14906 0.69256,-2.16377 0.66847,-2.16378 0.69456,-2.164991 0.69256,-2.1797 0.66847,-2.1797 0.69456,-2.165 0.66646,-2.16377 0.69457,-2.14906 0.69456,-2.14785 0.66646,-2.11721 0.69457,-2.10128 0.69456,-2.07065 0.66646,-2.0388 0.69457,-2.02287 0.69456,-1.97631 0.66646,-1.94445 0.69457,-1.8979 0.66846,-1.86603 0.69256,-1.81948 0.69456,-1.75699 0.66847,-1.70921 0.69256,-1.64672 0.69456,-1.59894 0.66847,-1.53767 0.69256,-1.47396 0.69456,-1.41148 0.66847,-1.33306 0.69256,-1.27057 0.66847,-1.20686 0.69456,-1.12967 0.69256,-1.05125 0.66846,-0.97162 0.69458,-0.89442 0.69255,-0.80008 0.66846,-0.73637 0.69458,-0.65918 0.69255,-0.56483 0.66846,-0.47049 0.69458,-0.40678 0.66845,-0.31366 0.69256,-0.22055 0.69458,-0.1409 0.66845,-0.0466 0.69256,0.0466 0.69458,0.1262 0.66845,0.20339 0.69256,0.29773 0.69458,0.37615 0.66845,0.47049 0.69256,0.56484 0.66847,0.62732 0.69456,0.72166 0.69255,0.80008 0.66848,0.8785 0.69456,0.97162 0.69255,1.03532 0.66848,1.11374 0.69456,1.19216 0.69255,1.25464 0.66848,1.33306 0.69456,1.39555 0.66647,1.45803 0.69456,1.53768 0.69456,1.583 0.66647,1.64672 0.69456,1.69451 0.69456,1.75577 0.66647,1.80355 0.69456,1.85133 0.69456,1.89789 0.66647,1.94446 0.69456,1.97631 0.66848,2.00694 0.69255,2.03879 0.69456,2.07066 0.66848,2.10128 0.69255,2.11721 0.69456,2.13314 0.66848,2.14785 0.69255,2.16499 0.69456,2.16377 0.66848,2.1797 0.69255,2.1797 0.66845,2.165001 0.69459,2.1797 0.69255,2.14906 0.66845,2.14785 0.69459,2.13314 0.69255,2.10128 0.66845,2.08658 0.69459,2.06943 0.69255,2.02287 0.66845,1.99223 0.69458,1.96038 0.66846,1.92853 0.69255,1.88197 0.69458,1.8354 0.66846,1.7717 0.69255,1.74106 0.69458,1.67858 0.66846,1.63079 0.69255,1.55238 0.69458,1.50581 0.66846,1.44334 0.69255,1.36369 0.66848,1.31713 0.69456,1.22402 0.69255,1.16029 0.66848,1.08188 0.69455,1.0194 0.69256,0.92506 0.66848,0.84786 0.69455,0.76823 0.69256,0.68981 0.66848,0.61139 0.69455,0.51827 0.66648,0.43864 0.69456,0.34552 0.69455,0.26587 0.66648,0.17276 0.9515,0.15684 0.5139,0 0.59019,-0.1409 0.69455,-0.17277 0.69456,-0.26709 0.66648,-0.32838 0.69455,-0.43986 0.66848,-0.51704 0.69256,-0.59669 0.69455,-0.67388 0.66848,-0.76822 0.69256,-0.84665 0.69455,-0.92628 0.66848,-1.00348 0.69256,-1.08187 0.66845,-1.14438 0.69458,-1.22402 0.69255,-1.30119 0.66846,-1.36492 0.69458,-1.4421 0.69255,-1.48989 0.66846,-1.56831 0.69458,-1.61609 0.69255,-1.67735 0.66846,-1.72513 0.69458,-1.78885 0.66845,-1.83419 0.69256,-1.86603 0.69458,-1.91382 0.66845,-1.96039 0.69256,-2.00694 0.69458,-2.02409 0.66845,-2.0535 0.69255,-2.08658 0.69459,-2.10128 0.66845,-2.13314 0.69255,-2.14785 0.66848,-2.14906 0.69456,-2.16378 0.69255,-2.180921 0.66848,-2.1797 0.69456,-2.16377 0.69255,-2.1797 0.66848,-2.16499 0.69456,-2.14785 0.69255,-2.13314 0.66848,-2.11721 0.69456,-2.10128 0.66647,-2.07065 0.69456,-2.05473 0.69456,-2.00694 0.66647,-1.97631 0.69456,-1.94445 0.69456,-1.8979 0.66647,-1.85011 0.69456,-1.80355 0.69456,-1.75699 0.66647,-1.70921 0.69456,-1.64672 0.66848,-1.60016 0.69255,-1.53645 0.69456,-1.45925 0.66848,-1.41148 0.69255,-1.33306 0.69456,-1.25464 0.66848,-1.20686 0.69255,-1.11374 0.69456,-1.03533 0.66848,-0.97161 0.69255,-0.89443 0.66845,-0.80008 0.69459,-0.73637 0.69255,-0.64325 0.66845,-0.5489 0.69459,-0.48642 0.69255,-0.37615 0.66845,-0.31366 0.69458,-0.21932 0.69256,-0.1262 0.66845,-0.0466 0.69458,0.0466 0.66846,0.1262 0.69255,0.21932 0.69458,0.31366 0.66846,0.39207 0.69255,0.4705 0.69458,0.56483 0.66846,0.64203 0.69255,0.72166 0.69458,0.80008 0.66846,0.89443 0.69255,0.97161 0.66848,1.03533 0.69455,1.12967 0.69256,1.19093 0.66848,1.27057 0.69455,1.33306 0.69256,1.39555 0.66848,1.47518 0.69455,1.52052 0.69256,1.60016 0.66848,1.64672 0.69455,1.70921 0.66648,1.75699 0.69456,1.80355 0.69455,1.86604 0.66648,1.8979 0.69455,1.92852 0.69456,1.99224 0.66648,2.00694 0.69455,2.0388 0.69456,2.07065 0.66648,2.10128 0.69455,2.11721 0.66848,2.14785 0.69256,2.14906 0.69455,2.16377 0.66848,2.165 0.69256,2.1797 0.69455,2.16377 0.66848,2.180921 0.69255,2.16378 0.69456,2.16377 0.66848,2.13314 0.69255,2.13314 0.66846,2.11721 0.69458,2.07065 0.69255,2.06943 0.66846,2.02287 0.69458,1.99223 0.69255,1.96039 0.66846,1.91382 0.69458,1.88196 0.66845,1.83419 0.69256,1.77292 0.69458,1.72513 0.66845,1.67735 0.69255,1.63079 0.69459,1.55361 0.66845,1.50459 0.69255,1.4274 0.69459,1.36492 0.66845,1.30119 0.69255,1.22402 0.66848,1.16031 0.69456,1.06594 0.69255,1.00348 0.66848,0.92628 0.69456,0.84665 0.69255,0.76822 0.66848,0.67388 0.69456,0.59669 0.69255,0.51704 0.66848,0.43986 0.69456,0.34429 0.66647,0.25118 0.69456,0.17277 0.89932,0.1409 0.5139,0 0.64237,-0.15684 0.69456,-0.17276 0.66647,-0.26587 0.69456,-0.34552 0.69456,-0.43864 0.66647,-0.51827 0.69456,-0.61139 0.66848,-0.68981 0.69255,-0.76823 0.69456,-0.84786 0.66848,-0.94098 0.69255,-1.00348 0.69456,-1.08188 0.66848,-1.16029 0.69255,-1.23873 0.69456,-1.30242 0.66848,-1.36369 0.69255,-1.44334 0.66845,-1.50581 0.69459,-1.56831 0.69255,-1.61486 0.66845,-1.67858 0.69458,-1.74106 0.69256,-1.78762 0.66845,-1.83419 0.69458,-1.88196 0.69256,-1.91383 0.66845,-1.96038 0.69458,-1.99223 0.66846,-2.0388 0.69255,-2.0535 0.69458,-2.08658 0.66846,-2.11721 0.69255,-2.13314 0.69458,-2.13192 0.66846,-2.16499 0.69255,-2.16377 0.69458,-2.179701 0.66845,-2.165 0.69256,-2.1797 0.66848,-2.1797 0.69455,-2.14906 0.69256,-2.16378 0.66848,-2.13313 0.69455,-2.11722 0.69256,-2.08535 0.66848,-2.07065 0.69455,-2.05473 0.69256,-2.00694 0.66848,-1.97631 0.69455,-1.92853 0.66648,-1.89789 0.69455,-1.85133 0.69456,-1.80355 0.66648,-1.75577 0.69455,-1.69451 0.69456,-1.64672 0.66648,-1.59893 0.69455,-1.52175 0.69456,-1.45803 0.66648,-1.39555 0.69455,-1.33306 0.66848,-1.27057 0.69256,-1.17623 0.69455,-1.11374 0.66848,-1.03532 0.69255,-0.97162 0.69456,-0.8785 0.66848,-0.80008 0.69255,-0.72166 0.69456,-0.64325 0.66848,-0.54891 0.69255,-0.47049 0.66846,-0.37615 0.69458,-0.29773 0.69255,-0.21932 0.66846,-0.11027 0.69458,-0.0466 0.69255,0.0466 0.66846,0.1409 0.69458,0.23525 0.69255,0.29896 0.66845,0.40678 0.69459,0.47049 0.66845,0.58076 0.69255,0.64325 0.69459,0.73637 0.66845,0.81601 0.69255,0.89442 0.69459,0.97162 0.66845,1.05125 0.69255,1.11374 0.69459,1.20686 0.66845,1.27057 0.69255,1.33306 0.66848,1.41148 0.69456,1.47396 0.69255,1.53767 0.66848,1.59894 0.69456,1.64672 0.69255,1.70921 0.66848,1.77292 0.69456,1.80355 0.66647,1.86604 0.69456,1.89789 0.69456,1.94445 0.66647,1.97631 0.69456,2.02287 0.69456,2.0388 0.66647,2.08535 0.69456,2.10251 0.69456,2.11721 0.66647,2.13192 0.69456,2.14906 0.66848,2.16377 0.69255,2.18093 0.69456,2.16377 0.66848,2.1797 0.69255,2.179701 0.69456,2.16499 0.66848,2.14785 0.69255,2.14906 0.69456,2.13314 0.66847,2.10129 0.69256,2.08535 0.66845,2.05473 0.69458,2.02287 0.69256,1.99223 0.66845,1.94446 0.69458,1.92975 0.69256,1.86604 0.66845,1.81948 0.69458,1.78762 0.69256,1.72513 0.66845,1.66265 0.69458,1.61487 0.66846,1.5683 0.69255,1.48989 0.69458,1.4274 0.66846,1.36369 0.69255,1.2865 0.69458,1.22279 0.66845,1.1456 0.69256,1.08188 0.69458,0.98755 0.66845,0.92627 0.69256,0.83072 0.66848,0.7523 0.69455,0.67511 0.69256,0.59545 0.66848,0.51828 0.69455,0.4227 0.69256,0.3296 0.66848,0.25118 0.69455,0.15683 0.84714,0.14089 0.51389,0 0.69456,-0.17276 0.66648,-0.17275 0.69455,-0.28181 0.69456,-0.34551 0.66648,-0.45457 0.69455,-0.51704 0.69456,-0.61141 0.66648,-0.70573 0.69455,-0.76945 0.69456,-0.86256 0.66647,-0.92507 0.69456,-1.0194 0.66848,-1.09781 0.69255,-1.16029 0.69456,-1.23871 0.66848,-1.30244 0.69255,-1.37962 0.69456,-1.44333 0.66848,-1.50459 0.69255,-1.58423 0.69456,-1.61609 0.66848,-1.69328 0.69255,-1.74106 0.66846,-1.78763 0.69458,-1.8354 0.69255,-1.88197 0.66846,-1.92853 0.69458,-1.96038 0.69255,-1.99223 0.66845,-2.0388 0.69459,-2.06943 0.69255,-2.08658 0.66845,-2.10128 0.69459,-2.13314 0.66845,-2.14785 0.69255,-2.16499 0.69459,-2.16377 0.66845,-2.163771 0.69255,-2.18093 0.69459,-2.1797 0.66845,-2.16377 0.69255,-2.16499 0.69459,-2.14785 0.66845,-2.13314 0.69255,-2.11721 0.66848,-2.10128 0.69456,-2.05473 0.69255,-2.05472 0.66848,-2.00694 0.69456,-1.96038 0.69255,-1.94446 0.66848,-1.88196 0.69456,-1.85133 0.69255,-1.80356 0.66848,-1.75576 0.69456,-1.69451 0.66647,-1.63079 0.69456,-1.58423 0.69456,-1.52052 0.66647,-1.45926 0.69456,-1.39555 0.69456,-1.33306 0.66647,-1.25464 0.69456,-1.17623 0.69456,-1.11374 0.66647,-1.0194 0.69456,-0.95691 0.66848,-0.87727 0.69255,-0.80008 0.69456,-0.70574 0.66847,-0.62732 0.69256,-0.54891 0.69456,-0.47049 0.66847,-0.37615 0.69256,-0.28303 0.66845,-0.20339 0.69458,-0.1262 0.69256,-0.0306 0.66845,0.0625 0.69458,0.14091 0.69256,0.23524 0.66845,0.31366 0.69458,0.40801 0.69256,0.48642 0.66845,0.57953 0.69458,0.64325 0.66845,0.75353 0.69256,0.81478 0.69458,0.89442 0.66845,0.98755 0.69256,1.05125 0.69458,1.12844 0.66845,1.20809 0.69256,1.27057 0.69458,1.34899 0.66845,1.41147 0.69256,1.48989 0.66848,1.53645 0.69455,1.60016 0.69256,1.66142 0.66847,1.71044 0.69456,1.77169 0.69256,1.80355 0.66847,1.86604 0.69456,1.91382 0.69256,1.94446 0.66847,1.9763 0.69456,2.02287 0.66648,2.05472 0.69455,2.06943 0.69456,2.10251 0.66648,2.11721 0.69455,2.14785 0.69456,2.14907 0.66647,2.16377 0.69456,2.17969 0.69456,2.16501 0.66647,2.17969 0.69456,2.163771 0.66848,2.18092 0.69255,2.14785 0.69456,2.14906 0.66848,2.11721 0.69255,2.10129 0.69456,2.08536 0.66848,2.05472 0.69255,2.02288 0.69456,1.99223 0.66848,1.94445 0.69255,1.91382 0.66845,1.86604 0.69459,1.81948 0.69255,1.77169 0.66845,1.72514 0.69459,1.67858 0.69255,1.59894 0.66845,1.55359 0.69459,1.48989 0.69255,1.42618 0.66845,1.34899 0.69459,1.2865 0.66845,1.22278 0.69255,1.1456 0.69459,1.06596 0.66845,0.98755 0.69255,0.91035 0.69459,0.8307 0.66845,0.75352 0.69255,0.67389 0.69459,0.58076 0.66845,0.50112 0.69255,0.40801 0.66848,0.32959 0.69456,0.25117 0.69255,0.15683 0.66848,0.0625 0.69456,-0.0159 0.69255,-0.0943 0.66848,-0.18746 0.69456,-0.28303 0.69255,-0.36021 0.66848,-0.45457 0.69456,-0.5342 0.66647,-0.6114 0.69456,-0.70574 0.69456,-0.78415 0.66647,-0.86257 0.69456,-0.94098 0.69456,-1.0194 0.66647,-1.09781 0.69456,-1.17623 0.69456,-1.23871 0.66647,-1.31713 0.69456,-1.38085 0.66847,-1.45803 0.69256,-1.50582 0.69456,-1.5683 0.66847,-1.64672 0.69256,-1.67736 0.69456,-1.74106 0.66847,-1.80355 0.69256,-1.83541 0.69456,-1.88195 0.66847,-1.92853 0.69256,-1.97632 0.66845,-1.99223 0.69458,-2.0388 0.69256,-2.06943 0.66845,-2.08658 0.69458,-2.11721 0.69256,-2.13192 0.66845,-2.14906 0.69458,-2.14907 0.66845,-2.1797 0.69256,-2.163771 0.69458,-2.1797 0.66845,-2.18093 0.69256,-2.16377 0.69458,-2.16377 0.66845,-2.14906 0.69256,-2.13314 0.69458,-2.10129 0.66845,-2.10128 0.69256,-2.07065 0.66847,-2.0388 0.69456,-1.99101 0.69256,-1.97631 0.66847,-1.92975 0.69456,-1.89667 0.69256,-1.8354 0.66847,-1.80355 0.69456,-1.74107 0.69256,-1.69328 0.66847,-1.63079 0.69456,-1.58423 0.66648,-1.52175 0.69455,-1.4421 0.69456,-1.39678 0.66647,-1.31713 0.69456,-1.25464 0.69456,-1.17623 0.66647,-1.09781 0.69456,-1.0194 0.69456,-0.95691 0.66647,-0.86257 0.69456,-0.78415 0.66848,-0.72044 0.69255,-0.61262 0.69456,-0.54891 0.66848,-0.45456 0.69255,-0.36022 0.69456,-0.29773 0.66848,-0.18869 0.69255,-0.11027 0.69456,-0.0306 0.66848,0.0625 0.69255,0.15683 0.66845,0.23524 0.69459,0.32959 0.69255,0.40801 0.66845,0.50112 0.69459,0.58076 0.69255,0.65796 0.66845,0.73759 0.69459,0.83071 0.69255,0.91035 0.66845,0.98755 0.69459,1.05125 0.66845,1.14437 0.69255,1.20809 0.69459,1.28527 0.66845,1.34899 0.69255,1.41147"
           id="path4373"
           mask="url(#mask5512)"
           transform="translate(19.380649,-13.399756)" />
        <text
           xml:space="preserve"
           style="font-style:normal;font-weight:normal;font-size:15px;line-height:125%;font-family:sans-serif;letter-spacing:0px;word-spacing:0px;display:inline;fill:#000000;fill-opacity:1;stroke:none;stroke-width:1px;stroke-linecap:butt;stroke-linejoin:miter;stroke-opacity:1"
           x="286.72885"
           y="154.37718"
           id="text7611"
           sodipodi:linespacing="125%"><tspan
             sodipodi:role="line"
             id="tspan7613"
             x="286.72885"
             y="154.37718">vacuum n = 1</tspan></text>
      </g>
      <g
         id="g5084">
        <g
           id="g5046">
          <path
             transform="translate(0.25253814,-154)"
             clip-path="url(#clipPath5008)"
             mask="none"
             inkscape:connector-curvature="0"
             style="display:inline;fill:none;stroke:#000000;stroke-width:1.20099998;stroke-linecap:butt;stroke-linejoin:miter;stroke-miterlimit:10;stroke-dasharray:none;stroke-opacity:1"
             d="m 49.571795,386.35762 0.694564,-2.165 0.666461,-2.17969 0.694564,-2.16378 0.694563,-2.14906 0.666464,-2.14785 0.694563,-2.11721 0.668467,-2.10251 0.692559,-2.08535 0.694563,-2.0388 0.668468,-2.02287 0.692559,-1.99223 0.694563,-1.94446 0.668468,-1.91382 0.692559,-1.86604 0.694563,-1.81948 0.668467,-1.77169 0.692559,-1.70921 0.668468,-1.66265 0.694563,-1.61486 0.692559,-1.53768 0.668467,-1.48989 0.694563,-1.41147 0.692559,-1.34899 0.668468,-1.28527 0.694563,-1.20809 0.692559,-1.14437 0.668467,-1.05125 0.694564,-0.98755 0.66847,-0.91035 0.692556,-0.83071 0.694563,-0.73759 0.66847,-0.67389 0.692557,-0.56483 0.694563,-0.50112 0.66847,-0.40801 0.692556,-0.32959 0.694563,-0.23524 0.66847,-0.15683 0.692557,-0.0625 0.668467,0.0306 0.694566,0.11027 0.692556,0.20339 0.668468,0.28303 0.694566,0.36022 0.692556,0.45456 0.668467,0.54891 0.694566,0.62732 0.692557,0.70574 0.668467,0.78415 0.694566,0.86257 0.66646,0.95691 0.694564,1.0194 0.694565,1.11374 0.666461,1.17623 0.694563,1.23871 0.694566,1.31713 0.666461,1.39678 0.694563,1.45803 0.694566,1.50582 0.66646,1.58423 0.694563,1.63079 0.668468,1.69328 0.692559,1.75699 0.694563,1.78763 0.668468,1.85011 0.692558,1.88196 0.694564,1.92975 0.668467,1.97631 0.692559,2.00694 0.668468,2.03879 0.694563,2.07066 0.692559,2.08535 0.668467,2.11721 0.694559,2.13314 0.69256,2.14785 0.66847,2.16499 0.69456,2.16377 0.69256,2.1797 0.66847,2.165 0.69456,2.1797 0.66847,2.16377 0.69256,2.16499 0.69456,2.14785 0.66847,2.13314 0.69256,2.10128 0.69456,2.10251 0.66847,2.0535 0.69256,2.0388 0.69456,2.00816 0.66847,1.96038 0.69256,1.92853 0.66847,1.88196 0.69456,1.85134 0.69255,1.78762 0.66847,1.74106 0.69457,1.69328 0.69255,1.6308 0.66847,1.5683 0.69456,1.52175 0.69256,1.4421 0.66847,1.38085 0.69456,1.31713 0.66646,1.23871 0.69457,1.17623 0.69456,1.09781 0.66646,1.0194 0.69458,0.94098 0.69456,0.86257 0.66646,0.78415 0.69456,0.70574 0.69456,0.6114 0.66646,0.5342 0.69457,0.45457 0.66846,0.36021 0.69256,0.28303 0.69457,0.18746 0.66846,0.0943 0.69256,0.0159 0.69457,-0.0625 0.66846,-0.15683 0.69256,-0.25117 0.69457,-0.32959 0.66846,-0.40801 0.69256,-0.50112 0.66847,-0.5967 0.69456,-0.65795 0.69256,-0.75352 0.66847,-0.8307 0.69456,-0.91035 0.69256,-1.00348 0.66847,-1.06595 0.69456,-1.1456 0.69256,-1.20686 0.66847,-1.2865 0.69456,-1.36369 0.66847,-1.41148 0.69256,-1.48989 0.69456,-1.5536 0.66847,-1.61486 0.69256,-1.66265 0.69456,-1.72514 0.66847,-1.77169 0.69256,-1.81948 0.69456,-1.86604 0.66847,-1.91382 0.69256,-1.96038 0.66846,-1.99101 0.69457,-2.0241 0.69256,-2.0535 0.66846,-2.07065 0.69457,-2.10129 0.69256,-2.13313 0.66846,-2.13314 0.69457,-2.16378 0.69256,-2.16499 0.66846,-2.1797 0.69457,-2.16377 0.66646,-2.1797 0.69456,-2.165 0.69457,-2.16377 0.66646,-2.16499 0.69456,-2.13192 0.69456,-2.11721 0.66647,-2.10251 0.69456,-2.08535 0.69456,-2.0388 0.66647,-2.02287 0.69456,-1.99224 0.66847,-1.94445 0.69255,-1.89789 0.69457,-1.86604 0.66847,-1.81947 0.69255,-1.75577 0.69457,-1.72514 0.66847,-1.64672 0.69255,-1.60016 0.69457,-1.55238 0.66847,-1.47396 0.69255,-1.41147 0.66847,-1.34899 0.69457,-1.27057 0.69255,-1.20809 0.66847,-1.12844 0.69457,-1.06718 0.69255,-0.97162 0.66847,-0.89442 0.69457,-0.83071 0.66846,-0.7376 0.69256,-0.65795 0.69457,-0.56483 0.66846,-0.48642 0.69256,-0.40801 0.69457,-0.31366 0.66846,-0.23524 0.69256,-0.14091 0.69456,-0.0625 0.66847,0.0306 0.69256,0.1262 0.66847,0.20339 0.69456,0.28303 0.69256,0.37615 0.66847,0.47049 0.69456,0.54891 0.69256,0.62732 0.66847,0.70574 0.69456,0.80008 0.69256,0.87727 0.66847,0.95691 0.69456,1.03533 0.66646,1.09781 0.69457,1.19216 0.69456,1.25464 0.66646,1.31713 0.69457,1.39555 0.69456,1.45926 0.66646,1.52052 0.69457,1.58423 0.69456,1.64672 0.66646,1.69328 0.69457,1.74106 0.66846,1.80356 0.69256,1.85133 0.69457,1.89667 0.66846,1.92975 0.69256,1.97631 0.69457,2.00694 0.66846,2.03879 0.69256,2.07066 0.69456,2.08535 0.66847,2.11721 0.69256,2.13314 0.66847,2.14785 0.69456,2.16499 0.69256,2.1797 0.66847,2.16377 0.69456,2.18093 0.69256,2.1797 0.66847,2.16377 0.69456,2.14906 0.69256,2.14785 0.66847,2.13314 0.69456,2.11721 0.66847,2.08658 0.69256,2.0535 0.69456,2.0388 0.66847,2.00816 0.69256,1.96038 0.69456,1.9126 0.66847,1.89789 0.69256,1.83541 0.69456,1.78762 0.66847,1.74107 0.69256,1.67735 0.66846,1.63202 0.69457,1.5683 0.69256,1.50459 0.66846,1.44333 0.69457,1.37962 0.69255,1.30244 0.66847,1.23871 0.69457,1.17622 0.69255,1.08188 0.66847,1.0194 0.69457,0.92507 0.66646,0.86256 0.69456,0.78416 0.69456,0.69102 0.66647,0.61141 0.69456,0.53297 0.69456,0.43864 0.66647,0.36145 0.69456,0.26587 0.69456,0.18868 0.46171,0.15684 1.02779,0 0.54,-0.1409 0.69256,-0.15683 0.69456,-0.25118 0.66847,-0.34552 0.69256,-0.4227 0.69456,-0.50236 0.66847,-0.59545 0.69256,-0.67511 0.69456,-0.7523 0.66847,-0.84664 0.69256,-0.91035 0.66846,-1.00348 0.69457,-1.06595 0.69256,-1.1456 0.66846,-1.22279 0.69457,-1.3012 0.69255,-1.34899 0.66847,-1.44333 0.69457,-1.48989 0.69255,-1.55237 0.66847,-1.61487 0.69457,-1.66265 0.66847,-1.74106 0.69255,-1.77169 0.69456,-1.81948 0.66847,-1.88197 0.69256,-1.91382 0.69456,-1.96038 0.66847,-1.99102 0.69256,-2.02409 0.69456,-2.0535 0.66847,-2.08658 0.69256,-2.10128 0.66847,-2.11722 0.69456,-2.14906 0.69256,-2.16377 0.66847,-2.16378 0.69456,-2.16499 0.69256,-2.1797 0.66847,-2.1797 0.69456,-2.165 0.66646,-2.16377 0.69457,-2.14906 0.69456,-2.14785 0.66646,-2.11721 0.69457,-2.10128 0.69456,-2.07065 0.66646,-2.0388 0.69457,-2.02287 0.69456,-1.97631 0.66646,-1.94445 0.69457,-1.8979 0.66846,-1.86603 0.69256,-1.81948 0.69456,-1.75699 0.66847,-1.70921 0.69256,-1.64672 0.69456,-1.59894 0.66847,-1.53767 0.69256,-1.47396 0.69456,-1.41148 0.66847,-1.33306 0.69256,-1.27057 0.66847,-1.20686 0.69456,-1.12967 0.69256,-1.05125 0.66846,-0.97162 0.69458,-0.89442 0.69255,-0.80008 0.66846,-0.73637 0.69458,-0.65918 0.69255,-0.56483 0.66846,-0.47049 0.69458,-0.40678 0.66845,-0.31366 0.69256,-0.22055 0.69458,-0.1409 0.66845,-0.0466 0.69256,0.0466 0.69458,0.1262 0.66845,0.20339 0.69256,0.29773 0.69458,0.37615 0.66845,0.47049 0.69256,0.56484 0.66847,0.62732 0.69456,0.72166 0.69255,0.80008 0.66848,0.8785 0.69456,0.97162 0.69255,1.03532 0.66848,1.11374 0.69456,1.19216 0.69255,1.25464 0.66848,1.33306 0.69456,1.39555 0.66647,1.45803 0.69456,1.53768 0.69456,1.583 0.66647,1.64672 0.69456,1.69451 0.69456,1.75577 0.66647,1.80355 0.69456,1.85133 0.69456,1.89789 0.66647,1.94446 0.69456,1.97631 0.66848,2.00694 0.69255,2.03879 0.69456,2.07066 0.66848,2.10128 0.69255,2.11721 0.69456,2.13314 0.66848,2.14785 0.69255,2.16499 0.69456,2.16377 0.66848,2.1797 0.69255,2.1797 0.66845,2.165 0.69459,2.1797 0.69255,2.14906 0.66845,2.14785 0.69459,2.13314 0.69255,2.10128 0.66845,2.08658 0.69459,2.06943 0.69255,2.02287 0.66845,1.99223 0.69458,1.96038 0.66846,1.92853 0.69255,1.88197 0.69458,1.8354 0.66846,1.7717 0.69255,1.74106 0.69458,1.67858 0.66846,1.63079 0.69255,1.55238 0.69458,1.50581 0.66846,1.44334 0.69255,1.36369 0.66848,1.31713 0.69456,1.22402 0.69255,1.16029 0.66848,1.08188 0.69455,1.0194 0.69256,0.92506 0.66848,0.84786 0.69455,0.76823 0.69256,0.68981 0.66848,0.61139 0.69455,0.51827 0.66648,0.43864 0.69456,0.34552 0.69455,0.26587 0.66648,0.17276 0.9515,0.15684 0.5139,0 0.59019,-0.1409 0.69455,-0.17277 0.69456,-0.26709 0.66648,-0.32838 0.69455,-0.43986 0.66848,-0.51704 0.69256,-0.59669 0.69455,-0.67388 0.66848,-0.76822 0.69256,-0.84665 0.69455,-0.92628 0.66848,-1.00348 0.69256,-1.08187 0.66845,-1.14438 0.69458,-1.22402 0.69255,-1.30119 0.66846,-1.36492 0.69458,-1.4421 0.69255,-1.48989 0.66846,-1.56831 0.69458,-1.61609 0.69255,-1.67735 0.66846,-1.72513 0.69458,-1.78885 0.66845,-1.83419 0.69256,-1.86603 0.69458,-1.91382 0.66845,-1.96039 0.69256,-2.00694 0.69458,-2.02409 0.66845,-2.0535 0.69255,-2.08658 0.69459,-2.10128 0.66845,-2.13314 0.69255,-2.14785 0.66848,-2.14906 0.69456,-2.16378 0.69255,-2.18092 0.66848,-2.1797 0.69456,-2.16377 0.69255,-2.1797 0.66848,-2.16499 0.69456,-2.14785 0.69255,-2.13314 0.66848,-2.11721 0.69456,-2.10128 0.66647,-2.07065 0.69456,-2.05473 0.69456,-2.00694 0.66647,-1.97631 0.69456,-1.94445 0.69456,-1.8979 0.66647,-1.85011 0.69456,-1.80355 0.69456,-1.75699 0.66647,-1.70921 0.69456,-1.64672 0.66848,-1.60016 0.69255,-1.53645 0.69456,-1.45925 0.66848,-1.41148 0.69255,-1.33306 0.69456,-1.25464 0.66848,-1.20686 0.69255,-1.11374 0.69456,-1.03533 0.66848,-0.97161 0.69255,-0.89443 0.66845,-0.80008 0.69459,-0.73637 0.69255,-0.64325 0.66845,-0.5489 0.69459,-0.48642 0.69255,-0.37615 0.66845,-0.31366 0.69458,-0.21932 0.69256,-0.1262 0.66845,-0.0466 0.69458,0.0466 0.66846,0.1262 0.69255,0.21932 0.69458,0.31366 0.66846,0.39207 0.69255,0.4705 0.69458,0.56483 0.66846,0.64203 0.69255,0.72166 0.69458,0.80008 0.66846,0.89443 0.69255,0.97161 0.66848,1.03533 0.69455,1.12967 0.69256,1.19093 0.66848,1.27057 0.69455,1.33306 0.69256,1.39555 0.66848,1.47518 0.69455,1.52052 0.69256,1.60016 0.66848,1.64672 0.69455,1.70921 0.66648,1.75699 0.69456,1.80355 0.69455,1.86604 0.66648,1.8979 0.69455,1.92852 0.69456,1.99224 0.66648,2.00694 0.69455,2.0388 0.69456,2.07065 0.66648,2.10128 0.69455,2.11721 0.66848,2.14785 0.69256,2.14906 0.69455,2.16377 0.66848,2.165 0.69256,2.1797 0.69455,2.16377 0.66848,2.18092 0.69255,2.16378 0.69456,2.16377 0.66848,2.13314 0.69255,2.13314 0.66846,2.11721 0.69458,2.07065 0.69255,2.06943 0.66846,2.02287 0.69458,1.99223 0.69255,1.96039 0.66846,1.91382 0.69458,1.88196 0.66845,1.83419 0.69256,1.77292 0.69458,1.72513 0.66845,1.67735 0.69255,1.63079 0.69459,1.55361 0.66845,1.50459 0.69255,1.4274 0.69459,1.36492 0.66845,1.30119 0.69255,1.22402 0.66848,1.16031 0.69456,1.06594 0.69255,1.00348 0.66848,0.92628 0.69456,0.84665 0.69255,0.76822 0.66848,0.67388 0.69456,0.59669 0.69255,0.51704 0.66848,0.43986 0.69456,0.34429 0.66647,0.25118 0.69456,0.17277 0.89932,0.1409 0.5139,0 0.64237,-0.15684 0.69456,-0.17276 0.66647,-0.26587 0.69456,-0.34552 0.69456,-0.43864 0.66647,-0.51827 0.69456,-0.61139 0.66848,-0.68981 0.69255,-0.76823 0.69456,-0.84786 0.66848,-0.94098 0.69255,-1.00348 0.69456,-1.08188 0.66848,-1.16029 0.69255,-1.23873 0.69456,-1.30242 0.66848,-1.36369 0.69255,-1.44334 0.66845,-1.50581 0.69459,-1.56831 0.69255,-1.61486 0.66845,-1.67858 0.69458,-1.74106 0.69256,-1.78762 0.66845,-1.83419 0.69458,-1.88196 0.69256,-1.91383 0.66845,-1.96038 0.69458,-1.99223 0.66846,-2.0388 0.69255,-2.0535 0.69458,-2.08658 0.66846,-2.11721 0.69255,-2.13314 0.69458,-2.13192 0.66846,-2.16499 0.69255,-2.16377 0.69458,-2.1797 0.66845,-2.165 0.69256,-2.1797 0.66848,-2.1797 0.69455,-2.14906 0.69256,-2.16378 0.66848,-2.13313 0.69455,-2.11722 0.69256,-2.08535 0.66848,-2.07065 0.69455,-2.05473 0.69256,-2.00694 0.66848,-1.97631 0.69455,-1.92853 0.66648,-1.89789 0.69455,-1.85133 0.69456,-1.80355 0.66648,-1.75577 0.69455,-1.69451 0.69456,-1.64672 0.66648,-1.59893 0.69455,-1.52175 0.69456,-1.45803 0.66648,-1.39555 0.69455,-1.33306 0.66848,-1.27057 0.69256,-1.17623 0.69455,-1.11374 0.66848,-1.03532 0.69255,-0.97162 0.69456,-0.8785 0.66848,-0.80008 0.69255,-0.72166 0.69456,-0.64325 0.66848,-0.54891 0.69255,-0.47049 0.66846,-0.37615 0.69458,-0.29773 0.69255,-0.21932 0.66846,-0.11027 0.69458,-0.0466 0.69255,0.0466 0.66846,0.1409 0.69458,0.23525 0.69255,0.29896 0.66845,0.40678 0.69459,0.47049 0.66845,0.58076 0.69255,0.64325 0.69459,0.73637 0.66845,0.81601 0.69255,0.89442 0.69459,0.97162 0.66845,1.05125 0.69255,1.11374 0.69459,1.20686 0.66845,1.27057 0.69255,1.33306 0.66848,1.41148 0.69456,1.47396 0.69255,1.53767 0.66848,1.59894 0.69456,1.64672 0.69255,1.70921 0.66848,1.77292 0.69456,1.80355 0.66647,1.86604 0.69456,1.89789 0.69456,1.94445 0.66647,1.97631 0.69456,2.02287 0.69456,2.0388 0.66647,2.08535 0.69456,2.10251 0.69456,2.11721 0.66647,2.13192 0.69456,2.14906 0.66848,2.16377 0.69255,2.18093 0.69456,2.16377 0.66848,2.1797 0.69255,2.1797 0.69456,2.16499 0.66848,2.14785 0.69255,2.14906 0.69456,2.13314 0.66847,2.10129 0.69256,2.08535 0.66845,2.05473 0.69458,2.02287 0.69256,1.99223 0.66845,1.94446 0.69458,1.92975 0.69256,1.86604 0.66845,1.81948 0.69458,1.78762 0.69256,1.72513 0.66845,1.66265 0.69458,1.61487 0.66846,1.5683 0.69255,1.48989 0.69458,1.4274 0.66846,1.36369 0.69255,1.2865 0.69458,1.22279 0.66845,1.1456 0.69256,1.08188 0.69458,0.98755 0.66845,0.92627 0.69256,0.83072 0.66848,0.7523 0.69455,0.67511 0.69256,0.59545 0.66848,0.51828 0.69455,0.4227 0.69256,0.3296 0.66848,0.25118 0.69455,0.15683 0.84714,0.14089 0.51389,0 0.69456,-0.17276 0.66648,-0.17275 0.69455,-0.28181 0.69456,-0.34551 0.66648,-0.45457 0.69455,-0.51704 0.69456,-0.61141 0.66648,-0.70573 0.69455,-0.76945 0.69456,-0.86256 0.66647,-0.92507 0.69456,-1.0194 0.66848,-1.09781 0.69255,-1.16029 0.69456,-1.23871 0.66848,-1.30244 0.69255,-1.37962 0.69456,-1.44333 0.66848,-1.50459 0.69255,-1.58423 0.69456,-1.61609 0.66848,-1.69328 0.69255,-1.74106 0.66846,-1.78763 0.69458,-1.8354 0.69255,-1.88197 0.66846,-1.92853 0.69458,-1.96038 0.69255,-1.99223 0.66845,-2.0388 0.69459,-2.06943 0.69255,-2.08658 0.66845,-2.10128 0.69459,-2.13314 0.66845,-2.14785 0.69255,-2.16499 0.69459,-2.16377 0.66845,-2.16377 0.69255,-2.18093 0.69459,-2.1797 0.66845,-2.16377 0.69255,-2.16499 0.69459,-2.14785 0.66845,-2.13314 0.69255,-2.11721 0.66848,-2.10128 0.69456,-2.05473 0.69255,-2.05472 0.66848,-2.00694 0.69456,-1.96038 0.69255,-1.94446 0.66848,-1.88196 0.69456,-1.85133 0.69255,-1.80356 0.66848,-1.75576 0.69456,-1.69451 0.66647,-1.63079 0.69456,-1.58423 0.69456,-1.52052 0.66647,-1.45926 0.69456,-1.39555 0.69456,-1.33306 0.66647,-1.25464 0.69456,-1.17623 0.69456,-1.11374 0.66647,-1.0194 0.69456,-0.95691 0.66848,-0.87727 0.69255,-0.80008 0.69456,-0.70574 0.66847,-0.62732 0.69256,-0.54891 0.69456,-0.47049 0.66847,-0.37615 0.69256,-0.28303 0.66845,-0.20339 0.69458,-0.1262 0.69256,-0.0306 0.66845,0.0625 0.69458,0.14091 0.69256,0.23524 0.66845,0.31366 0.69458,0.40801 0.69256,0.48642 0.66845,0.57953 0.69458,0.64325 0.66845,0.75353 0.69256,0.81478 0.69458,0.89442 0.66845,0.98755 0.69256,1.05125 0.69458,1.12844 0.66845,1.20809 0.69256,1.27057 0.69458,1.34899 0.66845,1.41147 0.69256,1.48989 0.66848,1.53645 0.69455,1.60016 0.69256,1.66142 0.66847,1.71044 0.69456,1.77169 0.69256,1.80355 0.66847,1.86604 0.69456,1.91382 0.69256,1.94446 0.66847,1.9763 0.69456,2.02287 0.66648,2.05472 0.69455,2.06943 0.69456,2.10251 0.66648,2.11721 0.69455,2.14785 0.69456,2.14907 0.66647,2.16377 0.69456,2.17969 0.69456,2.16501 0.66647,2.17969 0.69456,2.16377 0.66848,2.18092 0.69255,2.14785 0.69456,2.14906 0.66848,2.11721 0.69255,2.10129 0.69456,2.08536 0.66848,2.05472 0.69255,2.02288 0.69456,1.99223 0.66848,1.94445 0.69255,1.91382 0.66845,1.86604 0.69459,1.81948 0.69255,1.77169 0.66845,1.72514 0.69459,1.67858 0.69255,1.59894 0.66845,1.55359 0.69459,1.48989 0.69255,1.42618 0.66845,1.34899 0.69459,1.2865 0.66845,1.22278 0.69255,1.1456 0.69459,1.06596 0.66845,0.98755 0.69255,0.91035 0.69459,0.8307 0.66845,0.75352 0.69255,0.67389 0.69459,0.58076 0.66845,0.50112 0.69255,0.40801 0.66848,0.32959 0.69456,0.25117 0.69255,0.15683 0.66848,0.0625 0.69456,-0.0159 0.69255,-0.0943 0.66848,-0.18746 0.69456,-0.28303 0.69255,-0.36021 0.66848,-0.45457 0.69456,-0.5342 0.66647,-0.6114 0.69456,-0.70574 0.69456,-0.78415 0.66647,-0.86257 0.69456,-0.94098 0.69456,-1.0194 0.66647,-1.09781 0.69456,-1.17623 0.69456,-1.23871 0.66647,-1.31713 0.69456,-1.38085 0.66847,-1.45803 0.69256,-1.50582 0.69456,-1.5683 0.66847,-1.64672 0.69256,-1.67736 0.69456,-1.74106 0.66847,-1.80355 0.69256,-1.83541 0.69456,-1.88195 0.66847,-1.92853 0.69256,-1.97632 0.66845,-1.99223 0.69458,-2.0388 0.69256,-2.06943 0.66845,-2.08658 0.69458,-2.11721 0.69256,-2.13192 0.66845,-2.14906 0.69458,-2.14907 0.66845,-2.1797 0.69256,-2.16377 0.69458,-2.1797 0.66845,-2.18093 0.69256,-2.16377 0.69458,-2.16377 0.66845,-2.14906 0.69256,-2.13314 0.69458,-2.10129 0.66845,-2.10128 0.69256,-2.07065 0.66847,-2.0388 0.69456,-1.99101 0.69256,-1.97631 0.66847,-1.92975 0.69456,-1.89667 0.69256,-1.8354 0.66847,-1.80355 0.69456,-1.74107 0.69256,-1.69328 0.66847,-1.63079 0.69456,-1.58423 0.66648,-1.52175 0.69455,-1.4421 0.69456,-1.39678 0.66647,-1.31713 0.69456,-1.25464 0.69456,-1.17623 0.66647,-1.09781 0.69456,-1.0194 0.69456,-0.95691 0.66647,-0.86257 0.69456,-0.78415 0.66848,-0.72044 0.69255,-0.61262 0.69456,-0.54891 0.66848,-0.45456 0.69255,-0.36022 0.69456,-0.29773 0.66848,-0.18869 0.69255,-0.11027 0.69456,-0.0306 0.66848,0.0625 0.69255,0.15683 0.66845,0.23524 0.69459,0.32959 0.69255,0.40801 0.66845,0.50112 0.69459,0.58076 0.69255,0.65796 0.66845,0.73759 0.69459,0.83071 0.69255,0.91035 0.66845,0.98755 0.69459,1.05125 0.66845,1.14437 0.69255,1.20809 0.69459,1.28527 0.66845,1.34899 0.69255,1.41147"
             id="path5455" />
          <path
             transform="translate(-0.25253814,-155.01015)"
             clip-path="url(#clipPath5014)"
             mask="none"
             id="path5176"
             d="m 156.57393,388.97334 0.71399,-2.31964 0.68511,-2.31831 0.71399,-2.31833 0.714,-2.28549 0.6851,-2.26841 0.714,-2.25138 0.68716,-2.21854 0.71193,-2.20149 0.71399,-2.15029 0.68719,-2.13452 0.71191,-2.08334 0.714,-2.03345 0.68717,-1.99931 0.71191,-1.93237 0.71401,-1.89823 0.68716,-1.8326 0.71193,-1.76435 0.68717,-1.71313 0.71398,-1.66326 0.71195,-1.58056 0.68716,-1.51226 0.714,-1.44404 0.71192,-1.37838 0.68717,-1.29439 0.71399,-1.20901 0.71193,-1.14342 0.68717,-1.05807 0.71399,-0.97406 0.68716,-0.89136 0.71193,-0.80604 0.71399,-0.7233 0.68717,-0.63801 0.71193,-0.53824 0.714,-0.46994 0.68717,-0.37021 0.71192,-0.26779 0.714,-0.1851 0.68717,-0.10105 0.71193,-0.017 0.68716,0.0841 0.71401,0.16802 0.71191,0.25204 0.68716,0.35314 0.71401,0.43714 0.71193,0.52117 0.68716,0.60387 0.714,0.68918 0.71192,0.77322 0.68718,0.85723 0.714,0.94123 0.68508,1.02395 0.714,1.09221 0.714,1.16046 0.68511,1.24317 0.71398,1.31014 0.71399,1.37837 0.68512,1.46111 0.71398,1.49653 0.71399,1.57924 0.68511,1.62911 0.714,1.68032 0.68715,1.74857 0.71195,1.79717 0.71399,1.83128 0.68715,1.88248 0.71194,1.91532 0.71399,1.96648 0.68717,1.99932 0.71194,2.01638 0.68715,2.06627 0.71399,2.08465 0.71194,2.10041 0.68718,2.11615 0.71398,2.13452 0.71193,2.13453 0.68716,2.16735 0.71399,2.1503 0.71194,2.15157 0.68716,2.16737 0.714,2.13321 0.68716,2.15159 0.71193,2.11747 0.71399,2.11616 0.68717,2.08463 0.71193,2.06628 0.71399,2.05052 0.68717,1.99931 0.71193,1.98226 0.71399,1.94942 0.68717,1.89825 0.71191,1.86542 0.68718,1.81552 0.714,1.76434 0.71193,1.7302 0.68716,1.66324 0.714,1.61339 0.71194,1.54642 0.68716,1.49521 0.714,1.42828 0.71191,1.36131 0.68717,1.31012 0.71399,1.22613 0.68511,1.16046 0.714,1.09221 0.71398,1.00819 0.68511,0.93992 0.71398,0.85722 0.71401,0.77322 0.68509,0.70625 0.714,0.62092 0.71399,0.55531 0.68511,0.45291 0.71399,0.38723 0.68716,0.28489 0.71192,0.21923 0.71399,0.1339 0.68718,0.0499 0.71192,-0.0499 0.71399,-0.11814 0.68716,-0.20085 0.71196,-0.26913 0.71398,-0.37018 0.68718,-0.45291 0.71191,-0.52117 0.68717,-0.60518 0.71401,-0.67211 0.71191,-0.75616 0.68717,-0.84015 0.714,-0.90711 0.71194,-0.97406 0.68716,-1.05939 0.71399,-1.10927 0.71193,-1.17621 0.68717,-1.26025 0.71399,-1.31011 0.68716,-1.36134 0.71195,-1.42826 0.71398,-1.47816 0.68716,-1.54642 0.71195,-1.57924 0.71399,-1.63044 0.68717,-1.68032 0.71192,-1.7302 0.71399,-1.76433 0.68715,-1.7814 0.71196,-1.83129 0.68715,-1.8654 0.714,-1.89826 0.71193,-1.89955 0.68717,-1.93236 0.71398,-1.96518 0.71193,-1.96651 0.68718,-1.96518 0.71398,-2.00064 0.71194,-1.98225 0.68716,-1.99931 0.71399,-1.9993 0.68511,-1.98358 0.714,-1.98226 0.714,-1.9665 0.6851,-1.96518 1.42798,-3.86473 0.68511,-1.89954 0.71399,-1.86544 0.71401,-1.84833 0.68507,-1.81423 0.714,-1.76434 0.68718,-1.74725 0.71192,-1.69741 0.71401,-1.66325 0.68715,-1.61337 0.71194,-1.56217 0.71399,-1.51228 0.68715,-1.4624 0.71193,-1.39414 0.71401,-1.36132 0.68717,-1.27731 0.71192,-1.24318 0.68717,-1.15914 0.71399,-1.10929 0.71194,-1.02526 0.68716,-0.97404 0.71399,-0.89137 0.71194,-0.84017 0.68716,-0.75612 0.714,-0.67215 0.68716,-0.62092 0.71194,-0.53824 0.71398,-0.4542 0.68715,-0.38595 0.71193,-0.30193 0.714,-0.23629 0.68719,-0.16803 0.60666,-0.1339 1.05656,0 0.44986,0.1339 0.71194,0.15227 0.68716,0.23498 0.714,0.30193 0.71192,0.37019 0.68718,0.4529 0.71398,0.52118 0.71192,0.60517 0.68718,0.65507 0.71399,0.73907 0.71193,0.80733 0.68716,0.87299 0.71399,0.94124 0.68512,1.00819 0.71398,1.05939 0.714,1.12502 0.68511,1.1933 0.71399,1.24318 0.71398,1.29438 0.68512,1.34423 0.71399,1.39415 0.71398,1.44533 0.68512,1.49523 0.71398,1.52933 0.68716,1.57926 0.71195,1.61335 0.714,1.6462 0.68715,1.68032 0.71193,1.69739 0.714,1.73152 0.68715,1.76433 0.71194,1.78008 0.714,1.79847 0.68716,1.81423 0.71193,1.81552 0.68717,1.83131 0.71398,1.84832 0.71195,1.84837 0.68716,1.83127 0.71399,1.84837 0.71194,1.83128 0.68716,1.83259 0.71399,1.81422 0.71192,1.79849 0.68718,1.79714 0.71401,1.76432 0.68714,1.73152 0.71193,1.71315 0.71401,1.69739 0.68716,1.66324 0.71193,1.61339 0.714,1.59629 0.68715,1.54643 0.71193,1.51226 0.714,1.46111 0.68717,1.42827 0.71194,1.36132 0.68716,1.32718 0.71399,1.27732 0.71193,1.21034 0.68716,1.17624 0.71401,1.09221 0.71192,1.05806 0.68717,0.97407 0.71398,0.92418 0.71194,0.85723 0.68717,0.80732 0.71399,0.72201 0.68511,0.67212 0.71398,0.58813 0.71399,0.53823 0.68509,0.45289 0.71401,0.38727 0.71399,0.31898 0.6851,0.25205 0.71401,0.16803 0.714,0.11685 0.6851,0.0341 0.71398,-0.0341 0.68719,-0.11685 0.71191,-0.16803 0.71399,-0.25205 0.68716,-0.31898 0.71194,-0.38727 0.71399,-0.45289 0.68717,-0.52116 0.71193,-0.58813 0.71398,-0.65506 0.68718,-0.70625 0.71193,-0.79027 0.68717,-0.84016 0.71399,-0.89005 0.71194,-0.9583 0.68716,-1.02394 0.71398,-1.07648 0.71193,-1.10793 0.68718,-1.17625 0.71399,-1.22741 0.71194,-1.27731 0.68716,-1.31013 0.71398,-1.36131 0.68717,-1.39414 0.71195,-1.44534 0.71398,-1.47814 0.68717,-1.49655 0.71193,-1.54509 0.71398,-1.56351 0.68717,-1.59628 0.71195,-1.61207 0.71398,-1.63044 0.68714,-1.66324 0.71194,-1.66326 0.68717,-1.68032 0.71401,-1.69739 0.71193,-1.69737 0.68717,-1.69738 0.71399,-1.71316 0.71194,-1.69738 0.68715,-1.69738 0.714,-1.69738 0.68511,-1.68033 0.71399,-1.68033 0.71399,-1.66324 0.68509,-1.63043 0.714,-1.62912 0.71399,-1.59632 0.68511,-1.56348 0.714,-1.54511 0.714,-1.52934 0.68508,-1.47815 0.714,-1.44535 0.68718,-1.41119 0.71192,-1.37841 0.714,-1.32717 0.68716,-1.29439 0.71193,-1.24318 0.714,-1.21032 0.68716,-1.1421 0.71194,-1.09221 0.71398,-1.05809 0.68716,-0.99242 0.71193,-0.92418 0.68718,-0.89006 0.71399,-0.8231 0.71192,-0.75613 0.68716,-0.70626 0.71401,-0.638 0.71193,-0.5881 0.68715,-0.52117 0.71401,-0.45422 0.71194,-0.38594 0.68715,-0.319 0.71401,-0.26911 0.68715,-0.18509 0.71192,-0.13392 0.55512,-0.017 1.05654,0 0.50142,0.0341 0.71402,0.13391 0.68716,0.20217 0.71192,0.25204 0.71401,0.33606 0.68716,0.38594 0.71192,0.45423 0.68718,0.51984 0.71398,0.57236 0.71193,0.638 0.68718,0.68919 0.71399,0.75614 0.71191,0.80602 0.68719,0.85723 0.71399,0.90711 0.71194,0.97538 0.68715,1.00818 0.714,1.07514 0.68512,1.10929 0.71397,1.15915 0.71399,1.1933 0.68513,1.24317 0.71399,1.27729 0.71397,1.31013 0.68513,1.34426 0.71397,1.37839 0.71399,1.41121 0.68512,1.42827 0.71398,1.46108 0.68717,1.49653 0.71193,1.49523 0.71402,1.52936 0.68715,1.52803 0.71194,1.54641 0.71399,1.56218 0.68716,1.58054 0.71194,1.56219 0.71398,1.57923 0.68718,1.57925 0.71192,1.56348 0.68716,1.57925 0.71399,1.56216 0.71195,1.54642 0.68713,1.5464 0.71402,1.5123 0.71192,1.51228 0.68716,1.49522 0.71403,1.46109 0.7119,1.42827 0.68716,1.42829 0.71403,1.37837 0.68715,1.36133 0.71192,1.31013 0.714,1.29435 0.68716,1.24321 0.71192,1.22609 0.71401,1.16047 0.68716,1.12502 0.71193,1.09222 0.71401,1.0423 0.68714,0.97408 0.71194,0.94124 0.68717,0.89005 0.714,0.84015 0.7119,0.79026 0.68719,0.73911 0.71398,0.67212 0.71194,0.62224 0.68716,0.55397 0.71399,0.5041 0.71193,0.45421 0.68718,0.38596 0.71399,0.31899 0.6851,0.26911 0.714,0.21922 0.71399,0.13391 0.6851,0.084 0.71399,0.0342 0.71399,-0.0342 0.68512,-0.10103 0.71398,-0.15097 0.71399,-0.21792 0.68512,-0.26909 0.71398,-0.33608 0.68717,-0.40302 0.71193,-0.43714 0.71399,-0.52115 0.68718,-0.55398 0.71193,-0.62225 0.71399,-0.67213 0.68719,-0.72202 0.71191,-0.7732 0.68715,-0.82309 0.71401,-0.85724 0.71194,-0.92415 0.68714,-0.97539 0.71401,-0.99113 0.71194,-1.05807 0.68715,-1.09221 0.714,-1.12635 0.71193,-1.15915 0.68714,-1.19329 0.71402,-1.24317 0.68714,-1.26024 0.71194,-1.29437 0.714,-1.31011 0.68716,-1.34427 0.71194,-1.36132 0.71401,-1.37707 0.68714,-1.39546 0.71194,-1.42827 0.71401,-1.42826 0.68713,-1.42828 0.71194,-1.44535 0.68718,-1.46107 0.71399,-1.44535 0.71191,-1.4624 0.68717,-1.46108 0.714,-1.44536 0.71194,-1.44531 0.68716,-1.44535 0.71399,-1.42826 0.71193,-1.41122 0.68718,-1.39413 0.71399,-1.39545 0.6851,-1.36003 0.71401,-1.34425 0.71399,-1.31143 0.6851,-1.29306 0.71399,-1.2773 0.71399,-1.22743 0.6851,-1.20904 0.71399,-1.17624 0.714,-1.12632 0.68512,-1.10926 0.71398,-1.0581 0.68718,-1.02525 0.71192,-0.97405 0.714,-0.94125 0.68717,-0.89005 0.71192,-0.84014 0.71397,-0.79028 0.68718,-0.75615 0.71193,-0.70626 0.71399,-0.638 0.68718,-0.60518 0.71193,-0.5369 0.68716,-0.48835 0.71401,-0.43583 0.71192,-0.38727 0.68715,-0.33605 0.71401,-0.26911 0.71193,-0.21793 0.68714,-0.16803 0.71402,-0.10104 0.71193,-0.0499 0.68715,0.017 0.71399,0.05 0.68718,0.1339 0.71191,0.16803 0.71401,0.23629 0.68715,0.26781 0.71193,0.35312 0.71403,0.38726 0.68715,0.43583 0.71191,0.50411 0.71403,0.53821 0.68715,0.60518 0.71191,0.63801 0.68718,0.70625 0.71399,0.73909 0.71194,0.7732 0.68717,0.84015 0.71398,0.87299 0.71194,0.90843 0.68716,0.95698 0.71398,0.97536 0.71195,1.04104 0.68716,1.05938 0.714,1.0922 0.68511,1.12505 0.71398,1.14338 0.71399,1.19198 0.68512,1.1933 0.71399,1.24317 0.71398,1.24448 0.68514,1.27599 0.71397,1.27731 0.71398,1.31143 0.68511,1.31012 0.714,1.32718 0.68717,1.32722 0.71192,1.34424 0.71399,1.34428 0.68717,1.34424 0.71195,1.34425 0.71398,1.34426 0.68716,1.34425 0.71194,1.3285 0.71398,1.3272 0.68718,1.31011 0.71191,1.31145 0.68718,1.27598 0.71401,1.27732 0.71191,1.24317 0.68716,1.24449 0.71403,1.19198 0.71191,1.19328 0.68714,1.15916 0.71402,1.12634 0.68715,1.09219 0.71194,1.07517 0.71401,1.02525 0.68714,0.99111 0.71193,0.95831 0.71401,0.92419 0.68715,0.89003 0.71191,0.84017 0.71403,0.80734 0.68714,0.75614 0.71193,0.70494 0.68718,0.67214 0.714,0.62223 0.71192,0.57106 0.68718,0.53821 0.71399,0.46998 0.71192,0.42007 0.68718,0.38596 0.71397,0.32029 0.71192,0.28489 0.68719,0.21923 0.71399,0.16802 0.68512,0.1339 0.71396,0.067 0.714,0.017 0.68512,-0.0342 0.71399,-0.084 0.714,-0.15096 0.68511,-0.18508 0.71398,-0.23501 0.714,-0.28486 0.6851,-0.33604 0.71399,-0.40435 0.68719,-0.43583 0.71191,-0.47129 0.71399,-0.5369 0.68718,-0.57237 0.71193,-0.62091 0.71398,-0.67215 0.68718,-0.70625 0.71193,-0.73908 0.71398,-0.79028 0.68718,-0.82309 0.71193,-0.87297 0.68715,-0.89136 0.71401,-0.94125 0.71193,-0.95699 0.68714,-1.00818 0.714,-1.02528 0.71196,-1.05806 0.68714,-1.07645 0.71401,-1.10797 0.71193,-1.12633 0.68716,-1.1421 0.714,-1.16047 0.68715,-1.19197 0.71193,-1.1933 0.714,-1.21034 0.68716,-1.22613 0.71192,-1.22742 0.71402,-1.2261 0.68714,-1.24317 0.71195,-1.24319 0.71399,-1.24446 0.68715,-1.24318 0.71193,-1.24318 0.68717,-1.24316 0.71399,-1.22744 0.71194,-1.22611 0.68718,-1.21034 0.71398,-1.19199 0.71192,-1.17621 0.6872,-1.16047 0.71397,-1.15916 0.71192,-1.12503 0.68718,-1.09221 0.714,-1.0922 0.68511,-1.04233 0.71399,-1.02526 0.71398,-1.00818 0.68512,-0.97407 0.71397,-0.92417 0.71399,-0.90712 0.68512,-0.87429 0.71399,-0.84015 0.71398,-0.79028 0.68512,-0.75616 0.71401,-0.72201 0.68717,-0.67211 0.71191,-0.63798 0.71399,-0.58813 0.68719,-0.5553 0.71193,-0.50409 0.71396,-0.46997 0.68719,-0.42008 0.71191,-0.37018 0.714,-0.319 0.68717,-0.28618 0.71193,-0.21792 0.68714,-0.18512 0.71402,-0.1339 0.71193,-0.084 0.44984,0.067 1.05657,0 0.60668,-0.0342 0.68714,0.10103 0.71402,0.15098 0.71193,0.20216 0.68716,0.235 0.714,0.30324 0.68716,0.33606 0.71191,0.38594 0.71404,0.42008 0.68713,0.46996 0.71192,0.52117 0.71403,0.5553 0.68716,0.58812 0.71191,0.63798 0.71402,0.67213 0.68714,0.72201 0.71194,0.74041 0.68717,0.78895 0.71398,0.80734 0.71192,0.85591 0.68718,0.87429 0.71398,0.90711 0.71196,0.94124 0.68716,0.9583 0.714,0.99113 0.68511,1.0082 0.71398,1.041 0.71399,1.04231 0.68511,1.07516 1.42796,2.1844 0.68514,1.10928 0.71398,1.12634 0.71397,1.14211 0.68514,1.14209 0.71397,1.14339 0.68717,1.14211 0.71193,1.15913 0.714,1.14343 0.68716,1.15915 0.71196,1.14208 0.71397,1.12635 0.68718,1.14208 0.71192,1.12634 0.71399,1.1093 0.68718,1.09218 0.71192,1.09221 0.68716,1.05808 0.71401,1.05939 0.71191,1.02395 0.68717,1.00819 0.71401,0.99245 0.71192,0.95697 0.68714,0.94126 0.71403,0.90711 0.71191,0.87427 0.68717,0.85722 0.714,0.80605 0.68715,0.79028 0.71194,0.75612 0.71402,0.72201 0.68713,0.67216 0.71193,0.65506 0.71402,0.60518 0.68715,0.55397 0.71192,0.53822 0.71402,0.48702 0.68714,0.43717 0.71193,0.42008 0.68717,0.35312 0.714,0.319 0.71192,0.28618 0.68718,0.21791 0.71397,0.20217 0.71195,0.13389 0.68716,0.10113 0.71399,0.0499 0.71192,0.017 0.68718,-0.0342 0.714,-0.0669 0.6851,-0.1339 0.71399,-0.15096 0.714,-0.21922 0.6851,-0.25205 0.714,-0.28487 0.71397,-0.33607 0.68512,-0.37019 0.714,-0.42007 0.71399,-0.45423 0.6851,-0.50409 0.714,-0.53692 0.68717,-0.57104 0.71192,-0.60516 0.71398,-0.63932 0.68718,-0.67214 0.71194,-0.70494 0.714,-0.73907 0.68716,-0.77321 0.71195,-0.80735 0.71398,-0.8231 0.68717,-0.85722 0.71192,-0.87297 0.68716,-0.90712 0.71401,-0.92416 0.71194,-0.94124 0.68712,-0.9754 0.71402,-0.97405 0.71193,-1.00819 0.68715,-1.00818 0.714,-1.02527 0.71194,-1.02525 0.68715,-1.04102 0.71401,-1.05938 0.68715,-1.05808 0.71193,-1.05806 0.71402,-1.0594 0.68716,-1.07515 0.71191,-1.05807 0.71402,-1.05941 0.68715,-1.05806 0.71192,-1.04232 0.714,-1.04102 0.68716,-1.04231 0.71193,-1.02525 0.68718,-1.00821 0.71398,-0.99111 0.71192,-0.97407 0.6872,-0.9583 0.71398,-0.94125 0.7119,-0.92417 0.6872,-0.90711 0.71398,-0.87428 0.71192,-0.85592 0.68718,-0.82442 0.714,-0.78896 0.68511,-0.7732 0.714,-0.73909 0.71397,-0.70624 0.68512,-0.68921 0.71399,-0.638 0.714,-0.62225 0.6851,-0.57103 0.71399,-0.5369 0.71399,-0.5041 0.6851,-0.47128 0.71398,-0.43716 0.68719,-0.38596 0.71194,-0.35312 0.71398,-0.319 0.68716,-0.26911 0.71194,-0.23496 0.71397,-0.1851 0.68719,-0.15097 0.71192,-0.11815 0.68716,-0.0669 0.71401,-0.0328 0.71193,0.0157 0.68714,0.0512 0.71401,0.0841 0.71194,0.13391 0.68715,0.18509 0.71401,0.20215 0.71193,0.25204 0.68715,0.30194 0.71402,0.319 0.68715,0.37019 0.71191,0.40302 0.71402,0.45423 0.68716,0.46995 0.7119,0.52117 0.71403,0.5369 0.68715,0.57235 0.71194,0.62095 0.71401,0.6393 0.68713,0.67214 0.71195,0.70493 0.68717,0.72333 0.71398,0.75615 0.71193,0.77189 0.68719,0.80733 0.71397,0.82311 0.71193,0.84016 0.68716,0.87429 0.71399,0.87297 0.71195,0.90711 0.68715,0.90843 0.714,0.93992 0.68512,0.94123 0.71399,0.94126 0.71397,0.97406 0.68513,0.95829 0.71399,0.97407 0.71398,0.99245 0.68513,0.97405 0.71397,0.99112 0.71398,0.97539 0.68512,0.99113 0.71399,0.97404 0.68717,0.97538 0.71194,0.957 0.714,0.95829 0.68716,0.95701 0.71192,0.94124 0.71399,0.92416 0.68719,0.90713 0.7119,0.89136 0.714,0.89003 0.68718,0.85723 0.71191,0.84015 0.68717,0.82311 0.71401,0.79027 0.71193,0.7732 0.68716,0.75615 0.71401,0.72202 0.71191,0.70627 0.68716,0.65505 0.71402,0.65506 0.71191,0.60517 0.68716,0.57105 0.71402,0.554 0.68715,0.52115 0.7119,0.47127 0.71402,0.45289 0.68716,0.42008 0.71193,0.37018 0.71401,0.35315 0.68714,0.30193 0.71193,0.26913 0.71402,0.23498 0.68716,0.20216 0.71192,0.15096 0.68718,0.11684 0.71399,0.0841 0.47461,0.11816 1.05655,0 0.58192,-0.10104 0.71193,-0.067 0.68716,-0.10105 0.71401,-0.15097 0.71191,-0.16802 0.68717,-0.21791 0.714,-0.25206 0.6851,-0.30324 0.71401,-0.31901 0.71398,-0.35314 0.6851,-0.40301 0.71399,-0.42007 0.714,-0.45421 0.68511,-0.48703 0.714,-0.52117 0.71399,-0.55398 0.68512,-0.58811 0.71399,-0.60518 0.68716,-0.638 0.71193,-0.65505 0.71398,-0.6892 0.68717,-0.70626 0.71194,-0.73907 0.71398,-0.73908 0.68718,-0.77321 0.71193,-0.80604 0.71398,-0.80733 0.68717,-0.82309 0.71195,-0.84017 0.68713,-0.85722 0.71401,-0.85723 0.71194,-0.87297 0.68715,-0.89137 0.71401,-0.89003 0.71192,-0.9071 0.68716,-0.89136 0.714,-0.90713 0.68717,-0.90711 0.71191,-0.92416 0.714,-0.90711 0.68717,-0.90713 0.71194,-0.89133 0.714,-0.90711 0.68716,-0.89006 0.71192,-0.87428 0.714,-0.8743 0.68715,-0.85591 0.71193,-0.85724 0.68718,-0.82307 0.71399,-0.82442 0.71191,-0.80603 0.6872,-0.79028 0.71398,-0.75613 0.71193,-0.75615 0.68718,-0.72201 0.71398,-0.70626 0.71193,-0.68787 0.68718,-0.65639 0.71398,-0.62093 0.68511,-0.60516 0.71401,-0.58813 0.71396,-0.53822 0.68512,-0.51985 0.71398,-0.48835 0.71399,-0.46996 0.68512,-0.42008 0.71399,-0.40301 0.714,-0.37019 0.6851,-0.33607 0.71398,-0.28488 0.6872,-0.26911 0.71191,-0.23497 0.71399,-0.20217 0.68717,-0.15096 0.71194,-0.13522 0.71398,-0.084 0.68718,-0.067 0.71191,-0.017 0.714,0.017 0.68716,0.0342 0.71194,0.084 0.68714,0.11684 0.71403,0.15226 0.71191,0.18379 0.68716,0.21924 0.71401,0.25202 0.71192,0.28488 0.68714,0.32031 0.71404,0.35183 0.71192,0.3702 0.68717,0.42007 0.714,0.43714 0.68715,0.46997 0.71191,0.48704 0.71403,0.53821 0.68715,0.53824 0.71192,0.58811"
             style="display:inline;fill:none;stroke:#000000;stroke-width:1.20099998;stroke-linecap:butt;stroke-linejoin:miter;stroke-miterlimit:10;stroke-dasharray:none;stroke-opacity:1"
             inkscape:connector-curvature="0" />
          <path
             transform="translate(0,-122)"
             clip-path="url(#clipPath5024)"
             mask="none"
             id="path5798"
             d="m 370.75302,354.42153 0.74262,-1.29807 0.71257,-1.29954 1.48525,-2.59615 0.71257,-1.27896 0.74263,-1.28044 0.71472,-1.25984 0.74047,-1.24221 0.74263,-1.2231 0.71472,-1.2231 0.74047,-1.18634 0.74263,-1.16577 0.71472,-1.14813 0.74047,-1.12902 0.74263,-1.09079 0.71472,-1.05404 0.74047,-1.03493 0.71472,-0.99818 0.74263,-0.95848 0.74047,-0.92322 0.71472,-0.90261 0.74263,-0.84676 0.74048,-0.80855 0.71471,-0.77178 0.74263,-0.71592 0.74047,-0.69534 0.71471,-0.62184 0.74263,-0.60126 0.71472,-0.54541 0.74046,-0.48952 0.74264,-0.45132 0.71472,-0.39545 0.74048,-0.33957 0.74262,-0.2999 0.71472,-0.24551 0.74047,-0.20729 0.74262,-0.13082 0.71472,-0.0941 0.74047,-0.0382 0.71472,0.0191 0.74264,0.0559 0.74047,0.1323 0.71472,0.16906 0.74262,0.20728 0.74047,0.28225 0.71472,0.32049 0.74264,0.37633 0.74047,0.4322 0.71472,0.47043 0.74263,0.50864 0.71256,0.58215 0.74262,0.60272 0.74263,0.6777 0.71257,0.69535 0.74262,0.75269 0.74263,0.79089 0.71257,0.82765 0.74262,0.88498 0.74263,0.90261 0.71257,0.94087 0.74262,0.97907 0.71472,1.01581 0.74048,1.05403 0.74262,1.07169 0.71471,1.11138 0.74048,1.129 0.74263,1.16577 0.71472,1.18635 0.74049,1.204 0.71471,1.22309 0.74261,1.24221 0.74049,1.24074 0.71471,1.28042 0.74261,1.27896 0.74049,1.28044 0.71473,1.29808 0.74261,1.29807 0.74048,1.31718 0.71472,1.29806 0.74262,1.29809 0.71473,1.29953 0.74047,1.29808 0.74262,1.29807 0.71473,1.27897 0.74048,1.26131 0.7426,1.26133 0.71473,1.2231 0.74048,1.22308 0.74262,1.204 0.71472,1.18488 0.74048,1.14812 0.71471,1.12902 0.74262,1.10991 0.74049,1.07315 0.71471,1.05404 0.74263,1.01582 0.74048,0.9776 0.71471,0.94084 0.74262,0.90409 0.74048,0.86588 0.71472,0.82765 0.74261,0.78942 0.7126,0.75268 0.74262,0.6968 0.74261,0.65861 0.71259,0.62035 0.74261,0.56452 0.74261,0.50864 0.71259,0.47043 0.74262,0.4322 0.74261,0.35869 0.71259,0.31902 0.74262,0.28225 0.71471,0.20728 0.74047,0.16905 0.74263,0.1132 0.71473,0.0559 0.74047,0.0192 0.74262,-0.0368 0.71472,-0.0941 0.74047,-0.15142 0.74262,-0.20728 0.71472,-0.24403 0.74047,-0.30135 0.71474,-0.35724 0.74262,-0.39546 0.74046,-0.45129 0.71474,-0.48954 0.74261,-0.54539 0.74049,-0.60273 0.71474,-0.63949 0.7426,-0.69535 0.74047,-0.71592 0.71473,-0.77179 0.74261,-0.82764 0.71472,-0.84677 0.74048,-0.8835 0.74262,-0.94085 0.71473,-0.95996 0.74047,-0.99818 0.74263,-1.03493 0.71472,-1.07167 0.74046,-1.09227 0.74264,-1.1099 0.71471,-1.14813 0.74047,-1.18489 0.71474,-1.18487 0.74261,-1.22309 0.74047,-1.22309 0.71473,-1.24222 0.74261,-1.26132 0.74048,-1.27896 0.71473,-1.28044 0.74262,-1.29808 0.74047,-1.29807 0.71472,-1.31717 0.74263,-1.29808 0.71256,-1.29807 0.74264,-1.29955 0.74262,-1.29807 0.71256,-1.29807 0.74263,-1.27896 0.74262,-1.28044 0.71257,-1.25985 0.74264,-1.24221 0.74262,-1.2231 0.71257,-1.22309 0.74262,-1.18634 0.71472,-1.16577 0.74047,-1.14813 0.74262,-1.1099 0.71472,-1.09227 0.74048,-1.05256 0.74262,-1.03495 0.71474,-0.99816 0.74047,-0.95997 0.74261,-0.92172 0.71473,-0.88352 0.74048,-0.84675 0.71471,-0.81002 0.74263,-0.77179 0.74047,-0.71446 0.71471,-0.67769 0.74264,-0.63949 0.74047,-0.58361 0.71471,-0.5454 0.74264,-0.48954 0.71472,-0.45131 0.74047,-0.39545 0.74262,-0.33811 0.71472,-0.28224 0.74047,-0.24552 0.74263,-0.18818 0.71473,-0.14994 0.74047,-0.075 0.74262,-0.0382 0.71472,0.0191 0.74048,0.075 0.7147,0.1132 0.74264,0.16906 0.74048,0.22638 0.71472,0.28226 0.74262,0.33812 0.74048,0.37634 0.71471,0.41455 0.74262,0.48954 0.74049,0.52628 0.71471,0.56452 0.74262,0.62036 0.71258,0.6586 0.74262,0.71591 0.74263,0.75269 0.71257,0.78943 0.74263,0.84675 0.74262,0.86587 0.71257,0.92173 0.74262,0.94085 0.74263,0.99819 0.71256,1.01581 0.74263,1.03494 0.71471,1.09078 0.74049,1.11138 0.74262,1.12902 0.71471,1.16575 0.74049,1.18635 0.74262,1.204 0.7147,1.22309 0.7405,1.24221 0.74262,1.24075 0.71472,1.28042 0.74048,1.27897 0.71471,1.28042 0.74262,1.29808 0.74048,1.31718 0.71473,1.29808 0.74261,1.29806 0.74047,1.31719 0.71474,1.29809 0.74262,1.28041 0.74046,1.29808 0.71473,1.27897 0.74263,1.26132 0.7147,1.26132 0.74049,1.22309 0.74262,1.22309 0.71471,1.20399 0.74049,1.18488 0.74262,1.14813 0.71472,1.12902 0.74049,1.1099 0.7426,1.07315 0.71472,1.03492 0.74049,1.01583 0.71471,0.97907 0.74262,0.94085 0.74048,0.90262 0.71473,0.86587 0.74262,0.82764 0.74047,0.7718 0.71472,0.75267 0.74262,0.69535 0.74047,0.65859 0.71474,0.60273 0.74261,0.5645 0.71258,0.50865 0.74263,0.47042 0.7426,0.4131 0.71258,0.37633 0.74263,0.32047 0.74261,0.26315 0.71258,0.20727 0.74262,0.16906 0.74262,0.1132 0.49365,-0.0191 1.0989,0 0.57738,0.0191 0.74047,-0.0941 0.74262,-0.15142 0.71473,-0.20582 0.74046,-0.24549 0.74262,-0.30138 0.71473,-0.35721 0.74046,-0.41309 0.74265,-0.45278 0.71472,-0.50717 0.74046,-0.54541 0.71473,-0.60273 0.74262,-0.63948 0.74047,-0.6777 0.71472,-0.73356 0.74262,-0.79091 0.74048,-0.80854 0.71473,-0.86586 0.74261,-0.88499 0.74048,-0.94084 0.71471,-0.95849 0.74263,-0.99817 0.71473,-1.05404 0.74046,-1.05258 0.74263,-1.09226 0.71473,-1.12901 0.74046,-1.14813 0.74263,-1.18488 0.71473,-1.18487 0.74047,-1.22311 0.74262,-1.22309 0.71472,-1.26132 0.74047,-1.26133 0.71473,-1.25984 0.74261,-1.29807 0.74049,-1.29954 0.71473,-1.29809 0.74261,-1.29807 0.74048,-1.29807 0.7147,-1.31719 0.74263,-1.29807 0.71257,-1.29954 0.74262,-1.27896 0.74264,-1.29808 0.71257,-1.26131 0.74262,-1.25986 0.74263,-1.24221 0.71256,-1.22309 0.74262,-1.2231 0.74264,-1.18635 0.71257,-1.16576 0.74261,-1.12903 0.71474,-1.12901 0.74047,-1.09226 0.74262,-1.05257 0.71472,-1.01729 0.74047,-0.99669 0.74263,-0.95998 0.71472,-0.92173 0.74048,-0.88499 0.74261,-0.84675 0.71472,-0.78942 0.74049,-0.77179 0.7147,-0.71446 0.74263,-0.67771 0.74049,-0.63947 0.7147,-0.58363 0.74264,-0.52775 0.74048,-0.48807 0.71469,-0.43366 0.74265,-0.39545 0.74049,-0.33813 0.71469,-0.28225 0.74264,-0.24402 0.7147,-0.18817 0.74047,-0.13231 0.74264,-0.0941 0.71471,-0.0191 0.74047,0.0191 0.74264,0.075 0.71472,0.13231 0.74047,0.16906 0.74263,0.22639 0.71471,0.28226 0.74048,0.33811 0.71472,0.37635 0.74262,0.43219 0.74047,0.48954 0.71472,0.52776 0.74263,0.58214 0.74048,0.62183 0.71472,0.65859 0.74262,0.71446 0.74048,0.75269 0.71472,0.81 0.74261,0.82766 0.71259,0.88351 0.74261,0.9232 0.74263,0.94084 0.71259,0.99671 0.74261,1.01582 0.74261,1.05404 0.7126,1.07316 0.7426,1.1099 0.74261,1.14812 0.71261,1.16577 0.7426,1.18635 0.71474,1.20399 0.74048,1.22309 0.74261,1.24221 0.71472,1.25986 0.74048,1.26131 0.74262,1.27897 0.71472,1.29806 0.74048,1.29955 0.74261,1.29808 0.71473,1.29807 0.74047,1.31718 0.71471,1.29806 0.74264,1.29809 0.74047,1.29954 0.71471,1.27896 0.74264,1.27896 0.74045,1.26132 0.71472,1.26132 0.74265,1.24073 0.74047,1.20546 0.71472,1.20399 0.74263,1.16577 0.7147,1.16723 0.74048,1.12903 0.74264,1.09078 0.71469,1.07316 0.74049,1.03493 0.74265,1.01583 0.71469,0.97905 0.74048,0.92174 0.74263,0.90262 0.7147,0.86588 0.74048,0.82765 0.71473,0.79089 0.74261,0.73356 0.74047,0.69681 0.71474,0.6395 0.74261,0.62036 0.74046,0.54688 0.71475,0.50716 0.74262,0.47044 0.74045,0.41454 0.71475,0.35723 0.74261,0.32048 0.71258,0.26314 0.74263,0.20728 0.74261,0.14995 0.71259,0.11319 1.01735,-0.0191 0.54944,0 0.63102,0.0191 0.74262,-0.0941 0.74261,-0.16905 0.71259,-0.18818 0.74263,-0.26462 0.71473,-0.319 0.74047,-0.35722 0.74261,-0.39546 0.71473,-0.47042 0.74046,-0.50863 0.74262,-0.5454 0.71475,-0.60274 0.74045,-0.65858 0.71472,-0.67623 0.74265,-0.73504 0.74046,-0.78942 0.7147,-0.81002 0.74265,-0.86439 0.74047,-0.90411 0.7147,-0.94084 0.74264,-0.95997 0.74047,-1.01581 0.71471,-1.03492 0.74264,-1.07168 0.71471,-1.09227 0.74046,-1.12902 0.74265,-1.14813 0.71471,-1.16575 0.74045,-1.20399 0.74265,-1.2231 0.71471,-1.22311 0.74047,-1.26132 0.74266,-1.26131 0.71471,-1.27897 0.74045,-1.27896 0.71473,-1.29954 0.74263,-1.29807 0.74046,-1.29807 0.71473,-1.3172 0.74262,-1.29806 0.74048,-1.29806 0.71473,-1.29955 0.74261,-1.29808 0.74047,-1.27896 0.71472,-1.26132 0.74262,-1.25986 0.7126,-1.24221 0.7426,-1.24221 0.74262,-1.20399 0.71259,-1.18633 0.74262,-1.16577 0.74261,-1.12903 0.71259,-1.1099 0.74262,-1.09226 0.74261,-1.05403 0.71259,-1.01583 0.74261,-0.9967 0.71473,-0.95996 0.74048,-0.92174 0.74262,-0.86586 0.71472,-0.84678 0.74048,-0.80852 0.74261,-0.75268 0.71472,-0.71593 0.74049,-0.6777 0.7426,-0.62039 0.71472,-0.5836 0.74051,-0.52628 0.71469,-0.48955 0.74264,-0.43219 0.74048,-0.39545 0.71469,-0.32048 0.74264,-0.30136 0.74049,-0.22492 0.7147,-0.18817 0.74263,-0.13231 0.74049,-0.075 0.7147,-0.0191 0.74263,0.0191 0.71471,0.075 0.74047,0.13231 0.74265,0.18817 0.71469,0.24403 0.74048,0.28225 0.74264,0.33959 0.7147,0.37634 0.74048,0.43219 0.74265,0.48955 0.71469,0.52628 0.74048,0.5836 0.71473,0.62039 0.7426,0.6777 0.74049,0.71593 0.71472,0.77032 0.74263,0.79088 0.74048,0.84678 0.71472,0.88498 0.74261,0.90262 0.74048,0.95996 0.71472,0.9967 0.74261,1.01583 0.7126,1.05403 0.74261,1.09226 0.74263,1.1099 0.71259,1.14813 0.7426,1.14667 0.74262,1.20545 0.71258,1.20399 0.74263,1.22309 0.74261,1.24221 0.71258,1.25986 0.74262,1.26132 0.71473,1.29807 0.74047,1.27897 0.74262,1.29955 0.71472,1.29806 0.74048,1.31718 0.74263,1.29808 0.71472,1.29807 0.74046,1.29807 0.74263,1.29954 0.71473,1.27896 0.74048,1.27897 0.7147,1.28043 0.74264,1.2422 0.74047,1.24076 0.71471,1.20545 0.74263,1.20399 0.74046,1.16575 0.71472,1.14813 0.74266,1.12902 0.71469,1.10991 0.74048,1.05404 0.74264,1.03492 0.71469,1.01581 0.74047,0.97909 0.74266,0.92172 0.71469,0.90411 0.74047,0.86439 0.74266,0.81002 0.7147,0.78942 0.74046,0.73504 0.71473,0.69534 0.74263,0.63947 0.74047,0.60274 0.71473,0.5454 0.74261,0.50863 0.74046,0.47042 0.71475,0.39546 0.74261,0.35722 0.74047,0.319 0.71474,0.26462 0.74261,0.20582 0.71258,0.15141 0.74263,0.0941 0.96154,-0.0191 0.54945,0 0.68684,0.0191 0.74261,-0.11319 0.71258,-0.14995 0.74261,-0.20728 0.74261,-0.26314 0.71259,-0.32048 0.7426,-0.35723 0.71475,-0.41454 0.74048,-0.47044 0.7426,-0.50716 0.71475,-0.56452 0.74047,-0.60272 0.74259,-0.6395 0.71475,-0.69681 0.74047,-0.75267 0.74261,-0.77178 0.71474,-0.82765 0.74046,-0.86588 0.71471,-0.90262 0.74265,-0.94084 0.74046,-0.95995 0.71471,-1.01583 0.74265,-1.03493 0.74046,-1.07316 0.71471,-1.1099 0.74263,-1.12901 0.74047,-1.14813 0.71472,-1.16577 0.74265,-1.20399 0.7147,-1.2231 0.74046,-1.22309 0.74264,-1.26132 0.71471,-1.26132 0.74047,-1.27896 0.74263,-1.27896 0.71473,-1.29954 0.74046,-1.29809 0.74265,-1.31717 0.71471,-1.29807 0.74046,-1.29807 0.71473,-1.31719 0.74262,-1.28044 0.74047,-1.29806 0.71473,-1.27897 0.74261,-1.28043 0.74047,-1.24074 0.71474,-1.24221 0.74261,-1.2422 0.74047,-1.20399 0.71474,-1.18636 0.74261,-1.14665 0.7126,-1.14812 0.7426,-1.1099 0.74262,-1.07316 0.71259,-1.05404 0.74261,-1.01582 0.74262,-0.99671 0.71259,-0.95995 0.74261,-0.90409 0.74262,-0.88351 0.71258,-0.82766 0.74261,-0.81 0.71473,-0.75269 0.74048,-0.71446 0.74263,-0.65859 0.71472,-0.62183 0.74048,-0.58214 0.74261,-0.52776 0.71472,-0.48954 0.74048,-0.43219 0.74262,-0.37635 0.71472,-0.33811 0.74048,-0.28226 0.71471,-0.22639 0.74264,-0.16906 0.74047,-0.13231 0.7147,-0.075 0.74265,-0.0191 0.74048,0.0191 0.71469,0.0941 0.74264,0.13231 0.74048,0.18817 0.7147,0.24402 0.74264,0.28225 0.7147,0.33813 0.74048,0.39545 0.74264,0.43366 0.7147,0.48807 0.74047,0.54686 0.74264,0.58216 0.7147,0.62183 0.7405,0.67771 0.74263,0.71446 0.7147,0.77179 0.74048,0.78942 0.71472,0.84675 0.74262,0.88499 0.74048,0.92173 0.71472,0.95998 0.74262,0.99669 0.74049,1.01729 0.71472,1.07168 0.74261,1.07315 0.71258,1.12901 0.74262,1.12903 0.74262,1.16576 0.71258,1.18635 1.48523,2.44619 0.71259,1.24221 0.74263,1.25986 0.74261,1.28043 0.71258,1.27896 0.74263,1.27896 0.71472,1.29954 0.74047,1.31719 0.74262,1.29807 0.71472,1.29807 0.74048,1.31719 0.74263,1.29808 0.71472,1.28043 0.74047,1.29807 0.74262,1.27895 0.71472,1.26132 0.74047,1.24222 0.71469,1.24073 0.74266,1.20547 0.74049,1.20398 0.71469,1.16577 0.74265,1.14813 0.74047,1.12901 0.71469,1.09226 0.74266,1.07168 0.74047,1.03494 0.71469,0.99817 0.74265,0.95849 0.71471,0.94084 0.74047,0.9041 0.74264,0.84675 0.7147,0.82766 0.74048,0.77179 0.74264,0.73356 0.7147,0.6777 0.74047,0.65858 0.74265,0.58363 0.7147,0.56451 0.74048,0.48807 0.71474,0.45278 0.7426,0.41309 0.74047,0.35721 0.71473,0.30138 0.74261,0.26313 0.74047,0.18818 0.71473,0.15142 0.74263,0.0941 0.90575,-0.0191 1.29207,0 0.71258,-0.0941 0.74261,-0.16906 0.74263,-0.20728 0.71258,-0.28225 0.74261,-0.30137 0.74263,-0.37633 0.71259,-0.41309 0.7426,-0.47043 0.74262,-0.50865 0.7126,-0.56449 0.7426,-0.60274 0.71474,-0.65859 0.74047,-0.69535 0.7426,-0.75267 0.71475,-0.77179 0.74047,-0.82766 0.74261,-0.86585 0.71474,-0.90263 0.74046,-0.95996 0.74261,-0.95996 0.71473,-1.01581 0.74047,-1.05404 0.71471,-1.07315 0.74266,-1.09079 0.74046,-1.12903 0.71471,-1.16724 0.74264,-1.16576 0.74047,-1.20399 0.7147,-1.22309 0.74263,-1.24221 0.74049,-1.2422 0.71471,-1.26133 0.74264,-1.27896 0.71471,-1.29808 0.74046,-1.29807 0.74264,-1.29954 0.71471,-1.29808 0.74047,-1.29806 0.74264,-1.31719 0.71471,-1.29807 0.74046,-1.29807 0.74265,-1.28044 0.71471,-1.27897 0.74046,-1.28042 0.71474,-1.25986 0.74262,-1.2231 0.74046,-1.24221 0.71473,-1.20398 0.74261,-1.16724 0.74048,-1.16577 0.71474,-1.12901 0.74261,-1.11139 0.74048,-1.09077 0.71472,-1.05404 0.74261,-1.01583 0.7126,-0.97906 0.7426,-0.94085 0.74261,-0.92173 0.7126,-0.86587 0.74263,-0.84677 0.74261,-0.78942 0.71259,-0.75268 0.74261,-0.71593 0.74261,-0.65859 0.71259,-0.62037 0.7426,-0.5645 0.71476,-0.52628 0.74048,-0.48955 0.74263,-0.41455 0.71469,-0.37633 0.74049,-0.33813 0.74261,-0.28226 0.7147,-0.22638 0.74048,-0.16905 0.7147,-0.1132 0.74267,-0.075 0.74048,-0.0191 0.71471,0.0382 0.74261,0.075 0.7405,0.14995 0.71469,0.18817 0.74262,0.24551 0.74048,0.28225 0.7147,0.35722 0.74267,0.37634 0.7147,0.45131 0.7405,0.48954 0.74261,0.5454 0.71469,0.58361 0.74049,0.63948 0.74262,0.67771 0.71468,0.71444 0.7405,0.77178 0.74268,0.81002 0.71469,0.84677 0.7405,0.88351 0.71469,0.92173 0.74261,0.95997 0.74048,0.99816 0.7147,1.03494 0.74262,1.05256 0.74049,1.09227 0.71476,1.1099 0.74261,1.14814 0.74043,1.16577 0.71476,1.18633 0.74261,1.22311 0.71257,1.22309 0.74262,1.2422 0.74261,1.25986 0.71266,1.28044 0.7426,1.27895 0.7426,1.29807 0.7126,1.29808 0.7426,1.29954 0.7426,1.29807 0.7126,1.31718 0.7426,1.29808 0.7147,1.29807 0.7405,1.29807 0.7427,1.28044 0.7147,1.27896 0.7404,1.26131 0.7427,1.24222 0.7147,1.24073 0.7404,1.20547 0.7426,1.20399 0.7148,1.16575 0.7405,1.14814 0.7147,1.10991 0.7426,1.09227 0.7405,1.07167 0.7147,1.03493 0.7426,0.99817 0.7405,0.95996 0.7147,0.94084 0.7427,0.88352 0.7404,0.86587 0.7147,0.80854 0.7427,0.7718 0.7147,0.73357 0.7404,0.67769 0.7427,0.63948 0.7147,0.60273 0.7404,0.5454 0.7427,0.48953 0.7147,0.4513 0.7404,0.41457 0.7427,0.33811 0.7147,0.30137 0.7405,0.24402 0.7147,0.20729 0.7426,0.15142 0.7405,0.0941 0.7148,0.0367 0.7426,-0.0192 0.7404,-0.0558 0.7148,-0.1132 0.7426,-0.16905 0.7405,-0.20728 0.7147,-0.28226 0.7426,-0.31901 0.7126,-0.35869 0.7426,-0.4322 0.7426,-0.47043 0.7126,-0.50864 0.7426,-0.56451 0.7427,-0.62038 0.7125,-0.6586 0.7426,-0.6968 0.7427,-0.75268 0.7126,-0.78942 0.7426,-0.82766 0.7147,-0.86587 0.7405,-0.90408 0.7426,-0.94084 0.7147,-0.99672 0.7405,-0.9967 0.7426,-1.05405 0.7147,-1.07315 0.7405,-1.1099 0.7426,-1.12902 0.7147,-1.14813 0.7405,-1.18488 0.7147,-1.20399 0.7426,-1.22309 0.7405,-1.24221 0.7147,-1.24221 0.7427,-1.27896 0.7404,-1.28043 0.7148,-1.27897 0.7426,-1.29807 0.7147,-1.29954 0.7405,-1.29808 0.7426,-1.31718 0.7147,-1.29807 0.7405,-1.29808 0.7427,-1.29806 0.7147,-1.29956 0.7404,-1.27895 0.7427,-1.26133 0.7147,-1.25985 0.7404,-1.2422 0.7147,-1.22309 0.7427,-1.18488 0.7405,-1.18636 0.7147,-1.16576 0.7426,-1.12902 0.7404,-1.11136 0.7148,-1.07169 0.7426,-1.05404 0.7405,-1.01582 0.7147,-0.97907 0.7426,-0.94084 0.7127,-0.92174 0.7426,-0.86586 0.7426,-0.82766 0.7125,-0.79089 0.7427,-0.75269 0.7426,-0.71446 0.7125,-0.65857 0.7427,-0.60275 0.7426,-0.58214 0.7126,-0.50864 0.7426,-0.47043 0.7147,-0.43219 0.7405,-0.37634 0.7426,-0.32048 0.7147,-0.28225 0.7405,-0.20728 0.7426,-0.18817 0.7148,-0.1132 0.7404,-0.0558 0.7426,-0.0191 0.7148,0.0382 0.7405,0.0941 0.7147,0.13084 0.7426,0.20729 0.7405,0.24549 0.7147,0.2999 0.7427,0.33958 0.7404,0.39544 0.7147,0.45133 0.7426,0.48952 0.7405,0.5454 0.7147,0.60127 0.7426,0.62183 0.7147,0.69535 0.7405,0.71592 0.7427,0.77178 0.7147,0.80854 0.7404,0.84677"
             style="display:inline;fill:none;stroke:#000000;stroke-width:1.20099998;stroke-linecap:butt;stroke-linejoin:miter;stroke-miterlimit:10;stroke-dasharray:none;stroke-opacity:1"
             inkscape:connector-curvature="0" />
        </g>
        <g
           id="g5052"
           style="opacity:0.8">
          <rect
             y="169.39949"
             x="207.32753"
             height="129.39127"
             width="300"
             id="rect5443"
             style="display:inline;opacity:0.76999996;fill:#ffcc00;fill-opacity:1;stroke-width:0.85900003;stroke-miterlimit:4;stroke-dasharray:none" />
          <text
             sodipodi:linespacing="125%"
             id="text7615"
             y="295.40842"
             x="260.2244"
             style="font-style:normal;font-weight:normal;font-size:15px;line-height:125%;font-family:sans-serif;letter-spacing:0px;word-spacing:0px;display:inline;opacity:1;fill:#000000;fill-opacity:1;stroke:none;stroke-width:1px;stroke-linecap:butt;stroke-linejoin:miter;stroke-opacity:1;"
             xml:space="preserve"><tspan
               id="tspan7637"
               y="295.40842"
               x="260.2244"
               sodipodi:role="line">medium: n = 1-  +i  	 	</tspan></text>
        </g>
      </g>
      <g
         id="g5072">
        <g
           id="g5057">
          <path
             style="display:inline;fill:#0000ff;fill-opacity:1;stroke-width:0.85900003;stroke-miterlimit:4;stroke-dasharray:none"
             d="m 633.95701,42.691046 3.39779,-13.16706 3.46279,13.16706 -2.3091,-0.10655 0,82.620354 2.3091,0.009 -3.46279,13.14713 -3.39779,-13.03723 2.24411,-0.0232 0,-82.716554 z"
             id="path5542"
             inkscape:connector-curvature="0"
             sodipodi:nodetypes="ccccccccccc" />
          <rect
             style="display:inline;fill:#0000ff;fill-opacity:1;stroke-width:1.20099998;stroke-miterlimit:10;stroke-dasharray:none"
             id="rect5553"
             width="65.912453"
             height="1.207448"
             x="593.80365"
             y="27.981956" />
          <rect
             y="139.89594"
             x="612.9856"
             height="1.207448"
             width="65.912453"
             id="rect7647"
             style="display:inline;fill:#0000ff;fill-opacity:1;stroke-width:1.20099998;stroke-miterlimit:10;stroke-dasharray:none" />
        </g>
        <g
           id="g5028"
           transform="translate(0,8)">
          <path
             sodipodi:nodetypes="ccccccccccc"
             inkscape:connector-curvature="0"
             id="path7583"
             d="m 657.88559,198.64905 4.28219,-7.9822 4.3641,7.9822 -2.91012,-0.0646 0,50.0866 2.91012,0.005 -4.3641,7.97013 -4.28219,-7.90351 2.82822,-0.014 0,-50.14491 z"
             style="display:inline;fill:#0000ff;fill-opacity:1;stroke-width:0.85900003;stroke-miterlimit:4;stroke-dasharray:none" />
          <rect
             style="display:inline;fill:#0000ff;fill-opacity:1;stroke-width:1.20099998;stroke-miterlimit:10;stroke-dasharray:none"
             id="rect7649"
             width="65.912453"
             height="1.207448"
             x="618.41412"
             y="189.92018" />
          <rect
             style="display:inline;fill:#0000ff;fill-opacity:1;stroke-width:1.20099998;stroke-miterlimit:10;stroke-dasharray:none"
             id="rect7651"
             width="65.912453"
             height="1.207448"
             x="631.83496"
             y="256.9447" />
        </g>
        <text
           xml:space="preserve"
           style="font-style:normal;font-weight:normal;font-size:17.5px;line-height:125%;font-family:sans-serif;letter-spacing:0px;word-spacing:0px;display:inline;fill:#0000ff;fill-opacity:1;stroke:none;stroke-width:1px;stroke-linecap:butt;stroke-linejoin:miter;stroke-opacity:1"
           x="594.42975"
           y="175.43077"
           id="text7601"
           sodipodi:linespacing="125%"><tspan
             sodipodi:role="line"
             id="tspan7603"
             x="594.42975"
             y="175.43077">Attenuation</tspan></text>
      </g>
      <g
         id="g5062">
        <rect
           y="28.145824"
           x="129.98288"
           height="270.83237"
           width="1.2667129"
           id="rect7609"
           style="display:inline;fill:#008000;fill-opacity:1;stroke:none;stroke-width:0.85900003;stroke-miterlimit:4;stroke-dasharray:none;stroke-opacity:1" />
        <g
           id="g5038">
          <g
             id="g5033">
            <rect
               style="display:inline;fill:#008000;fill-opacity:1;stroke:none;stroke-width:0.85900003;stroke-miterlimit:4;stroke-dasharray:none;stroke-opacity:1"
               id="rect7656"
               width="1.2667129"
               height="174.43382"
               x="558.09491"
               y="24.441044" />
            <rect
               y="189.76875"
               x="573.83911"
               height="81.349838"
               width="1.2667129"
               id="rect7658"
               style="display:inline;fill:#008000;fill-opacity:1;stroke:none;stroke-width:0.85900003;stroke-miterlimit:4;stroke-dasharray:none;stroke-opacity:1" />
            <path
               style="display:inline;fill:#008000;fill-opacity:1;stroke-width:0.85900003;stroke-miterlimit:4;stroke-dasharray:none"
               d="m 571.46802,189.8892 2.76771,3.65674 -2.76771,3.80413 0,-2.88994 -9.22568,0 0,2.81187 -2.76771,-3.72606 2.79023,-3.65674 -0.0225,2.74256 9.22569,0 z"
               id="path5544"
               inkscape:connector-curvature="0"
               sodipodi:nodetypes="ccccccccccc"
               inkscape:transform-center-x="61.814194"
               inkscape:transform-center-y="78.296596" />
          </g>
          <text
             sodipodi:linespacing="125%"
             id="text9228"
             y="158.70183"
             x="465"
             style="font-style:normal;font-weight:normal;font-size:15px;line-height:125%;font-family:sans-serif;letter-spacing:0px;word-spacing:0px;fill:#008000;fill-opacity:1;stroke:none;stroke-width:1px;stroke-linecap:butt;stroke-linejoin:miter;stroke-opacity:1"
             xml:space="preserve"><tspan
               y="158.70183"
               x="465"
               id="tspan9230"
               sodipodi:role="line">phase shift</tspan></text>
        </g>
      </g>
    </g>
  </g>
</svg>
