<?xml version="1.0" encoding="UTF-8" standalone="no"?>
<!-- Created with Inkscape (http://www.inkscape.org/) -->

<svg
   xmlns:dc="http://purl.org/dc/elements/1.1/"
   xmlns:cc="http://creativecommons.org/ns#"
   xmlns:rdf="http://www.w3.org/1999/02/22-rdf-syntax-ns#"
   xmlns:svg="http://www.w3.org/2000/svg"
   xmlns="http://www.w3.org/2000/svg"
   xmlns:sodipodi="http://sodipodi.sourceforge.net/DTD/sodipodi-0.dtd"
   xmlns:inkscape="http://www.inkscape.org/namespaces/inkscape"
   width="210mm"
   height="297mm"
   viewBox="0 0 744.09448819 1052.3622047"
   id="svg8347"
   version="1.1"
   inkscape:version="0.91 r13725"
   sodipodi:docname="phaseatt.svg">
  <defs
     id="defs8349">
    <mask
       maskUnits="userSpaceOnUse"
       id="mask5512">
      <rect
         style="fill:#ffef06;fill-opacity:1;stroke-width:0.85900003;stroke-miterlimit:4;stroke-dasharray:none"
         id="rect5514"
         width="670"
         height="120"
         x="29.999998"
         y="35.392651" />
    </mask>
    <mask
       maskUnits="userSpaceOnUse"
       id="mask5467">
      <rect
         style="fill:#ffef06;fill-opacity:1;stroke-width:0.85900003;stroke-miterlimit:4;stroke-dasharray:none"
         id="rect5469"
         width="160"
         height="115"
         x="29.999998"
         y="165.39265" />
    </mask>
    <mask
       maskUnits="userSpaceOnUse"
       id="mask7579">
      <rect
         style="fill:#fff6d5;fill-opacity:1;stroke:none;stroke-width:0.85900003;stroke-miterlimit:4;stroke-dasharray:none;stroke-opacity:1"
         id="rect7581"
         width="300"
         height="130"
         x="190.00821"
         y="299.13565" />
    </mask>
    <mask
       maskUnits="userSpaceOnUse"
       id="mask7573">
      <rect
         style="fill:#fff6d5;fill-opacity:1;stroke:none;stroke-width:0.85900003;stroke-miterlimit:4;stroke-dasharray:none;stroke-opacity:1"
         id="rect7575"
         width="210"
         height="70"
         x="209.28572"
         y="466.10693" />
    </mask>
  </defs>
  <sodipodi:namedview
     id="base"
     pagecolor="#ffffff"
     bordercolor="#666666"
     borderopacity="1.0"
     inkscape:pageopacity="0.0"
     inkscape:pageshadow="2"
     inkscape:zoom="1.4"
     inkscape:cx="379.75324"
     inkscape:cy="784.17337"
     inkscape:document-units="px"
     inkscape:current-layer="layer1"
     showgrid="true"
     inkscape:window-width="1920"
     inkscape:window-height="1017"
     inkscape:window-x="-8"
     inkscape:window-y="-8"
     inkscape:window-maximized="1">
    <inkscape:grid
       type="xygrid"
       id="grid8895" />
  </sodipodi:namedview>
  <metadata
     id="metadata8352">
    <rdf:RDF>
      <cc:Work
         rdf:about="">
        <dc:format>image/svg+xml</dc:format>
        <dc:type
           rdf:resource="http://purl.org/dc/dcmitype/StillImage" />
        <dc:title></dc:title>
      </cc:Work>
    </rdf:RDF>
  </metadata>
  <g
     inkscape:groupmode="layer"
     id="layer3"
     inkscape:label="Ebene 2">
    <rect
       style="display:inline;opacity:0.76999996;fill:#aa8800;fill-opacity:1;stroke-width:0.85900003;stroke-miterlimit:4;stroke-dasharray:none"
       id="rect5443"
       width="300"
       height="129.39127"
       x="189.32753"
       y="179.39949" />
  </g>
  <g
     inkscape:label="Ebene 1"
     inkscape:groupmode="layer"
     id="layer1">
    <path
       inkscape:connector-curvature="0"
       style="display:inline;fill:none;stroke:#000000;stroke-width:1.20099998;stroke-linecap:butt;stroke-linejoin:miter;stroke-miterlimit:10;stroke-dasharray:none;stroke-opacity:1"
       d="m 30.191146,97.757379 0.694564,-2.165 0.666461,-2.17969 0.694564,-2.16378 0.694563,-2.14906 0.666464,-2.14785 0.694563,-2.11721 0.668467,-2.10251 0.692559,-2.08535 0.694563,-2.0388 0.668468,-2.02287 0.692559,-1.99223 0.694563,-1.94446 0.668468,-1.91382 0.692559,-1.86604 0.694563,-1.81948 0.668467,-1.77169 0.692559,-1.70921 0.668468,-1.66265 0.694563,-1.61486 0.692559,-1.53768 0.668467,-1.48989 0.694563,-1.41147 0.692559,-1.34899 0.668468,-1.28527 0.694563,-1.20809 0.692559,-1.14437 0.668467,-1.05125 0.694564,-0.98755 0.66847,-0.91035 0.692556,-0.83071 0.694563,-0.73759 0.66847,-0.67389 0.692557,-0.56483 0.694563,-0.50112 0.66847,-0.40801 0.692556,-0.32959 0.694563,-0.23524 0.66847,-0.15683 0.692557,-0.0625 0.668467,0.0306 0.694566,0.11027 0.692556,0.20339 0.668468,0.28303 0.694566,0.36022 0.692556,0.45456 0.668467,0.54891 0.694566,0.62732 0.692557,0.70574 0.668467,0.78415 0.694566,0.86257 0.66646,0.95691 0.694564,1.0194 0.694565,1.11374 0.666461,1.17623 0.694563,1.23871 0.694566,1.31713 0.666461,1.39678 0.694563,1.45803 0.694566,1.50582 0.66646,1.58423 0.694563,1.63079 0.668468,1.69328 0.692559,1.75699 0.694563,1.78763 0.668468,1.85011 0.692558,1.88196 0.694564,1.92975 0.668467,1.97631 0.692559,2.00694 0.668468,2.03879 0.694563,2.07066 0.692559,2.08535 0.668467,2.11721 0.694563,2.13314 0.692559,2.14785 0.668468,2.16499 0.694563,2.16377 0.692559,2.1797 0.668467,2.165 0.694564,2.179701 0.66847,2.16377 0.692556,2.16499 0.694563,2.14785 0.66847,2.13314 0.692557,2.10128 0.694563,2.10251 0.66847,2.0535 0.692556,2.0388 0.694563,2.00816 0.66847,1.96038 0.692557,1.92853 0.668467,1.88196 0.694566,1.85134 0.692556,1.78762 0.668468,1.74106 0.694566,1.69328 0.692555,1.6308 0.66847,1.5683 0.69456,1.52175 0.692555,1.4421 0.66847,1.38085 0.694557,1.31713 0.66646,1.23871 0.69457,1.17623 0.69456,1.09781 0.66646,1.0194 0.69458,0.94098 0.69456,0.86257 0.66646,0.78415 0.69457,0.70574 0.69456,0.6114 0.66646,0.5342 0.69457,0.45457 0.66846,0.36021 0.69256,0.28303 0.69457,0.18746 0.66846,0.0943 0.69256,0.0159 0.69457,-0.0625 0.66846,-0.15683 0.69256,-0.25117 0.69457,-0.32959 0.66846,-0.40801 0.69256,-0.50112 0.66847,-0.5967 0.69456,-0.65795 0.69256,-0.75352 0.66847,-0.8307 0.69456,-0.91035 0.69256,-1.00348 0.66847,-1.06595 0.69456,-1.1456 0.69256,-1.20686 0.66847,-1.2865 0.69456,-1.36369 0.66847,-1.41148 0.69256,-1.48989 0.69456,-1.5536 0.66847,-1.61486 0.69256,-1.66265 0.69456,-1.72514 0.66847,-1.77169 0.69256,-1.81948 0.69456,-1.86604 0.66847,-1.91382 0.69256,-1.96038 0.66846,-1.99101 0.69457,-2.0241 0.69256,-2.0535 0.66846,-2.07065 0.69457,-2.10129 0.69256,-2.13313 0.66846,-2.13314 0.69457,-2.16378 0.69256,-2.16499 0.66846,-2.179701 0.69457,-2.16377 0.66646,-2.1797 0.69456,-2.165 0.69457,-2.16377 0.66646,-2.16499 0.69456,-2.13192 0.69456,-2.11721 0.66647,-2.10251 0.69456,-2.08535 0.69456,-2.0388 0.66647,-2.02287 0.69456,-1.99224 0.66847,-1.94445 0.69255,-1.89789 0.69457,-1.86604 0.66847,-1.81947 0.69255,-1.75577 0.69457,-1.72514 0.66847,-1.64672 0.69255,-1.60016 0.69457,-1.55238 0.66847,-1.47396 0.69255,-1.41147 0.66847,-1.34899 0.69457,-1.27057 0.69255,-1.20809 0.66847,-1.12844 0.69457,-1.06718 0.69255,-0.97162 0.66847,-0.89442 0.69457,-0.83071 0.66846,-0.7376 0.69256,-0.65795 0.69457,-0.56483 0.66846,-0.48642 0.69256,-0.40801 0.69457,-0.31366 0.66846,-0.23524 0.69256,-0.14091 0.69456,-0.0625 0.66847,0.0306 0.69256,0.1262 0.66847,0.20339 0.69456,0.28303 0.69256,0.37615 0.66847,0.47049 0.69456,0.54891 0.69256,0.62732 0.66847,0.70574 0.69456,0.80008 0.69256,0.87727 0.66847,0.95691 0.69456,1.03533 0.66646,1.09781 0.69457,1.19216 0.69456,1.25464 0.66646,1.31713 0.69457,1.39555 0.69456,1.45926 0.66646,1.52052 0.69457,1.58423 0.69456,1.64672 0.66646,1.69328 0.69457,1.74106 0.66846,1.80356 0.69256,1.85133 0.69457,1.89667 0.66846,1.92975 0.69256,1.97631 0.69457,2.00694 0.66846,2.03879 0.69256,2.07066 0.69456,2.08535 0.66847,2.11721 0.69256,2.13314 0.66847,2.14785 0.69456,2.16499 0.69256,2.1797 0.66847,2.16377 0.69456,2.18093 0.69256,2.179701 0.66847,2.16377 0.69456,2.14906 0.69256,2.14785 0.66847,2.13314 0.69456,2.11721 0.66847,2.08658 0.69256,2.0535 0.69456,2.0388 0.66847,2.00816 0.69256,1.96038 0.69456,1.9126 0.66847,1.89789 0.69256,1.83541 0.69456,1.78762 0.66847,1.74107 0.69256,1.67735 0.66846,1.63202 0.69457,1.5683 0.69256,1.50459 0.66846,1.44333 0.69457,1.37962 0.69255,1.30244 0.66847,1.23871 0.69457,1.17622 0.69255,1.08188 0.66847,1.0194 0.69457,0.92507 0.66646,0.86256 0.69456,0.78416 0.69456,0.69102 0.66647,0.61141 0.69456,0.53297 0.69456,0.43864 0.66647,0.36145 0.69456,0.26587 0.69456,0.18868 0.46171,0.15684 1.02779,0 0.54,-0.1409 0.69256,-0.15683 0.69456,-0.25118 0.66847,-0.34552 0.69256,-0.4227 0.69456,-0.50236 0.66847,-0.59545 0.69256,-0.67511 0.69456,-0.7523 0.66847,-0.84664 0.69256,-0.91035 0.66846,-1.00348 0.69457,-1.06595 0.69256,-1.1456 0.66846,-1.22279 0.69457,-1.3012 0.69255,-1.34899 0.66847,-1.44333 0.69457,-1.48989 0.69255,-1.55237 0.66847,-1.61487 0.69457,-1.66265 0.66847,-1.74106 0.69255,-1.77169 0.69456,-1.81948 0.66847,-1.88197 0.69256,-1.91382 0.69456,-1.96038 0.66847,-1.99102 0.69256,-2.02409 0.69456,-2.0535 0.66847,-2.08658 0.69256,-2.10128 0.66847,-2.11722 0.69456,-2.14906 0.69256,-2.16377 0.66847,-2.16378 0.69456,-2.164991 0.69256,-2.1797 0.66847,-2.1797 0.69456,-2.165 0.66646,-2.16377 0.69457,-2.14906 0.69456,-2.14785 0.66646,-2.11721 0.69457,-2.10128 0.69456,-2.07065 0.66646,-2.0388 0.69457,-2.02287 0.69456,-1.97631 0.66646,-1.94445 0.69457,-1.8979 0.66846,-1.86603 0.69256,-1.81948 0.69456,-1.75699 0.66847,-1.70921 0.69256,-1.64672 0.69456,-1.59894 0.66847,-1.53767 0.69256,-1.47396 0.69456,-1.41148 0.66847,-1.33306 0.69256,-1.27057 0.66847,-1.20686 0.69456,-1.12967 0.69256,-1.05125 0.66846,-0.97162 0.69458,-0.89442 0.69255,-0.80008 0.66846,-0.73637 0.69458,-0.65918 0.69255,-0.56483 0.66846,-0.47049 0.69458,-0.40678 0.66845,-0.31366 0.69256,-0.22055 0.69458,-0.1409 0.66845,-0.0466 0.69256,0.0466 0.69458,0.1262 0.66845,0.20339 0.69256,0.29773 0.69458,0.37615 0.66845,0.47049 0.69256,0.56484 0.66847,0.62732 0.69456,0.72166 0.69255,0.80008 0.66848,0.8785 0.69456,0.97162 0.69255,1.03532 0.66848,1.11374 0.69456,1.19216 0.69255,1.25464 0.66848,1.33306 0.69456,1.39555 0.66647,1.45803 0.69456,1.53768 0.69456,1.583 0.66647,1.64672 0.69456,1.69451 0.69456,1.75577 0.66647,1.80355 0.69456,1.85133 0.69456,1.89789 0.66647,1.94446 0.69456,1.97631 0.66848,2.00694 0.69255,2.03879 0.69456,2.07066 0.66848,2.10128 0.69255,2.11721 0.69456,2.13314 0.66848,2.14785 0.69255,2.16499 0.69456,2.16377 0.66848,2.1797 0.69255,2.1797 0.66845,2.165001 0.69459,2.1797 0.69255,2.14906 0.66845,2.14785 0.69459,2.13314 0.69255,2.10128 0.66845,2.08658 0.69459,2.06943 0.69255,2.02287 0.66845,1.99223 0.69458,1.96038 0.66846,1.92853 0.69255,1.88197 0.69458,1.8354 0.66846,1.7717 0.69255,1.74106 0.69458,1.67858 0.66846,1.63079 0.69255,1.55238 0.69458,1.50581 0.66846,1.44334 0.69255,1.36369 0.66848,1.31713 0.69456,1.22402 0.69255,1.16029 0.66848,1.08188 0.69455,1.0194 0.69256,0.92506 0.66848,0.84786 0.69455,0.76823 0.69256,0.68981 0.66848,0.61139 0.69455,0.51827 0.66648,0.43864 0.69456,0.34552 0.69455,0.26587 0.66648,0.17276 0.9515,0.15684 0.5139,0 0.59019,-0.1409 0.69455,-0.17277 0.69456,-0.26709 0.66648,-0.32838 0.69455,-0.43986 0.66848,-0.51704 0.69256,-0.59669 0.69455,-0.67388 0.66848,-0.76822 0.69256,-0.84665 0.69455,-0.92628 0.66848,-1.00348 0.69256,-1.08187 0.66845,-1.14438 0.69458,-1.22402 0.69255,-1.30119 0.66846,-1.36492 0.69458,-1.4421 0.69255,-1.48989 0.66846,-1.56831 0.69458,-1.61609 0.69255,-1.67735 0.66846,-1.72513 0.69458,-1.78885 0.66845,-1.83419 0.69256,-1.86603 0.69458,-1.91382 0.66845,-1.96039 0.69256,-2.00694 0.69458,-2.02409 0.66845,-2.0535 0.69255,-2.08658 0.69459,-2.10128 0.66845,-2.13314 0.69255,-2.14785 0.66848,-2.14906 0.69456,-2.16378 0.69255,-2.180921 0.66848,-2.1797 0.69456,-2.16377 0.69255,-2.1797 0.66848,-2.16499 0.69456,-2.14785 0.69255,-2.13314 0.66848,-2.11721 0.69456,-2.10128 0.66647,-2.07065 0.69456,-2.05473 0.69456,-2.00694 0.66647,-1.97631 0.69456,-1.94445 0.69456,-1.8979 0.66647,-1.85011 0.69456,-1.80355 0.69456,-1.75699 0.66647,-1.70921 0.69456,-1.64672 0.66848,-1.60016 0.69255,-1.53645 0.69456,-1.45925 0.66848,-1.41148 0.69255,-1.33306 0.69456,-1.25464 0.66848,-1.20686 0.69255,-1.11374 0.69456,-1.03533 0.66848,-0.97161 0.69255,-0.89443 0.66845,-0.80008 0.69459,-0.73637 0.69255,-0.64325 0.66845,-0.5489 0.69459,-0.48642 0.69255,-0.37615 0.66845,-0.31366 0.69458,-0.21932 0.69256,-0.1262 0.66845,-0.0466 0.69458,0.0466 0.66846,0.1262 0.69255,0.21932 0.69458,0.31366 0.66846,0.39207 0.69255,0.4705 0.69458,0.56483 0.66846,0.64203 0.69255,0.72166 0.69458,0.80008 0.66846,0.89443 0.69255,0.97161 0.66848,1.03533 0.69455,1.12967 0.69256,1.19093 0.66848,1.27057 0.69455,1.33306 0.69256,1.39555 0.66848,1.47518 0.69455,1.52052 0.69256,1.60016 0.66848,1.64672 0.69455,1.70921 0.66648,1.75699 0.69456,1.80355 0.69455,1.86604 0.66648,1.8979 0.69455,1.92852 0.69456,1.99224 0.66648,2.00694 0.69455,2.0388 0.69456,2.07065 0.66648,2.10128 0.69455,2.11721 0.66848,2.14785 0.69256,2.14906 0.69455,2.16377 0.66848,2.165 0.69256,2.1797 0.69455,2.16377 0.66848,2.180921 0.69255,2.16378 0.69456,2.16377 0.66848,2.13314 0.69255,2.13314 0.66846,2.11721 0.69458,2.07065 0.69255,2.06943 0.66846,2.02287 0.69458,1.99223 0.69255,1.96039 0.66846,1.91382 0.69458,1.88196 0.66845,1.83419 0.69256,1.77292 0.69458,1.72513 0.66845,1.67735 0.69255,1.63079 0.69459,1.55361 0.66845,1.50459 0.69255,1.4274 0.69459,1.36492 0.66845,1.30119 0.69255,1.22402 0.66848,1.16031 0.69456,1.06594 0.69255,1.00348 0.66848,0.92628 0.69456,0.84665 0.69255,0.76822 0.66848,0.67388 0.69456,0.59669 0.69255,0.51704 0.66848,0.43986 0.69456,0.34429 0.66647,0.25118 0.69456,0.17277 0.89932,0.1409 0.5139,0 0.64237,-0.15684 0.69456,-0.17276 0.66647,-0.26587 0.69456,-0.34552 0.69456,-0.43864 0.66647,-0.51827 0.69456,-0.61139 0.66848,-0.68981 0.69255,-0.76823 0.69456,-0.84786 0.66848,-0.94098 0.69255,-1.00348 0.69456,-1.08188 0.66848,-1.16029 0.69255,-1.23873 0.69456,-1.30242 0.66848,-1.36369 0.69255,-1.44334 0.66845,-1.50581 0.69459,-1.56831 0.69255,-1.61486 0.66845,-1.67858 0.69458,-1.74106 0.69256,-1.78762 0.66845,-1.83419 0.69458,-1.88196 0.69256,-1.91383 0.66845,-1.96038 0.69458,-1.99223 0.66846,-2.0388 0.69255,-2.0535 0.69458,-2.08658 0.66846,-2.11721 0.69255,-2.13314 0.69458,-2.13192 0.66846,-2.16499 0.69255,-2.16377 0.69458,-2.179701 0.66845,-2.165 0.69256,-2.1797 0.66848,-2.1797 0.69455,-2.14906 0.69256,-2.16378 0.66848,-2.13313 0.69455,-2.11722 0.69256,-2.08535 0.66848,-2.07065 0.69455,-2.05473 0.69256,-2.00694 0.66848,-1.97631 0.69455,-1.92853 0.66648,-1.89789 0.69455,-1.85133 0.69456,-1.80355 0.66648,-1.75577 0.69455,-1.69451 0.69456,-1.64672 0.66648,-1.59893 0.69455,-1.52175 0.69456,-1.45803 0.66648,-1.39555 0.69455,-1.33306 0.66848,-1.27057 0.69256,-1.17623 0.69455,-1.11374 0.66848,-1.03532 0.69255,-0.97162 0.69456,-0.8785 0.66848,-0.80008 0.69255,-0.72166 0.69456,-0.64325 0.66848,-0.54891 0.69255,-0.47049 0.66846,-0.37615 0.69458,-0.29773 0.69255,-0.21932 0.66846,-0.11027 0.69458,-0.0466 0.69255,0.0466 0.66846,0.1409 0.69458,0.23525 0.69255,0.29896 0.66845,0.40678 0.69459,0.47049 0.66845,0.58076 0.69255,0.64325 0.69459,0.73637 0.66845,0.81601 0.69255,0.89442 0.69459,0.97162 0.66845,1.05125 0.69255,1.11374 0.69459,1.20686 0.66845,1.27057 0.69255,1.33306 0.66848,1.41148 0.69456,1.47396 0.69255,1.53767 0.66848,1.59894 0.69456,1.64672 0.69255,1.70921 0.66848,1.77292 0.69456,1.80355 0.66647,1.86604 0.69456,1.89789 0.69456,1.94445 0.66647,1.97631 0.69456,2.02287 0.69456,2.0388 0.66647,2.08535 0.69456,2.10251 0.69456,2.11721 0.66647,2.13192 0.69456,2.14906 0.66848,2.16377 0.69255,2.18093 0.69456,2.16377 0.66848,2.1797 0.69255,2.179701 0.69456,2.16499 0.66848,2.14785 0.69255,2.14906 0.69456,2.13314 0.66847,2.10129 0.69256,2.08535 0.66845,2.05473 0.69458,2.02287 0.69256,1.99223 0.66845,1.94446 0.69458,1.92975 0.69256,1.86604 0.66845,1.81948 0.69458,1.78762 0.69256,1.72513 0.66845,1.66265 0.69458,1.61487 0.66846,1.5683 0.69255,1.48989 0.69458,1.4274 0.66846,1.36369 0.69255,1.2865 0.69458,1.22279 0.66845,1.1456 0.69256,1.08188 0.69458,0.98755 0.66845,0.92627 0.69256,0.83072 0.66848,0.7523 0.69455,0.67511 0.69256,0.59545 0.66848,0.51828 0.69455,0.4227 0.69256,0.3296 0.66848,0.25118 0.69455,0.15683 0.84714,0.14089 0.51389,0 0.69456,-0.17276 0.66648,-0.17275 0.69455,-0.28181 0.69456,-0.34551 0.66648,-0.45457 0.69455,-0.51704 0.69456,-0.61141 0.66648,-0.70573 0.69455,-0.76945 0.69456,-0.86256 0.66647,-0.92507 0.69456,-1.0194 0.66848,-1.09781 0.69255,-1.16029 0.69456,-1.23871 0.66848,-1.30244 0.69255,-1.37962 0.69456,-1.44333 0.66848,-1.50459 0.69255,-1.58423 0.69456,-1.61609 0.66848,-1.69328 0.69255,-1.74106 0.66846,-1.78763 0.69458,-1.8354 0.69255,-1.88197 0.66846,-1.92853 0.69458,-1.96038 0.69255,-1.99223 0.66845,-2.0388 0.69459,-2.06943 0.69255,-2.08658 0.66845,-2.10128 0.69459,-2.13314 0.66845,-2.14785 0.69255,-2.16499 0.69459,-2.16377 0.66845,-2.163771 0.69255,-2.18093 0.69459,-2.1797 0.66845,-2.16377 0.69255,-2.16499 0.69459,-2.14785 0.66845,-2.13314 0.69255,-2.11721 0.66848,-2.10128 0.69456,-2.05473 0.69255,-2.05472 0.66848,-2.00694 0.69456,-1.96038 0.69255,-1.94446 0.66848,-1.88196 0.69456,-1.85133 0.69255,-1.80356 0.66848,-1.75576 0.69456,-1.69451 0.66647,-1.63079 0.69456,-1.58423 0.69456,-1.52052 0.66647,-1.45926 0.69456,-1.39555 0.69456,-1.33306 0.66647,-1.25464 0.69456,-1.17623 0.69456,-1.11374 0.66647,-1.0194 0.69456,-0.95691 0.66848,-0.87727 0.69255,-0.80008 0.69456,-0.70574 0.66847,-0.62732 0.69256,-0.54891 0.69456,-0.47049 0.66847,-0.37615 0.69256,-0.28303 0.66845,-0.20339 0.69458,-0.1262 0.69256,-0.0306 0.66845,0.0625 0.69458,0.14091 0.69256,0.23524 0.66845,0.31366 0.69458,0.40801 0.69256,0.48642 0.66845,0.57953 0.69458,0.64325 0.66845,0.75353 0.69256,0.81478 0.69458,0.89442 0.66845,0.98755 0.69256,1.05125 0.69458,1.12844 0.66845,1.20809 0.69256,1.27057 0.69458,1.34899 0.66845,1.41147 0.69256,1.48989 0.66848,1.53645 0.69455,1.60016 0.69256,1.66142 0.66847,1.71044 0.69456,1.77169 0.69256,1.80355 0.66847,1.86604 0.69456,1.91382 0.69256,1.94446 0.66847,1.9763 0.69456,2.02287 0.66648,2.05472 0.69455,2.06943 0.69456,2.10251 0.66648,2.11721 0.69455,2.14785 0.69456,2.14907 0.66647,2.16377 0.69456,2.17969 0.69456,2.16501 0.66647,2.17969 0.69456,2.163771 0.66848,2.18092 0.69255,2.14785 0.69456,2.14906 0.66848,2.11721 0.69255,2.10129 0.69456,2.08536 0.66848,2.05472 0.69255,2.02288 0.69456,1.99223 0.66848,1.94445 0.69255,1.91382 0.66845,1.86604 0.69459,1.81948 0.69255,1.77169 0.66845,1.72514 0.69459,1.67858 0.69255,1.59894 0.66845,1.55359 0.69459,1.48989 0.69255,1.42618 0.66845,1.34899 0.69459,1.2865 0.66845,1.22278 0.69255,1.1456 0.69459,1.06596 0.66845,0.98755 0.69255,0.91035 0.69459,0.8307 0.66845,0.75352 0.69255,0.67389 0.69459,0.58076 0.66845,0.50112 0.69255,0.40801 0.66848,0.32959 0.69456,0.25117 0.69255,0.15683 0.66848,0.0625 0.69456,-0.0159 0.69255,-0.0943 0.66848,-0.18746 0.69456,-0.28303 0.69255,-0.36021 0.66848,-0.45457 0.69456,-0.5342 0.66647,-0.6114 0.69456,-0.70574 0.69456,-0.78415 0.66647,-0.86257 0.69456,-0.94098 0.69456,-1.0194 0.66647,-1.09781 0.69456,-1.17623 0.69456,-1.23871 0.66647,-1.31713 0.69456,-1.38085 0.66847,-1.45803 0.69256,-1.50582 0.69456,-1.5683 0.66847,-1.64672 0.69256,-1.67736 0.69456,-1.74106 0.66847,-1.80355 0.69256,-1.83541 0.69456,-1.88195 0.66847,-1.92853 0.69256,-1.97632 0.66845,-1.99223 0.69458,-2.0388 0.69256,-2.06943 0.66845,-2.08658 0.69458,-2.11721 0.69256,-2.13192 0.66845,-2.14906 0.69458,-2.14907 0.66845,-2.1797 0.69256,-2.163771 0.69458,-2.1797 0.66845,-2.18093 0.69256,-2.16377 0.69458,-2.16377 0.66845,-2.14906 0.69256,-2.13314 0.69458,-2.10129 0.66845,-2.10128 0.69256,-2.07065 0.66847,-2.0388 0.69456,-1.99101 0.69256,-1.97631 0.66847,-1.92975 0.69456,-1.89667 0.69256,-1.8354 0.66847,-1.80355 0.69456,-1.74107 0.69256,-1.69328 0.66847,-1.63079 0.69456,-1.58423 0.66648,-1.52175 0.69455,-1.4421 0.69456,-1.39678 0.66647,-1.31713 0.69456,-1.25464 0.69456,-1.17623 0.66647,-1.09781 0.69456,-1.0194 0.69456,-0.95691 0.66647,-0.86257 0.69456,-0.78415 0.66848,-0.72044 0.69255,-0.61262 0.69456,-0.54891 0.66848,-0.45456 0.69255,-0.36022 0.69456,-0.29773 0.66848,-0.18869 0.69255,-0.11027 0.69456,-0.0306 0.66848,0.0625 0.69255,0.15683 0.66845,0.23524 0.69459,0.32959 0.69255,0.40801 0.66845,0.50112 0.69459,0.58076 0.69255,0.65796 0.66845,0.73759 0.69459,0.83071 0.69255,0.91035 0.66845,0.98755 0.69459,1.05125 0.66845,1.14437 0.69255,1.20809 0.69459,1.28527 0.66845,1.34899 0.69255,1.41147"
       id="path4373"
       mask="url(#mask5512)"
       transform="translate(1.3806493,-1.3997553)" />
    <path
       id="path5455"
       d="m 30.191146,221.68595 0.694564,-2.165 0.666461,-2.17969 0.694564,-2.16378 0.694563,-2.14906 0.666464,-2.14785 0.694563,-2.11721 0.668467,-2.10251 0.692559,-2.08535 0.694563,-2.0388 0.668468,-2.02287 0.692559,-1.99223 0.694563,-1.94446 0.668468,-1.91382 0.692559,-1.86604 0.694563,-1.81948 0.668467,-1.77169 0.692559,-1.70921 0.668468,-1.66265 0.694563,-1.61486 0.692559,-1.53768 0.668467,-1.48989 0.694563,-1.41147 0.692559,-1.34899 0.668468,-1.28527 0.694563,-1.20809 0.692559,-1.14437 0.668467,-1.05125 0.694564,-0.98755 0.66847,-0.91035 0.692556,-0.83071 0.694563,-0.73759 0.66847,-0.67389 0.692557,-0.56483 0.694563,-0.50112 0.66847,-0.40801 0.692556,-0.32959 0.694563,-0.23524 0.66847,-0.15683 0.692557,-0.0625 0.668467,0.0306 0.694566,0.11027 0.692556,0.20339 0.668468,0.28303 0.694566,0.36022 0.692556,0.45456 0.668467,0.54891 0.694566,0.62732 0.692557,0.70574 0.668467,0.78415 0.694566,0.86257 0.66646,0.95691 0.694564,1.0194 0.694565,1.11374 0.666461,1.17623 0.694563,1.23871 0.694566,1.31713 0.666461,1.39678 0.694563,1.45803 0.694566,1.50582 0.66646,1.58423 0.694563,1.63079 0.668468,1.69328 0.692559,1.75699 0.694563,1.78763 0.668468,1.85011 0.692558,1.88196 0.694564,1.92975 0.668467,1.97631 0.692559,2.00694 0.668468,2.03879 0.694563,2.07066 0.692559,2.08535 0.668467,2.11721 0.694563,2.13314 0.692559,2.14785 0.668468,2.16499 0.694563,2.16377 0.692559,2.1797 0.668467,2.165 0.694564,2.1797 0.66847,2.16377 0.692556,2.16499 0.694563,2.14785 0.66847,2.13314 0.692557,2.10128 0.694563,2.10251 0.66847,2.0535 0.692556,2.0388 0.694563,2.00816 0.66847,1.96038 0.692557,1.92853 0.668467,1.88196 0.694566,1.85134 0.692551,1.78762 0.66847,1.74106 0.69457,1.69328 0.69255,1.6308 0.66847,1.5683 0.69456,1.52175 0.69256,1.4421 0.66847,1.38085 0.694556,1.31713 0.66646,1.23871 0.69457,1.17623 0.69456,1.09781 0.66646,1.0194 0.69458,0.94098 0.69456,0.86257 0.66646,0.78415 0.69456,0.70574 0.69456,0.6114 0.66646,0.5342 0.69457,0.45457 0.66846,0.36021 0.69256,0.28303 0.69457,0.18746 0.66846,0.0943 0.69256,0.0159 0.69457,-0.0625 0.66846,-0.15683 0.69256,-0.25117 0.69457,-0.32959 0.66846,-0.40801 0.69256,-0.50112 0.66847,-0.5967 0.69456,-0.65795 0.69256,-0.75352 0.66847,-0.8307 0.69456,-0.91035 0.69256,-1.00348 0.66847,-1.06595 0.69456,-1.1456 0.69256,-1.20686 0.66847,-1.2865 0.69456,-1.36369 0.66847,-1.41148 0.69256,-1.48989 0.69456,-1.5536 0.66847,-1.61486 0.69256,-1.66265 0.69456,-1.72514 0.66847,-1.77169 0.69256,-1.81948 0.69456,-1.86604 0.66847,-1.91382 0.69256,-1.96038 0.66846,-1.99101 0.69457,-2.0241 0.69256,-2.0535 0.66846,-2.07065 0.69457,-2.10129 0.69256,-2.13313 0.66846,-2.13314 0.69457,-2.16378 0.69256,-2.16499 0.66846,-2.1797 0.69457,-2.16377 0.66646,-2.1797 0.69456,-2.165 0.69457,-2.16377 0.66646,-2.16499 0.69456,-2.13192 0.69456,-2.11721 0.66647,-2.10251 0.69456,-2.08535 0.69456,-2.0388 0.66647,-2.02287 0.69456,-1.99224 0.66847,-1.94445 0.69255,-1.89789 0.69457,-1.86604 0.66847,-1.81947 0.69255,-1.75577 0.69457,-1.72514 0.66847,-1.64672 0.69255,-1.60016 0.69457,-1.55238 0.66847,-1.47396 0.69255,-1.41147 0.66847,-1.34899 0.69457,-1.27057 0.69255,-1.20809 0.66847,-1.12844 0.69457,-1.06718 0.69255,-0.97162 0.66847,-0.89442 0.69457,-0.83071 0.66846,-0.7376 0.69256,-0.65795 0.69457,-0.56483 0.66846,-0.48642 0.69256,-0.40801 0.69457,-0.31366 0.66846,-0.23524 0.69256,-0.14091 0.69456,-0.0625 0.66847,0.0306 0.69256,0.1262 0.66847,0.20339 0.69456,0.28303 0.69256,0.37615 0.66847,0.47049 0.69456,0.54891 0.69256,0.62732 0.66847,0.70574 0.69456,0.80008 0.69256,0.87727 0.66847,0.95691 0.69456,1.03533 0.66646,1.09781 0.69457,1.19216 0.69456,1.25464 0.66646,1.31713 0.69457,1.39555 0.69456,1.45926 0.66646,1.52052 0.69457,1.58423 0.69456,1.64672 0.66646,1.69328 0.69457,1.74106 0.66846,1.80356 0.69256,1.85133 0.69457,1.89667 0.66846,1.92975 0.69256,1.97631 0.69457,2.00694 0.66846,2.03879 0.69256,2.07066 0.69456,2.08535 0.66847,2.11721 0.69256,2.13314 0.66847,2.14785 0.69456,2.16499 0.69256,2.1797 0.66847,2.16377 0.69456,2.18093 0.69256,2.1797 0.66847,2.16377 0.69456,2.14906 0.69256,2.14785 0.66847,2.13314 0.69456,2.11721 0.66847,2.08658 0.69256,2.0535 0.69456,2.0388 0.66847,2.00816 0.69256,1.96038 0.69456,1.9126 0.66847,1.89789 0.69256,1.83541 0.69456,1.78762 0.66847,1.74107 0.69256,1.67735 0.66846,1.63202 0.69457,1.5683 0.69256,1.50459 0.66846,1.44333 0.69457,1.37962 0.69255,1.30244 0.66847,1.23871 0.69457,1.17622 0.69255,1.08188 0.66847,1.0194 0.69457,0.92507 0.66646,0.86256 0.69456,0.78416 0.69456,0.69102 0.66647,0.61141 0.69456,0.53297 0.69456,0.43864 0.66647,0.36145 0.69456,0.26587 0.69456,0.18868 0.46171,0.15684 1.02779,0 0.54,-0.1409 0.69256,-0.15683 0.69456,-0.25118 0.66847,-0.34552 0.69256,-0.4227 0.69456,-0.50236 0.66847,-0.59545 0.69256,-0.67511 0.69456,-0.7523 0.66847,-0.84664 0.69256,-0.91035 0.66846,-1.00348 0.69457,-1.06595 0.69256,-1.1456 0.66846,-1.22279 0.69457,-1.3012 0.69255,-1.34899 0.66847,-1.44333 0.69457,-1.48989 0.69255,-1.55237 0.66847,-1.61487 0.69457,-1.66265 0.66847,-1.74106 0.69255,-1.77169 0.69456,-1.81948 0.66847,-1.88197 0.69256,-1.91382 0.69456,-1.96038 0.66847,-1.99102 0.69256,-2.02409 0.69456,-2.0535 0.66847,-2.08658 0.69256,-2.10128 0.66847,-2.11722 0.69456,-2.14906 0.69256,-2.16377 0.66847,-2.16378 0.69456,-2.16499 0.69256,-2.1797 0.66847,-2.1797 0.69456,-2.165 0.66646,-2.16377 0.69457,-2.14906 0.69456,-2.14785 0.66646,-2.11721 0.69457,-2.10128 0.69456,-2.07065 0.66646,-2.0388 0.69457,-2.02287 0.69456,-1.97631 0.66646,-1.94445 0.69457,-1.8979 0.66846,-1.86603 0.69256,-1.81948 0.69456,-1.75699 0.66847,-1.70921 0.69256,-1.64672 0.69456,-1.59894 0.66847,-1.53767 0.69256,-1.47396 0.69456,-1.41148 0.66847,-1.33306 0.69256,-1.27057 0.66847,-1.20686 0.69456,-1.12967 0.69256,-1.05125 0.66846,-0.97162 0.69458,-0.89442 0.69255,-0.80008 0.66846,-0.73637 0.69458,-0.65918 0.69255,-0.56483 0.66846,-0.47049 0.69458,-0.40678 0.66845,-0.31366 0.69256,-0.22055 0.69458,-0.1409 0.66845,-0.0466 0.69256,0.0466 0.69458,0.1262 0.66845,0.20339 0.69256,0.29773 0.69458,0.37615 0.66845,0.47049 0.69256,0.56484 0.66847,0.62732 0.69456,0.72166 0.69255,0.80008 0.66848,0.8785 0.69456,0.97162 0.69255,1.03532 0.66848,1.11374 0.69456,1.19216 0.69255,1.25464 0.66848,1.33306 0.69456,1.39555 0.66647,1.45803 0.69456,1.53768 0.69456,1.583 0.66647,1.64672 0.69456,1.69451 0.69456,1.75577 0.66647,1.80355 0.69456,1.85133 0.69456,1.89789 0.66647,1.94446 0.69456,1.97631 0.66848,2.00694 0.69255,2.03879 0.69456,2.07066 0.66848,2.10128 0.69255,2.11721 0.69456,2.13314 0.66848,2.14785 0.69255,2.16499 0.69456,2.16377 0.66848,2.1797 0.69255,2.1797 0.66845,2.165 0.69459,2.1797 0.69255,2.14906 0.66845,2.14785 0.69459,2.13314 0.69255,2.10128 0.66845,2.08658 0.69459,2.06943 0.69255,2.02287 0.66845,1.99223 0.69458,1.96038 0.66846,1.92853 0.69255,1.88197 0.69458,1.8354 0.66846,1.7717 0.69255,1.74106 0.69458,1.67858 0.66846,1.63079 0.69255,1.55238 0.69458,1.50581 0.66846,1.44334 0.69255,1.36369 0.66848,1.31713 0.69456,1.22402 0.69255,1.16029 0.66848,1.08188 0.69455,1.0194 0.69256,0.92506 0.66848,0.84786 0.69455,0.76823 0.69256,0.68981 0.66848,0.61139 0.69455,0.51827 0.66648,0.43864 0.69456,0.34552 0.69455,0.26587 0.66648,0.17276 0.9515,0.15684 0.5139,0 0.59019,-0.1409 0.69455,-0.17277 0.69456,-0.26709 0.66648,-0.32838 0.69455,-0.43986 0.66848,-0.51704 0.69256,-0.59669 0.69455,-0.67388 0.66848,-0.76822 0.69256,-0.84665 0.69455,-0.92628 0.66848,-1.00348 0.69256,-1.08187 0.66845,-1.14438 0.69458,-1.22402 0.69255,-1.30119 0.66846,-1.36492 0.69458,-1.4421 0.69255,-1.48989 0.66846,-1.56831 0.69458,-1.61609 0.69255,-1.67735 0.66846,-1.72513 0.69458,-1.78885 0.66845,-1.83419 0.69256,-1.86603 0.69458,-1.91382 0.66845,-1.96039 0.69256,-2.00694 0.69458,-2.02409 0.66845,-2.0535 0.69255,-2.08658 0.69459,-2.10128 0.66845,-2.13314 0.69255,-2.14785 0.66848,-2.14906 0.69456,-2.16378 0.69255,-2.18092 0.66848,-2.1797 0.69456,-2.16377 0.69255,-2.1797 0.66848,-2.16499 0.69456,-2.14785 0.69255,-2.13314 0.66848,-2.11721 0.69456,-2.10128 0.66647,-2.07065 0.69456,-2.05473 0.69456,-2.00694 0.66647,-1.97631 0.69456,-1.94445 0.69456,-1.8979 0.66647,-1.85011 0.69456,-1.80355 0.69456,-1.75699 0.66647,-1.70921 0.69456,-1.64672 0.66848,-1.60016 0.69255,-1.53645 0.69456,-1.45925 0.66848,-1.41148 0.69255,-1.33306 0.69456,-1.25464 0.66848,-1.20686 0.69255,-1.11374 0.69456,-1.03533 0.66848,-0.97161 0.69255,-0.89443 0.66845,-0.80008 0.69459,-0.73637 0.69255,-0.64325 0.66845,-0.5489 0.69459,-0.48642 0.69255,-0.37615 0.66845,-0.31366 0.69458,-0.21932 0.69256,-0.1262 0.66845,-0.0466 0.69458,0.0466 0.66846,0.1262 0.69255,0.21932 0.69458,0.31366 0.66846,0.39207 0.69255,0.4705 0.69458,0.56483 0.66846,0.64203 0.69255,0.72166 0.69458,0.80008 0.66846,0.89443 0.69255,0.97161 0.66848,1.03533 0.69455,1.12967 0.69256,1.19093 0.66848,1.27057 0.69455,1.33306 0.69256,1.39555 0.66848,1.47518 0.69455,1.52052 0.69256,1.60016 0.66848,1.64672 0.69455,1.70921 0.66648,1.75699 0.69456,1.80355 0.69455,1.86604 0.66648,1.8979 0.69455,1.92852 0.69456,1.99224 0.66648,2.00694 0.69455,2.0388 0.69456,2.07065 0.66648,2.10128 0.69455,2.11721 0.66848,2.14785 0.69256,2.14906 0.69455,2.16377 0.66848,2.165 0.69256,2.1797 0.69455,2.16377 0.66848,2.18092 0.69255,2.16378 0.69456,2.16377 0.66848,2.13314 0.69255,2.13314 0.66846,2.11721 0.69458,2.07065 0.69255,2.06943 0.66846,2.02287 0.69458,1.99223 0.69255,1.96039 0.66846,1.91382 0.69458,1.88196 0.66845,1.83419 0.69256,1.77292 0.69458,1.72513 0.66845,1.67735 0.69255,1.63079 0.69459,1.55361 0.66845,1.50459 0.69255,1.4274 0.69459,1.36492 0.66845,1.30119 0.69255,1.22402 0.66848,1.16031 0.69456,1.06594 0.69255,1.00348 0.66848,0.92628 0.69456,0.84665 0.69255,0.76822 0.66848,0.67388 0.69456,0.59669 0.69255,0.51704 0.66848,0.43986 0.69456,0.34429 0.66647,0.25118 0.69456,0.17277 0.89932,0.1409 0.5139,0 0.64237,-0.15684 0.69456,-0.17276 0.66647,-0.26587 0.69456,-0.34552 0.69456,-0.43864 0.66647,-0.51827 0.69456,-0.61139 0.66848,-0.68981 0.69255,-0.76823 0.69456,-0.84786 0.66848,-0.94098 0.69255,-1.00348 0.69456,-1.08188 0.66848,-1.16029 0.69255,-1.23873 0.69456,-1.30242 0.66848,-1.36369 0.69255,-1.44334 0.66845,-1.50581 0.69459,-1.56831 0.69255,-1.61486 0.66845,-1.67858 0.69458,-1.74106 0.69256,-1.78762 0.66845,-1.83419 0.69458,-1.88196 0.69256,-1.91383 0.66845,-1.96038 0.69458,-1.99223 0.66846,-2.0388 0.69255,-2.0535 0.69458,-2.08658 0.66846,-2.11721 0.69255,-2.13314 0.69458,-2.13192 0.66846,-2.16499 0.69255,-2.16377 0.69458,-2.1797 0.66845,-2.165 0.69256,-2.1797 0.66848,-2.1797 0.69455,-2.14906 0.69256,-2.16378 0.66848,-2.13313 0.69455,-2.11722 0.69256,-2.08535 0.66848,-2.07065 0.69455,-2.05473 0.69256,-2.00694 0.66848,-1.97631 0.69455,-1.92853 0.66648,-1.89789 0.69455,-1.85133 0.69456,-1.80355 0.66648,-1.75577 0.69455,-1.69451 0.69456,-1.64672 0.66648,-1.59893 0.69455,-1.52175 0.69456,-1.45803 0.66648,-1.39555 0.69455,-1.33306 0.66848,-1.27057 0.69256,-1.17623 0.69455,-1.11374 0.66848,-1.03532 0.69255,-0.97162 0.69456,-0.8785 0.66848,-0.80008 0.69255,-0.72166 0.69456,-0.64325 0.66848,-0.54891 0.69255,-0.47049 0.66846,-0.37615 0.69458,-0.29773 0.69255,-0.21932 0.66846,-0.11027 0.69458,-0.0466 0.69255,0.0466 0.66846,0.1409 0.69458,0.23525 0.69255,0.29896 0.66845,0.40678 0.69459,0.47049 0.66845,0.58076 0.69255,0.64325 0.69459,0.73637 0.66845,0.81601 0.69255,0.89442 0.69459,0.97162 0.66845,1.05125 0.69255,1.11374 0.69459,1.20686 0.66845,1.27057 0.69255,1.33306 0.66848,1.41148 0.69456,1.47396 0.69255,1.53767 0.66848,1.59894 0.69456,1.64672 0.69255,1.70921 0.66848,1.77292 0.69456,1.80355 0.66647,1.86604 0.69456,1.89789 0.69456,1.94445 0.66647,1.97631 0.69456,2.02287 0.69456,2.0388 0.66647,2.08535 0.69456,2.10251 0.69456,2.11721 0.66647,2.13192 0.69456,2.14906 0.66848,2.16377 0.69255,2.18093 0.69456,2.16377 0.66848,2.1797 0.69255,2.1797 0.69456,2.16499 0.66848,2.14785 0.69255,2.14906 0.69456,2.13314 0.66847,2.10129 0.69256,2.08535 0.66845,2.05473 0.69458,2.02287 0.69256,1.99223 0.66845,1.94446 0.69458,1.92975 0.69256,1.86604 0.66845,1.81948 0.69458,1.78762 0.69256,1.72513 0.66845,1.66265 0.69458,1.61487 0.66846,1.5683 0.69255,1.48989 0.69458,1.4274 0.66846,1.36369 0.69255,1.2865 0.69458,1.22279 0.66845,1.1456 0.69256,1.08188 0.69458,0.98755 0.66845,0.92627 0.69256,0.83072 0.66848,0.7523 0.69455,0.67511 0.69256,0.59545 0.66848,0.51828 0.69455,0.4227 0.69256,0.3296 0.66848,0.25118 0.69455,0.15683 0.84714,0.14089 0.51389,0 0.69456,-0.17276 0.66648,-0.17275 0.69455,-0.28181 0.69456,-0.34551 0.66648,-0.45457 0.69455,-0.51704 0.69456,-0.61141 0.66648,-0.70573 0.69455,-0.76945 0.69456,-0.86256 0.66647,-0.92507 0.69456,-1.0194 0.66848,-1.09781 0.69255,-1.16029 0.69456,-1.23871 0.66848,-1.30244 0.69255,-1.37962 0.69456,-1.44333 0.66848,-1.50459 0.69255,-1.58423 0.69456,-1.61609 0.66848,-1.69328 0.69255,-1.74106 0.66846,-1.78763 0.69458,-1.8354 0.69255,-1.88197 0.66846,-1.92853 0.69458,-1.96038 0.69255,-1.99223 0.66845,-2.0388 0.69459,-2.06943 0.69255,-2.08658 0.66845,-2.10128 0.69459,-2.13314 0.66845,-2.14785 0.69255,-2.16499 0.69459,-2.16377 0.66845,-2.16377 0.69255,-2.18093 0.69459,-2.1797 0.66845,-2.16377 0.69255,-2.16499 0.69459,-2.14785 0.66845,-2.13314 0.69255,-2.11721 0.66848,-2.10128 0.69456,-2.05473 0.69255,-2.05472 0.66848,-2.00694 0.69456,-1.96038 0.69255,-1.94446 0.66848,-1.88196 0.69456,-1.85133 0.69255,-1.80356 0.66848,-1.75576 0.69456,-1.69451 0.66647,-1.63079 0.69456,-1.58423 0.69456,-1.52052 0.66647,-1.45926 0.69456,-1.39555 0.69456,-1.33306 0.66647,-1.25464 0.69456,-1.17623 0.69456,-1.11374 0.66647,-1.0194 0.69456,-0.95691 0.66848,-0.87727 0.69255,-0.80008 0.69456,-0.70574 0.66847,-0.62732 0.69256,-0.54891 0.69456,-0.47049 0.66847,-0.37615 0.69256,-0.28303 0.66845,-0.20339 0.69458,-0.1262 0.69256,-0.0306 0.66845,0.0625 0.69458,0.14091 0.69256,0.23524 0.66845,0.31366 0.69458,0.40801 0.69256,0.48642 0.66845,0.57953 0.69458,0.64325 0.66845,0.75353 0.69256,0.81478 0.69458,0.89442 0.66845,0.98755 0.69256,1.05125 0.69458,1.12844 0.66845,1.20809 0.69256,1.27057 0.69458,1.34899 0.66845,1.41147 0.69256,1.48989 0.66848,1.53645 0.69455,1.60016 0.69256,1.66142 0.66847,1.71044 0.69456,1.77169 0.69256,1.80355 0.66847,1.86604 0.69456,1.91382 0.69256,1.94446 0.66847,1.9763 0.69456,2.02287 0.66648,2.05472 0.69455,2.06943 0.69456,2.10251 0.66648,2.11721 0.69455,2.14785 0.69456,2.14907 0.66647,2.16377 0.69456,2.17969 0.69456,2.16501 0.66647,2.17969 0.69456,2.16377 0.66848,2.18092 0.69255,2.14785 0.69456,2.14906 0.66848,2.11721 0.69255,2.10129 0.69456,2.08536 0.66848,2.05472 0.69255,2.02288 0.69456,1.99223 0.66848,1.94445 0.69255,1.91382 0.66845,1.86604 0.69459,1.81948 0.69255,1.77169 0.66845,1.72514 0.69459,1.67858 0.69255,1.59894 0.66845,1.55359 0.69459,1.48989 0.69255,1.42618 0.66845,1.34899 0.69459,1.2865 0.66845,1.22278 0.69255,1.1456 0.69459,1.06596 0.66845,0.98755 0.69255,0.91035 0.69459,0.8307 0.66845,0.75352 0.69255,0.67389 0.69459,0.58076 0.66845,0.50112 0.69255,0.40801 0.66848,0.32959 0.69456,0.25117 0.69255,0.15683 0.66848,0.0625 0.69456,-0.0159 0.69255,-0.0943 0.66848,-0.18746 0.69456,-0.28303 0.69255,-0.36021 0.66848,-0.45457 0.69456,-0.5342 0.66647,-0.6114 0.69456,-0.70574 0.69456,-0.78415 0.66647,-0.86257 0.69456,-0.94098 0.69456,-1.0194 0.66647,-1.09781 0.69456,-1.17623 0.69456,-1.23871 0.66647,-1.31713 0.69456,-1.38085 0.66847,-1.45803 0.69256,-1.50582 0.69456,-1.5683 0.66847,-1.64672 0.69256,-1.67736 0.69456,-1.74106 0.66847,-1.80355 0.69256,-1.83541 0.69456,-1.88195 0.66847,-1.92853 0.69256,-1.97632 0.66845,-1.99223 0.69458,-2.0388 0.69256,-2.06943 0.66845,-2.08658 0.69458,-2.11721 0.69256,-2.13192 0.66845,-2.14906 0.69458,-2.14907 0.66845,-2.1797 0.69256,-2.16377 0.69458,-2.1797 0.66845,-2.18093 0.69256,-2.16377 0.69458,-2.16377 0.66845,-2.14906 0.69256,-2.13314 0.69458,-2.10129 0.66845,-2.10128 0.69256,-2.07065 0.66847,-2.0388 0.69456,-1.99101 0.69256,-1.97631 0.66847,-1.92975 0.69456,-1.89667 0.69256,-1.8354 0.66847,-1.80355 0.69456,-1.74107 0.69256,-1.69328 0.66847,-1.63079 0.69456,-1.58423 0.66648,-1.52175 0.69455,-1.4421 0.69456,-1.39678 0.66647,-1.31713 0.69456,-1.25464 0.69456,-1.17623 0.66647,-1.09781 0.69456,-1.0194 0.69456,-0.95691 0.66647,-0.86257 0.69456,-0.78415 0.66848,-0.72044 0.69255,-0.61262 0.69456,-0.54891 0.66848,-0.45456 0.69255,-0.36022 0.69456,-0.29773 0.66848,-0.18869 0.69255,-0.11027 0.69456,-0.0306 0.66848,0.0625 0.69255,0.15683 0.66845,0.23524 0.69459,0.32959 0.69255,0.40801 0.66845,0.50112 0.69459,0.58076 0.69255,0.65796 0.66845,0.73759 0.69459,0.83071 0.69255,0.91035 0.66845,0.98755 0.69459,1.05125 0.66845,1.14437 0.69255,1.20809 0.69459,1.28527 0.66845,1.34899 0.69255,1.41147"
       style="display:inline;fill:none;stroke:#000000;stroke-width:1.20099998;stroke-linecap:butt;stroke-linejoin:miter;stroke-miterlimit:10;stroke-dasharray:none;stroke-opacity:1"
       inkscape:connector-curvature="0"
       mask="url(#mask5467)"
       transform="translate(1.3806493,20.671675)" />
    <path
       inkscape:connector-curvature="0"
       style="display:inline;fill:none;stroke:#000000;stroke-width:1.20099998;stroke-linecap:butt;stroke-linejoin:miter;stroke-miterlimit:10;stroke-dasharray:none;stroke-opacity:1"
       d="m 137.03956,370.10718 0.71399,-2.31964 0.68511,-2.31831 0.71399,-2.31833 0.714,-2.28549 0.6851,-2.26841 0.714,-2.25138 0.68716,-2.21854 0.71193,-2.20149 0.71399,-2.15029 0.68719,-2.13452 0.71191,-2.08334 0.714,-2.03345 0.68717,-1.99931 0.71191,-1.93237 0.71401,-1.89823 0.68716,-1.8326 0.71193,-1.76435 0.68717,-1.71313 0.71398,-1.66326 0.71195,-1.58056 0.68716,-1.51226 0.714,-1.44404 0.71192,-1.37838 0.68717,-1.29439 0.71399,-1.20901 0.71193,-1.14342 0.68717,-1.05807 0.71399,-0.97406 0.68716,-0.89136 0.71193,-0.80604 0.71399,-0.7233 0.68717,-0.63801 0.71193,-0.53824 0.714,-0.46994 0.68717,-0.37021 0.71192,-0.26779 0.714,-0.1851 0.68717,-0.10105 0.71193,-0.017 0.68716,0.0841 0.71401,0.16802 0.71191,0.25204 0.68716,0.35314 0.71401,0.43714 0.71193,0.52117 0.68716,0.60387 0.714,0.68918 0.71192,0.77322 0.68718,0.85723 0.714,0.94123 0.68508,1.02395 0.714,1.09221 0.714,1.16046 0.68511,1.24317 0.71398,1.31014 0.71399,1.37837 0.68512,1.46111 0.71398,1.49653 0.71399,1.57924 0.68511,1.62911 0.714,1.68032 0.68715,1.74857 0.71195,1.79717 0.71399,1.83128 0.68715,1.88248 0.71194,1.91532 0.71399,1.96648 0.68717,1.99932 0.71194,2.01638 0.68715,2.06627 0.71399,2.08465 0.71194,2.10041 0.68718,2.11615 0.71398,2.13452 0.71193,2.13453 0.68716,2.16735 0.71399,2.1503 0.71194,2.15157 0.68716,2.16737 0.714,2.13321 0.68716,2.15159 0.71193,2.11747 0.71399,2.11616 0.68717,2.08463 0.71193,2.06628 0.71399,2.05052 0.68717,1.99931 0.71193,1.98226 0.71399,1.94942 0.68717,1.89825 0.71191,1.86542 0.68718,1.81552 0.714,1.76434 0.71193,1.7302 0.68716,1.66324 0.714,1.61339 0.71194,1.54642 0.68716,1.49521 0.714,1.42828 0.71191,1.36131 0.68717,1.31012 0.71399,1.22613 0.68511,1.16046 0.714,1.09221 0.71398,1.00819 0.68511,0.93992 0.71398,0.85722 0.71401,0.77322 0.68509,0.70625 0.714,0.62092 0.71399,0.55531 0.68511,0.45291 0.71399,0.38723 0.68716,0.28489 0.71192,0.21923 0.71399,0.1339 0.68718,0.0499 0.71192,-0.0499 0.71399,-0.11814 0.68716,-0.20085 0.71196,-0.26913 0.71398,-0.37018 0.68718,-0.45291 0.71191,-0.52117 0.68717,-0.60518 0.71401,-0.67211 0.71191,-0.75616 0.68717,-0.84015 0.714,-0.90711 0.71194,-0.97406 0.68716,-1.05939 0.71399,-1.10927 0.71193,-1.17621 0.68717,-1.26025 0.71399,-1.31011 0.68716,-1.36134 0.71195,-1.42826 0.71398,-1.47816 0.68716,-1.54642 0.71195,-1.57924 0.71399,-1.63044 0.68717,-1.68032 0.71192,-1.7302 0.71399,-1.76433 0.68715,-1.7814 0.71196,-1.83129 0.68715,-1.8654 0.714,-1.89826 0.71193,-1.89955 0.68717,-1.93236 0.71398,-1.96518 0.71193,-1.96651 0.68718,-1.96518 0.71398,-2.00064 0.71194,-1.98225 0.68716,-1.99931 0.71399,-1.9993 0.68511,-1.98358 0.714,-1.98226 0.714,-1.9665 0.6851,-1.96518 1.42798,-3.86473 0.68511,-1.89954 0.71399,-1.86544 0.71401,-1.84833 0.68507,-1.81423 0.714,-1.76434 0.68718,-1.74725 0.71192,-1.69741 0.71401,-1.66325 0.68715,-1.61337 0.71194,-1.56217 0.71399,-1.51228 0.68715,-1.4624 0.71193,-1.39414 0.71401,-1.36132 0.68717,-1.27731 0.71192,-1.24318 0.68717,-1.15914 0.71399,-1.10929 0.71194,-1.02526 0.68716,-0.97404 0.71399,-0.89137 0.71194,-0.84017 0.68716,-0.75612 0.714,-0.67215 0.68716,-0.62092 0.71194,-0.53824 0.71398,-0.4542 0.68715,-0.38595 0.71193,-0.30193 0.714,-0.23629 0.68719,-0.16803 0.60666,-0.1339 1.05656,0 0.44986,0.1339 0.71194,0.15227 0.68716,0.23498 0.714,0.30193 0.71192,0.37019 0.68718,0.4529 0.71398,0.52118 0.71192,0.60517 0.68718,0.65507 0.71399,0.73907 0.71193,0.80733 0.68716,0.87299 0.71399,0.94124 0.68512,1.00819 0.71398,1.05939 0.714,1.12502 0.68511,1.1933 0.71399,1.24318 0.71398,1.29438 0.68512,1.34423 0.71399,1.39415 0.71398,1.44533 0.68512,1.49523 0.71398,1.52933 0.68716,1.57926 0.71195,1.61335 0.714,1.6462 0.68715,1.68032 0.71193,1.69739 0.714,1.73152 0.68715,1.76433 0.71194,1.78008 0.714,1.79847 0.68716,1.81423 0.71193,1.81552 0.68717,1.83131 0.71398,1.84832 0.71195,1.84837 0.68716,1.83127 0.71399,1.84837 0.71194,1.83128 0.68716,1.83259 0.71399,1.81422 0.71192,1.79849 0.68718,1.79714 0.71401,1.76432 0.68714,1.73152 0.71193,1.71315 0.71401,1.69739 0.68716,1.66324 0.71193,1.61339 0.714,1.59629 0.68715,1.54643 0.71193,1.51226 0.714,1.46111 0.68717,1.42827 0.71194,1.36132 0.68716,1.32718 0.71399,1.27732 0.71193,1.21034 0.68716,1.17624 0.71401,1.09221 0.71192,1.05806 0.68717,0.97407 0.71398,0.92418 0.71194,0.85723 0.68717,0.80732 0.71399,0.72201 0.68511,0.67212 0.71398,0.58813 0.71399,0.53823 0.68509,0.45289 0.71401,0.38727 0.71399,0.31898 0.6851,0.25205 0.71401,0.16803 0.714,0.11685 0.6851,0.0341 0.71398,-0.0341 0.68719,-0.11685 0.71191,-0.16803 0.71399,-0.25205 0.68716,-0.31898 0.71194,-0.38727 0.71399,-0.45289 0.68717,-0.52116 0.71193,-0.58813 0.71398,-0.65506 0.68718,-0.70625 0.71193,-0.79027 0.68717,-0.84016 0.71399,-0.89005 0.71194,-0.9583 0.68716,-1.02394 0.71398,-1.07648 0.71193,-1.10793 0.68718,-1.17625 0.71399,-1.22741 0.71194,-1.27731 0.68716,-1.31013 0.71398,-1.36131 0.68717,-1.39414 0.71195,-1.44534 0.71398,-1.47814 0.68717,-1.49655 0.71193,-1.54509 0.71398,-1.56351 0.68717,-1.59628 0.71195,-1.61207 0.71398,-1.63044 0.68714,-1.66324 0.71194,-1.66326 0.68717,-1.68032 0.71401,-1.69739 0.71193,-1.69737 0.68717,-1.69738 0.71399,-1.71316 0.71194,-1.69738 0.68715,-1.69738 0.714,-1.69738 0.68511,-1.68033 0.71399,-1.68033 0.71399,-1.66324 0.68509,-1.63043 0.714,-1.62912 0.71399,-1.59632 0.68511,-1.56348 0.714,-1.54511 0.714,-1.52934 0.68508,-1.47815 0.714,-1.44535 0.68718,-1.41119 0.71192,-1.37841 0.714,-1.32717 0.68716,-1.29439 0.71193,-1.24318 0.714,-1.21032 0.68716,-1.1421 0.71194,-1.09221 0.71398,-1.05809 0.68716,-0.99242 0.71193,-0.92418 0.68718,-0.89006 0.71399,-0.8231 0.71192,-0.75613 0.68716,-0.70626 0.71401,-0.638 0.71193,-0.5881 0.68715,-0.52117 0.71401,-0.45422 0.71194,-0.38594 0.68715,-0.319 0.71401,-0.26911 0.68715,-0.18509 0.71192,-0.13392 0.55512,-0.017 1.05654,0 0.50142,0.0341 0.71402,0.13391 0.68716,0.20217 0.71192,0.25204 0.71401,0.33606 0.68716,0.38594 0.71192,0.45423 0.68718,0.51984 0.71398,0.57236 0.71193,0.638 0.68718,0.68919 0.71399,0.75614 0.71191,0.80602 0.68719,0.85723 0.71399,0.90711 0.71194,0.97538 0.68715,1.00818 0.714,1.07514 0.68512,1.10929 0.71397,1.15915 0.71399,1.1933 0.68513,1.24317 0.71399,1.27729 0.71397,1.31013 0.68513,1.34426 0.71397,1.37839 0.71399,1.41121 0.68512,1.42827 0.71398,1.46108 0.68717,1.49653 0.71193,1.49523 0.71402,1.52936 0.68715,1.52803 0.71194,1.54641 0.71399,1.56218 0.68716,1.58054 0.71194,1.56219 0.71398,1.57923 0.68718,1.57925 0.71192,1.56348 0.68716,1.57925 0.71399,1.56216 0.71195,1.54642 0.68713,1.5464 0.71402,1.5123 0.71192,1.51228 0.68716,1.49522 0.71403,1.46109 0.7119,1.42827 0.68716,1.42829 0.71403,1.37837 0.68715,1.36133 0.71192,1.31013 0.714,1.29435 0.68716,1.24321 0.71192,1.22609 0.71401,1.16047 0.68716,1.12502 0.71193,1.09222 0.71401,1.0423 0.68714,0.97408 0.71194,0.94124 0.68717,0.89005 0.714,0.84015 0.7119,0.79026 0.68719,0.73911 0.71398,0.67212 0.71194,0.62224 0.68716,0.55397 0.71399,0.5041 0.71193,0.45421 0.68718,0.38596 0.71399,0.31899 0.6851,0.26911 0.714,0.21922 0.71399,0.13391 0.6851,0.084 0.71399,0.0342 0.71399,-0.0342 0.68512,-0.10103 0.71398,-0.15097 0.71399,-0.21792 0.68512,-0.26909 0.71398,-0.33608 0.68717,-0.40302 0.71193,-0.43714 0.71399,-0.52115 0.68718,-0.55398 0.71193,-0.62225 0.71399,-0.67213 0.68719,-0.72202 0.71191,-0.7732 0.68715,-0.82309 0.71401,-0.85724 0.71194,-0.92415 0.68714,-0.97539 0.71401,-0.99113 0.71194,-1.05807 0.68715,-1.09221 0.714,-1.12635 0.71193,-1.15915 0.68714,-1.19329 0.71402,-1.24317 0.68714,-1.26024 0.71194,-1.29437 0.714,-1.31011 0.68716,-1.34427 0.71194,-1.36132 0.71401,-1.37707 0.68714,-1.39546 0.71194,-1.42827 0.71401,-1.42826 0.68713,-1.42828 0.71194,-1.44535 0.68718,-1.46107 0.71399,-1.44535 0.71191,-1.4624 0.68717,-1.46108 0.714,-1.44536 0.71194,-1.44531 0.68716,-1.44535 0.71399,-1.42826 0.71193,-1.41122 0.68718,-1.39413 0.71399,-1.39545 0.6851,-1.36003 0.71401,-1.34425 0.71399,-1.31143 0.6851,-1.29306 0.71399,-1.2773 0.71399,-1.22743 0.6851,-1.20904 0.71399,-1.17624 0.714,-1.12632 0.68512,-1.10926 0.71398,-1.0581 0.68718,-1.02525 0.71192,-0.97405 0.714,-0.94125 0.68717,-0.89005 0.71192,-0.84014 0.71397,-0.79028 0.68718,-0.75615 0.71193,-0.70626 0.71399,-0.638 0.68718,-0.60518 0.71193,-0.5369 0.68716,-0.48835 0.71401,-0.43583 0.71192,-0.38727 0.68715,-0.33605 0.71401,-0.26911 0.71193,-0.21793 0.68714,-0.16803 0.71402,-0.10104 0.71193,-0.0499 0.68715,0.017 0.71399,0.05 0.68718,0.1339 0.71191,0.16803 0.71401,0.23629 0.68715,0.26781 0.71193,0.35312 0.71403,0.38726 0.68715,0.43583 0.71191,0.50411 0.71403,0.53821 0.68715,0.60518 0.71191,0.63801 0.68718,0.70625 0.71399,0.73909 0.71194,0.7732 0.68717,0.84015 0.71398,0.87299 0.71194,0.90843 0.68716,0.95698 0.71398,0.97536 0.71195,1.04104 0.68716,1.05938 0.714,1.0922 0.68511,1.12505 0.71398,1.14338 0.71399,1.19198 0.68512,1.1933 0.71399,1.24317 0.71398,1.24448 0.68514,1.27599 0.71397,1.27731 0.71398,1.31143 0.68511,1.31012 0.714,1.32718 0.68717,1.32722 0.71192,1.34424 0.71399,1.34428 0.68717,1.34424 0.71195,1.34425 0.71398,1.34426 0.68716,1.34425 0.71194,1.3285 0.71398,1.3272 0.68718,1.31011 0.71191,1.31145 0.68718,1.27598 0.71401,1.27732 0.71191,1.24317 0.68716,1.24449 0.71403,1.19198 0.71191,1.19328 0.68714,1.15916 0.71402,1.12634 0.68715,1.09219 0.71194,1.07517 0.71401,1.02525 0.68714,0.99111 0.71193,0.95831 0.71401,0.92419 0.68715,0.89003 0.71191,0.84017 0.71403,0.80734 0.68714,0.75614 0.71193,0.70494 0.68718,0.67214 0.714,0.62223 0.71192,0.57106 0.68718,0.53821 0.71399,0.46998 0.71192,0.42007 0.68718,0.38596 0.71397,0.32029 0.71192,0.28489 0.68719,0.21923 0.71399,0.16802 0.68512,0.1339 0.71396,0.067 0.714,0.017 0.68512,-0.0342 0.71399,-0.084 0.714,-0.15096 0.68511,-0.18508 0.71398,-0.23501 0.714,-0.28486 0.6851,-0.33604 0.71399,-0.40435 0.68719,-0.43583 0.71191,-0.47129 0.71399,-0.5369 0.68718,-0.57237 0.71193,-0.62091 0.71398,-0.67215 0.68718,-0.70625 0.71193,-0.73908 0.71398,-0.79028 0.68718,-0.82309 0.71193,-0.87297 0.68715,-0.89136 0.71401,-0.94125 0.71193,-0.95699 0.68714,-1.00818 0.714,-1.02528 0.71196,-1.05806 0.68714,-1.07645 0.71401,-1.10797 0.71193,-1.12633 0.68716,-1.1421 0.714,-1.16047 0.68715,-1.19197 0.71193,-1.1933 0.714,-1.21034 0.68716,-1.22613 0.71192,-1.22742 0.71402,-1.2261 0.68714,-1.24317 0.71195,-1.24319 0.71399,-1.24446 0.68715,-1.24318 0.71193,-1.24318 0.68717,-1.24316 0.71399,-1.22744 0.71194,-1.22611 0.68718,-1.21034 0.71398,-1.19199 0.71192,-1.17621 0.6872,-1.16047 0.71397,-1.15916 0.71192,-1.12503 0.68718,-1.09221 0.714,-1.0922 0.68511,-1.04233 0.71399,-1.02526 0.71398,-1.00818 0.68512,-0.97407 0.71397,-0.92417 0.71399,-0.90712 0.68512,-0.87429 0.71399,-0.84015 0.71398,-0.79028 0.68512,-0.75616 0.71401,-0.72201 0.68717,-0.67211 0.71191,-0.63798 0.71399,-0.58813 0.68719,-0.5553 0.71193,-0.50409 0.71396,-0.46997 0.68719,-0.42008 0.71191,-0.37018 0.714,-0.319 0.68717,-0.28618 0.71193,-0.21792 0.68714,-0.18512 0.71402,-0.1339 0.71193,-0.084 0.44984,0.067 1.05657,0 0.60668,-0.0342 0.68714,0.10103 0.71402,0.15098 0.71193,0.20216 0.68716,0.235 0.714,0.30324 0.68716,0.33606 0.71191,0.38594 0.71404,0.42008 0.68713,0.46996 0.71192,0.52117 0.71403,0.5553 0.68716,0.58812 0.71191,0.63798 0.71402,0.67213 0.68714,0.72201 0.71194,0.74041 0.68717,0.78895 0.71398,0.80734 0.71192,0.85591 0.68718,0.87429 0.71398,0.90711 0.71196,0.94124 0.68716,0.9583 0.714,0.99113 0.68511,1.0082 0.71398,1.041 0.71399,1.04231 0.68511,1.07516 1.42796,2.1844 0.68514,1.10928 0.71398,1.12634 0.71397,1.14211 0.68514,1.14209 0.71397,1.14339 0.68717,1.14211 0.71193,1.15913 0.714,1.14343 0.68716,1.15915 0.71196,1.14208 0.71397,1.12635 0.68718,1.14208 0.71192,1.12634 0.71399,1.1093 0.68718,1.09218 0.71192,1.09221 0.68716,1.05808 0.71401,1.05939 0.71191,1.02395 0.68717,1.00819 0.71401,0.99245 0.71192,0.95697 0.68714,0.94126 0.71403,0.90711 0.71191,0.87427 0.68717,0.85722 0.714,0.80605 0.68715,0.79028 0.71194,0.75612 0.71402,0.72201 0.68713,0.67216 0.71193,0.65506 0.71402,0.60518 0.68715,0.55397 0.71192,0.53822 0.71402,0.48702 0.68714,0.43717 0.71193,0.42008 0.68717,0.35312 0.714,0.319 0.71192,0.28618 0.68718,0.21791 0.71397,0.20217 0.71195,0.13389 0.68716,0.10113 0.71399,0.0499 0.71192,0.017 0.68718,-0.0342 0.714,-0.0669 0.6851,-0.1339 0.71399,-0.15096 0.714,-0.21922 0.6851,-0.25205 0.714,-0.28487 0.71397,-0.33607 0.68512,-0.37019 0.714,-0.42007 0.71399,-0.45423 0.6851,-0.50409 0.714,-0.53692 0.68717,-0.57104 0.71192,-0.60516 0.71398,-0.63932 0.68718,-0.67214 0.71194,-0.70494 0.714,-0.73907 0.68716,-0.77321 0.71195,-0.80735 0.71398,-0.8231 0.68717,-0.85722 0.71192,-0.87297 0.68716,-0.90712 0.71401,-0.92416 0.71194,-0.94124 0.68712,-0.9754 0.71402,-0.97405 0.71193,-1.00819 0.68715,-1.00818 0.714,-1.02527 0.71194,-1.02525 0.68715,-1.04102 0.71401,-1.05938 0.68715,-1.05808 0.71193,-1.05806 0.71402,-1.0594 0.68716,-1.07515 0.71191,-1.05807 0.71402,-1.05941 0.68715,-1.05806 0.71192,-1.04232 0.714,-1.04102 0.68716,-1.04231 0.71193,-1.02525 0.68718,-1.00821 0.71398,-0.99111 0.71192,-0.97407 0.6872,-0.9583 0.71398,-0.94125 0.7119,-0.92417 0.6872,-0.90711 0.71398,-0.87428 0.71192,-0.85592 0.68718,-0.82442 0.714,-0.78896 0.68511,-0.7732 0.714,-0.73909 0.71397,-0.70624 0.68512,-0.68921 0.71399,-0.638 0.714,-0.62225 0.6851,-0.57103 0.71399,-0.5369 0.71399,-0.5041 0.6851,-0.47128 0.71398,-0.43716 0.68719,-0.38596 0.71194,-0.35312 0.71398,-0.319 0.68716,-0.26911 0.71194,-0.23496 0.71397,-0.1851 0.68719,-0.15097 0.71192,-0.11815 0.68716,-0.0669 0.71401,-0.0328 0.71193,0.0157 0.68714,0.0512 0.71401,0.0841 0.71194,0.13391 0.68715,0.18509 0.71401,0.20215 0.71193,0.25204 0.68715,0.30194 0.71402,0.319 0.68715,0.37019 0.71191,0.40302 0.71402,0.45423 0.68716,0.46995 0.7119,0.52117 0.71403,0.5369 0.68715,0.57235 0.71194,0.62095 0.71401,0.6393 0.68713,0.67214 0.71195,0.70493 0.68717,0.72333 0.71398,0.75615 0.71193,0.77189 0.68719,0.80733 0.71397,0.82311 0.71193,0.84016 0.68716,0.87429 0.71399,0.87297 0.71195,0.90711 0.68715,0.90843 0.714,0.93992 0.68512,0.94123 0.71399,0.94126 0.71397,0.97406 0.68513,0.95829 0.71399,0.97407 0.71398,0.99245 0.68513,0.97405 0.71397,0.99112 0.71398,0.97539 0.68512,0.99113 0.71399,0.97404 0.68717,0.97538 0.71194,0.957 0.714,0.95829 0.68716,0.95701 0.71192,0.94124 0.71399,0.92416 0.68719,0.90713 0.7119,0.89136 0.714,0.89003 0.68718,0.85723 0.71191,0.84015 0.68717,0.82311 0.71401,0.79027 0.71193,0.7732 0.68716,0.75615 0.71401,0.72202 0.71191,0.70627 0.68716,0.65505 0.71402,0.65506 0.71191,0.60517 0.68716,0.57105 0.71402,0.554 0.68715,0.52115 0.7119,0.47127 0.71402,0.45289 0.68716,0.42008 0.71193,0.37018 0.71401,0.35315 0.68714,0.30193 0.71193,0.26913 0.71402,0.23498 0.68716,0.20216 0.71192,0.15096 0.68718,0.11684 0.71399,0.0841 0.47461,0.11816 1.05655,0 0.58192,-0.10104 0.71193,-0.067 0.68716,-0.10105 0.71401,-0.15097 0.71191,-0.16802 0.68717,-0.21791 0.714,-0.25206 0.6851,-0.30324 0.71401,-0.31901 0.71398,-0.35314 0.6851,-0.40301 0.71399,-0.42007 0.714,-0.45421 0.68511,-0.48703 0.714,-0.52117 0.71399,-0.55398 0.68512,-0.58811 0.71399,-0.60518 0.68716,-0.638 0.71193,-0.65505 0.71398,-0.6892 0.68717,-0.70626 0.71194,-0.73907 0.71398,-0.73908 0.68718,-0.77321 0.71193,-0.80604 0.71398,-0.80733 0.68717,-0.82309 0.71195,-0.84017 0.68713,-0.85722 0.71401,-0.85723 0.71194,-0.87297 0.68715,-0.89137 0.71401,-0.89003 0.71192,-0.9071 0.68716,-0.89136 0.714,-0.90713 0.68717,-0.90711 0.71191,-0.92416 0.714,-0.90711 0.68717,-0.90713 0.71194,-0.89133 0.714,-0.90711 0.68716,-0.89006 0.71192,-0.87428 0.714,-0.8743 0.68715,-0.85591 0.71193,-0.85724 0.68718,-0.82307 0.71399,-0.82442 0.71191,-0.80603 0.6872,-0.79028 0.71398,-0.75613 0.71193,-0.75615 0.68718,-0.72201 0.71398,-0.70626 0.71193,-0.68787 0.68718,-0.65639 0.71398,-0.62093 0.68511,-0.60516 0.71401,-0.58813 0.71396,-0.53822 0.68512,-0.51985 0.71398,-0.48835 0.71399,-0.46996 0.68512,-0.42008 0.71399,-0.40301 0.714,-0.37019 0.6851,-0.33607 0.71398,-0.28488 0.6872,-0.26911 0.71191,-0.23497 0.71399,-0.20217 0.68717,-0.15096 0.71194,-0.13522 0.71398,-0.084 0.68718,-0.067 0.71191,-0.017 0.714,0.017 0.68716,0.0342 0.71194,0.084 0.68714,0.11684 0.71403,0.15226 0.71191,0.18379 0.68716,0.21924 0.71401,0.25202 0.71192,0.28488 0.68714,0.32031 0.71404,0.35183 0.71192,0.3702 0.68717,0.42007 0.714,0.43714 0.68715,0.46997 0.71191,0.48704 0.71403,0.53821 0.68715,0.53824 0.71192,0.58811"
       id="path5176"
       mask="url(#mask7579)"
       transform="translate(1.5343676,-125.13384)" />
    <path
       inkscape:connector-curvature="0"
       style="display:inline;fill:none;stroke:#000000;stroke-width:1.21146715;stroke-linecap:butt;stroke-linejoin:miter;stroke-miterlimit:10;stroke-dasharray:none;stroke-opacity:1"
       d="m 75.374212,502.04987 0.73851,-1.32814 0.70863,-1.32964 1.477031,-2.6563 0.70863,-1.30859 0.73852,-1.3101 0.71076,-1.28903 0.73638,-1.27099 0.738519,-1.25144 0.71076,-1.25143 0.73638,-1.21383 0.73852,-1.19277 0.710762,-1.17473 0.73638,-1.15518 0.73852,-1.11606 0.71076,-1.07846 0.73638,-1.05891 0.71076,-1.0213 0.73852,-0.98069 0.73638,-0.9446 0.71076,-0.92353 0.73853,-0.86637 0.73638,-0.82728 0.71075,-0.78966 0.73853,-0.73251 0.73637,-0.71145 0.71076,-0.63625 0.73852,-0.61519 0.71076,-0.55804 0.73637,-0.50086 0.73853,-0.46178 0.71076,-0.40461 0.73639,-0.34744 0.738506,-0.30684 0.71077,-0.2512 0.73637,-0.21209 0.73851,-0.13386 0.71077,-0.0963 0.73637,-0.0391 0.71077,0.0195 0.73853,0.0572 0.73637,0.13536 0.71077,0.17298 0.73851,0.21208 0.73637,0.28879 0.71077,0.32791 0.73853,0.38505 0.73637,0.44221 0.71077,0.48133 0.73852,0.52043 0.70862,0.59563 0.73851,0.61669 0.73852,0.6934 0.70863,0.71146 0.73851,0.77012 0.73852,0.80922 0.70863,0.84682 0.73851,0.90548 0.73852,0.92353 0.70863,0.96266 0.73851,1.00175 0.71077,1.03935 0.73638,1.07845 0.73851,1.09652 0.71076,1.13712 0.73638,1.15516 0.73852,1.19278 0.71077,1.21383 0.73639,1.23189 0.71076,1.25143 0.7385,1.27099 0.73639,1.26948 0.71076,1.31009 0.7385,1.30859 0.7364,1.3101 0.71077,1.32815 0.7385,1.32815 0.73639,1.34769 0.71076,1.32814 0.73851,1.32816 0.71078,1.32964 0.73637,1.32815 0.73851,1.32814 0.71078,1.3086 0.73638,1.29053 0.7385,1.29055 0.71077,1.25144 0.73638,1.25142 0.73852,1.23189 0.71076,1.21233 0.73638,1.17472 0.71076,1.15517 0.73851,1.13563 0.7364,1.09801 0.71075,1.07846 0.73852,1.03935 0.73639,1.00025 0.71075,0.96264 0.73851,0.92503 0.73639,0.88594 0.71076,0.84683 0.7385,0.80771 0.70866,0.77011 0.73851,0.71295 0.73851,0.67386 0.70864,0.63473 0.7385,0.5776 0.73851,0.52042 0.70864,0.48133 0.73852,0.44221 0.7385,0.367 0.70864,0.32641 0.73852,0.28879 0.71075,0.21208 0.73638,0.17297 0.73852,0.11582 0.71077,0.0572 0.73638,0.0196 0.73851,-0.0376 0.71076,-0.0963 0.73638,-0.15493 0.73851,-0.21208 0.71076,-0.24969 0.73638,-0.30833 0.71078,-0.36551 0.73851,-0.40462 0.73637,-0.46175 0.71078,-0.50088 0.73851,-0.55803 0.73639,-0.61669 0.71078,-0.65431 0.7385,-0.71145 0.73637,-0.73251 0.71078,-0.78967 0.7385,-0.84682 0.71076,-0.86638 0.73639,-0.90397 0.73851,-0.96265 0.71077,-0.9822 0.73638,-1.0213 0.73852,-1.05891 0.71076,-1.0965 0.73637,-1.11757 0.73853,-1.13561 0.71076,-1.17473 0.73637,-1.21234 0.71078,-1.21232 0.73851,-1.25143 0.73637,-1.25143 0.71078,-1.271 0.7385,-1.29054 0.73638,-1.30859 0.71078,-1.3101 0.73851,-1.32815 0.73637,-1.32815 0.71077,-1.34768 0.73852,-1.32815 0.70862,-1.32815 0.73853,-1.32965 0.73851,-1.32815 0.70862,-1.32814 0.73852,-1.30859 0.73851,-1.3101 0.70863,-1.28904 0.73853,-1.27099 0.73851,-1.25144 0.70863,-1.25142 0.73851,-1.21383 0.71077,-1.19277 0.73637,-1.17473 0.73851,-1.13562 0.71077,-1.11757 0.73638,-1.07695 0.73851,-1.05892 0.71079,-1.02129 0.73637,-0.98221 0.7385,-0.94307 0.71078,-0.90399 0.73638,-0.86637 0.71076,-0.82878 0.73852,-0.78967 0.73637,-0.73101 0.71076,-0.6934 0.73853,-0.6543 0.73637,-0.59713 0.71076,-0.55804 0.73853,-0.50088 0.71077,-0.46176 0.73637,-0.40461 0.73851,-0.34595 0.71077,-0.28878 0.73637,-0.2512 0.73852,-0.19254 0.71078,-0.15342 0.73637,-0.0767 0.73851,-0.0391 0.71077,0.0195 0.73638,0.0767 0.71075,0.11582 0.73853,0.17298 0.73638,0.23162 0.71077,0.2888 0.73851,0.34595 0.73638,0.38506 0.71076,0.42416 0.73851,0.50088 0.73639,0.53847 0.71076,0.5776 0.73851,0.63473 0.70864,0.67386 0.73851,0.7325 0.73852,0.77012 0.70863,0.80772 0.73852,0.86637 0.73851,0.88593 0.70863,0.94308 0.73851,0.96265 0.73852,1.02131 0.70862,1.03935 0.73852,1.05891 0.71076,1.11606 0.73639,1.13712 0.73851,1.15518 0.71076,1.19276 0.73639,1.21383 0.73851,1.23189 0.71075,1.25143 0.7364,1.27099 0.73851,1.26949 0.71077,1.31009 0.73638,1.3086 0.71076,1.31008 0.73851,1.32815 0.73638,1.3477 0.71078,1.32815 0.7385,1.32814 0.73638,1.3477 0.71078,1.32816 0.73851,1.31008 0.73637,1.32815 0.71077,1.3086 0.73852,1.29054 0.71075,1.29054 0.73639,1.25143 0.73851,1.25143 0.71076,1.23188 0.73639,1.21233 0.73851,1.17473 0.71077,1.15517 0.73639,1.13562 0.7385,1.09801 0.71076,1.0589 0.73639,1.03936 0.71076,1.00175 0.73851,0.96265 0.73639,0.92353 0.71077,0.88593 0.73851,0.84681 0.73638,0.78968 0.71076,0.77011 0.73851,0.71146 0.73638,0.67385 0.71078,0.61669 0.7385,0.57758 0.70864,0.52043 0.73852,0.48132 0.7385,0.42267 0.70863,0.38505 0.73852,0.3279 0.73851,0.26924 0.70863,0.21207 0.73852,0.17298 0.73851,0.11582 0.49092,-0.0195 1.09282,0 0.57418,0.0195 0.73638,-0.0963 0.73851,-0.15492 0.71077,-0.21059 0.73637,-0.25118 0.73851,-0.30836 0.71077,-0.36549 0.73637,-0.42266 0.73854,-0.46327 0.71076,-0.51892 0.73637,-0.55804 0.71077,-0.6167 0.73851,-0.65429 0.73638,-0.6934 0.71076,-0.75056 0.73852,-0.80923 0.73638,-0.82727 0.71077,-0.88592 0.73851,-0.90549 0.73638,-0.96264 0.71076,-0.9807 0.73852,-1.02129 0.71077,-1.07846 0.73637,-1.07697 0.73852,-1.11756 0.71077,-1.15517 0.73637,-1.17473 0.73852,-1.21233 0.71077,-1.21232 0.73638,-1.25144 0.73851,-1.25143 0.71077,-1.29054 0.73637,-1.29055 0.71077,-1.28903 0.73851,-1.32814 0.73639,-1.32965 0.71077,-1.32816 0.73851,-1.32814 0.73638,-1.32815 0.71075,-1.3477 0.73852,-1.32814 0.70863,-1.32965 0.73851,-1.30859 0.73853,-1.32815 0.70863,-1.29054 0.73851,-1.28904 0.73852,-1.27099 0.70862,-1.25143 0.73851,-1.25143 0.73853,-1.21384 0.70863,-1.19277 0.7385,-1.15518 0.71078,-1.15517 0.73638,-1.11756 0.73851,-1.07696 0.71077,-1.04086 0.73637,-1.01978 0.73852,-0.98222 0.71077,-0.94308 0.73638,-0.90549 0.7385,-0.86637 0.71077,-0.80771 0.73639,-0.78967 0.71075,-0.73101 0.73852,-0.69341 0.73639,-0.65429 0.71075,-0.59715 0.73853,-0.53997 0.73638,-0.49938 0.71074,-0.44371 0.73854,-0.40461 0.73639,-0.34596 0.71074,-0.28879 0.73853,-0.24968 0.71075,-0.19253 0.73637,-0.13537 0.73853,-0.0963 0.71076,-0.0195 0.73637,0.0195 0.73853,0.0767 0.71077,0.13537 0.73637,0.17298 0.73852,0.23163 0.71076,0.2888 0.73638,0.34595 0.71077,0.38506 0.73851,0.44221 0.73637,0.50088 0.71077,0.53998 0.73852,0.59563 0.73638,0.63624 0.71077,0.67385 0.73851,0.73101 0.73638,0.77012 0.71077,0.82877 0.7385,0.84683 0.70865,0.90398 0.7385,0.94459 0.73852,0.96264 0.70865,1.0198 0.7385,1.03935 0.7385,1.07846 0.70866,1.09802 0.73849,1.13562 0.7385,1.17472 0.70867,1.19277 0.73849,1.21384 0.71079,1.23188 0.73638,1.25143 0.7385,1.27099 0.71077,1.28904 0.73638,1.29054 0.73851,1.3086 0.71077,1.32813 0.73638,1.32965 0.7385,1.32816 0.71078,1.32814 0.73637,1.3477 0.71076,1.32813 0.73853,1.32816 0.73637,1.32965 0.71076,1.30859 0.73853,1.30859 0.73636,1.29054 0.71076,1.29054 0.73854,1.26948 0.73638,1.23338 0.71076,1.23189 0.73852,1.19277 0.71075,1.19428 0.73638,1.15518 0.73853,1.11605 0.71074,1.09802 0.73639,1.05891 0.73854,1.03936 0.71074,1.00174 0.73638,0.94309 0.73853,0.92353 0.71074,0.88594 0.73638,0.84683 0.71078,0.80921 0.7385,0.75055 0.73638,0.71296 0.71078,0.65431 0.7385,0.63473 0.73637,0.55955 0.71079,0.51891 0.73851,0.48134 0.73636,0.42415 0.71079,0.3655 0.7385,0.32791 0.70864,0.26923 0.73852,0.21209 0.73851,0.15342 0.70864,0.11581 1.01172,-0.0195 0.5464,0 0.62753,0.0195 0.73852,-0.0963 0.7385,-0.17297 0.70864,-0.19253 0.73853,-0.27076 0.71077,-0.32639 0.73637,-0.36549 0.73851,-0.40462 0.71077,-0.48132 0.73637,-0.52042 0.73851,-0.55803 0.71079,-0.6167 0.73636,-0.67384 0.71076,-0.6919 0.73854,-0.75207 0.73637,-0.80771 0.71074,-0.82878 0.73854,-0.88442 0.73638,-0.92505 0.71074,-0.96264 0.73854,-0.98221 0.73637,-1.03934 0.71075,-1.0589 0.73854,-1.09651 0.71075,-1.11757 0.73637,-1.15518 0.73854,-1.17473 0.71075,-1.19276 0.73636,-1.23188 0.73854,-1.25143 0.71075,-1.25145 0.73638,-1.29054 0.73855,-1.29053 0.71075,-1.3086 0.73636,-1.30859 0.71077,-1.32965 0.73852,-1.32814 0.73637,-1.32815 0.71077,-1.34771 0.73852,-1.32813 0.73638,-1.32814 0.71077,-1.32965 0.73851,-1.32816 0.73637,-1.30859 0.71077,-1.29054 0.73851,-1.28904 0.70865,-1.27099 0.7385,-1.27099 0.73851,-1.23189 0.70865,-1.21381 0.73851,-1.19278 0.7385,-1.15518 0.70865,-1.13562 0.73851,-1.11756 0.7385,-1.07845 0.70865,-1.03936 0.7385,-1.0198 0.71077,-0.9822 0.73639,-0.94309 0.73851,-0.88592 0.71077,-0.8664 0.73638,-0.82725 0.7385,-0.77012 0.71077,-0.73251 0.73639,-0.6934 0.73849,-0.63476 0.71077,-0.59712 0.73641,-0.53848 0.71074,-0.50089 0.73853,-0.4422 0.73638,-0.40461 0.71074,-0.32791 0.73853,-0.30834 0.73639,-0.23013 0.71075,-0.19253 0.73852,-0.13537 0.73639,-0.0767 0.71075,-0.0195 0.73852,0.0195 0.71076,0.0767 0.73637,0.13537 0.73854,0.19253 0.71074,0.24968 0.73638,0.28879 0.73853,0.34746 0.71075,0.38506 0.73638,0.4422 0.73854,0.50089 0.71074,0.53848 0.73638,0.59712 0.71078,0.63476 0.73849,0.6934 0.73639,0.73251 0.71077,0.78817 0.73852,0.8092 0.73638,0.8664 0.71077,0.90548 0.7385,0.92353 0.73638,0.9822 0.71077,1.0198 0.7385,1.03936 0.70866,1.07845 0.7385,1.11756 0.73852,1.13562 0.70865,1.17473 0.73849,1.17323 0.73851,1.23338 0.70864,1.23188 0.73852,1.25143 0.7385,1.27099 0.70864,1.28904 0.73851,1.29054 0.71078,1.32815 0.73637,1.3086 0.73851,1.32965 0.71077,1.32814 0.73638,1.34769 0.73852,1.32815 0.71077,1.32815 0.73636,1.32814 0.73852,1.32965 0.71078,1.30859 0.73638,1.3086 0.71075,1.31009 0.73853,1.27098 0.73637,1.2695 0.71076,1.23338 0.73852,1.23188 0.73637,1.19276 0.71076,1.17473 0.73855,1.15518 0.71074,1.13562 0.73638,1.07846 0.73853,1.0589 0.71074,1.03934 0.73637,1.00177 0.73855,0.94308 0.71074,0.92505 0.73637,0.88442 0.73855,0.82878 0.71075,0.80771 0.73636,0.75207 0.71078,0.71145 0.73852,0.65429 0.73637,0.6167 0.71078,0.55803 0.7385,0.52042 0.73637,0.48132 0.71079,0.40462 0.7385,0.36549 0.73638,0.32639 0.71078,0.27076 0.7385,0.21058 0.70864,0.15492 0.73852,0.0963 0.95622,-0.0195 0.54641,0 0.68304,0.0195 0.7385,-0.11581 0.70864,-0.15342 0.7385,-0.21209 0.73851,-0.26923 0.70864,-0.32791 0.7385,-0.3655 0.71079,-0.42415 0.73638,-0.48134 0.7385,-0.51891 0.71079,-0.57759 0.73637,-0.61669 0.73849,-0.65431 0.71079,-0.71296 0.73638,-0.7701 0.7385,-0.78966 0.71078,-0.84683 0.73637,-0.88594 0.71075,-0.92353 0.73854,-0.96264 0.73637,-0.98219 0.71075,-1.03936 0.73854,-1.05891 0.73637,-1.09802 0.71075,-1.13561 0.73853,-1.15517 0.73637,-1.17473 0.71076,-1.19277 0.73855,-1.23189 0.71074,-1.25143 0.73637,-1.25143 0.73853,-1.29054 0.71075,-1.29054 0.73638,-1.30859 0.73852,-1.30859 0.71077,-1.32965 0.73637,-1.32816 0.73854,-1.34769 0.71075,-1.32814 0.73637,-1.32814 0.71077,-1.34771 0.73851,-1.3101 0.73638,-1.32813 0.71077,-1.3086 0.73851,-1.3101 0.73637,-1.26948 0.71078,-1.27099 0.73851,-1.27098 0.73637,-1.23188 0.71079,-1.21385 0.7385,-1.17321 0.70865,-1.17472 0.7385,-1.13562 0.73851,-1.09802 0.70865,-1.07846 0.7385,-1.03935 0.73851,-1.0198 0.70865,-0.98219 0.7385,-0.92504 0.73851,-0.90398 0.70864,-0.84683 0.7385,-0.82877 0.71077,-0.77012 0.73639,-0.73101 0.73852,-0.67385 0.71077,-0.63624 0.73638,-0.59563 0.7385,-0.53998 0.71077,-0.50088 0.73638,-0.44221 0.73851,-0.38506 0.71077,-0.34595 0.73638,-0.2888 0.71076,-0.23163 0.73853,-0.17298 0.73637,-0.13537 0.71075,-0.0767 0.73854,-0.0195 0.73638,0.0195 0.71074,0.0963 0.73853,0.13537 0.73638,0.19253 0.71075,0.24968 0.73853,0.28879 0.71075,0.34596 0.73638,0.40461 0.73853,0.44371 0.71075,0.49938 0.73637,0.55953 0.73853,0.59564 0.71075,0.63624 0.7364,0.69341 0.73852,0.73101 0.71075,0.78967 0.73638,0.80771 0.71077,0.86637 0.73851,0.90549 0.73638,0.94308 0.71077,0.98222 0.73851,1.01978 0.73639,1.04086 0.71077,1.09651 0.7385,1.09801 0.70864,1.15517 0.73851,1.15518 0.73851,1.19277 0.70864,1.21384 1.47701,2.50286 0.70865,1.27099 0.73852,1.28904 0.7385,1.3101 0.70864,1.30859 0.73852,1.30859 0.71077,1.32965 0.73637,1.3477 0.73851,1.32814 0.71077,1.32815 0.73638,1.3477 0.73852,1.32815 0.71077,1.3101 0.73637,1.32814 0.73851,1.30858 0.71077,1.29054 0.73637,1.271 0.71074,1.26948 0.73855,1.23339 0.73639,1.23188 0.71074,1.19277 0.73854,1.17473 0.73637,1.15517 0.71074,1.11756 0.73855,1.09651 0.73637,1.05892 0.71074,1.02129 0.73854,0.9807 0.71076,0.96264 0.73637,0.92504 0.73853,0.86637 0.71075,0.84683 0.73638,0.78967 0.73853,0.75056 0.71075,0.6934 0.73637,0.67384 0.73854,0.59715 0.71075,0.57758 0.73638,0.49938 0.71079,0.46327 0.73849,0.42266 0.73637,0.36549 0.71078,0.30836 0.7385,0.26923 0.73638,0.19254 0.71077,0.15492 0.73852,0.0963 0.90074,-0.0195 1.28492,0 0.70864,-0.0963 0.7385,-0.17297 0.73852,-0.21209 0.70864,-0.28879 0.7385,-0.30835 0.73852,-0.38505 0.70865,-0.42266 0.73849,-0.48133 0.73852,-0.52043 0.70865,-0.57757 0.73849,-0.6167 0.71079,-0.67385 0.73637,-0.71146 0.7385,-0.77011 0.71079,-0.78967 0.73637,-0.84683 0.73851,-0.88591 0.71078,-0.92354 0.73637,-0.9822 0.7385,-0.9822 0.71077,-1.03934 0.73638,-1.07846 0.71075,-1.09802 0.73855,-1.11606 0.73637,-1.15518 0.71075,-1.19428 0.73853,-1.19277 0.73638,-1.23188 0.71074,-1.25143 0.73853,-1.27099 0.73639,-1.27098 0.71075,-1.29055 0.73854,-1.30859 0.71075,-1.32815 0.73637,-1.32814 0.73853,-1.32965 0.71075,-1.32815 0.73638,-1.32814 0.73853,-1.3477 0.71075,-1.32815 0.73637,-1.32814 0.73854,-1.3101 0.71075,-1.3086 0.73637,-1.31009 0.71078,-1.28904 0.73851,-1.25144 0.73637,-1.27099 0.71077,-1.23187 0.73851,-1.19428 0.73638,-1.19278 0.71078,-1.15517 0.73851,-1.13713 0.73638,-1.11605 0.71077,-1.07845 0.7385,-1.03937 0.70865,-1.00174 0.7385,-0.96265 0.7385,-0.94308 0.70866,-0.88593 0.73852,-0.86639 0.7385,-0.80771 0.70865,-0.77011 0.7385,-0.73252 0.7385,-0.67385 0.70865,-0.63474 0.73849,-0.57758 0.7108,-0.53847 0.73639,-0.50089 0.73852,-0.42416 0.71073,-0.38505 0.7364,-0.34596 0.7385,-0.2888 0.71075,-0.23162 0.73638,-0.17297 0.71075,-0.11582 0.73856,-0.0767 0.73638,-0.0195 0.71076,0.0391 0.7385,0.0767 0.7364,0.15343 0.71074,0.19253 0.73851,0.25119 0.73638,0.28879 0.71075,0.3655 0.73856,0.38506 0.71074,0.46176 0.73641,0.50088 0.7385,0.55804 0.71074,0.59713 0.73639,0.6543 0.73851,0.69341 0.71073,0.73099 0.7364,0.78966 0.73857,0.82878 0.71074,0.86639 0.7364,0.90398 0.71074,0.94308 0.7385,0.98221 0.73638,1.02129 0.71075,1.05891 0.73851,1.07695 0.73639,1.11757 0.71081,1.13562 0.7385,1.17474 0.73633,1.19277 0.71081,1.21382 0.7385,1.25144 0.70863,1.25143 0.73851,1.27098 0.7385,1.28905 0.70869,1.3101 0.73851,1.30858 0.7385,1.32814 0.70863,1.32816 0.73852,1.32964 0.7385,1.32815 0.70862,1.34769 0.73851,1.32815 0.7108,1.32815 0.73639,1.32814 0.73852,1.3101 0.71074,1.30859 0.73639,1.29054 0.73851,1.27099 0.71074,1.26948 0.73638,1.2334 0.7385,1.23188 0.71081,1.19276 0.7364,1.17474 0.71073,1.13562 0.73852,1.11757 0.73639,1.0965 0.71074,1.05891 0.73851,1.02129 0.73639,0.9822 0.71074,0.96264 0.73857,0.90399 0.73632,0.88593 0.7108,0.82727 0.73852,0.78968 0.71075,0.75056 0.73638,0.69339 0.73852,0.6543 0.71074,0.61669 0.73638,0.55804 0.73858,0.50087 0.71073,0.46176 0.73632,0.42417 0.73859,0.34594 0.71075,0.30835 0.73638,0.24968 0.71073,0.21209 0.73852,0.15493 0.73638,0.0963 0.7108,0.0376 0.73852,-0.0196 0.73632,-0.0571 0.7108,-0.11582 0.73853,-0.17297 0.73638,-0.21208 0.71073,-0.2888 0.73852,-0.3264 0.70868,-0.367 0.73851,-0.44221 0.73851,-0.48133 0.70862,-0.52042 0.7385,-0.57759 0.73853,-0.63475 0.70861,-0.67386 0.73852,-0.71294 0.73851,-0.77012 0.70868,-0.80771 0.7385,-0.84683 0.71074,-0.88593 0.73639,-0.92503 0.7385,-0.96264 0.71075,-1.01981 0.7364,-1.01979 0.73851,-1.07847 0.7108,-1.09801 0.73632,-1.13561 0.73851,-1.15518 0.7108,-1.17473 0.7364,-1.21233 0.71074,-1.23188 0.73851,-1.25143 0.73639,-1.27099 0.71074,-1.27099 0.73857,-1.30858 0.73633,-1.3101 0.71081,-1.3086 0.7385,-1.32814 0.71074,-1.32965 0.73639,-1.32815 0.73851,-1.3477 0.71074,-1.32814 0.73639,-1.32815 0.73858,-1.32814 0.71074,-1.32966 0.73632,-1.30858 0.73857,-1.29055 0.71074,-1.28904 0.73639,-1.27098 0.71075,-1.25143 0.73851,-1.21233 0.73639,-1.21384 0.7108,-1.19277 0.73851,-1.15517 0.73632,-1.13711 0.71081,-1.09652 0.7385,-1.07846 0.7364,-1.03935 0.71075,-1.00175 0.7385,-0.96264 0.70869,-0.9431 0.7385,-0.88592 0.73851,-0.84683 0.70861,-0.80921 0.73853,-0.77013 0.7385,-0.73101 0.70862,-0.67383 0.73852,-0.61671 0.7385,-0.59563 0.70868,-0.52042 0.73845,-0.48133 0.71081,-0.44221 0.73638,-0.38505 0.73852,-0.32791 0.71073,-0.28879 0.73639,-0.21208 0.73851,-0.19253 0.71081,-0.11582 0.73633,-0.0571 0.73851,-0.0195 0.7108,0.0391 0.73638,0.0963 0.71075,0.13387 0.7385,0.21209 0.73639,0.25118 0.71076,0.30685 0.73857,0.34745 0.73632,0.4046 0.71075,0.46178 0.73856,0.50086 0.73638,0.55804 0.71074,0.6152 0.73852,0.63623 0.71074,0.71146 0.73639,0.73251 0.73852,0.78966 0.7108,0.82727 0.73632,0.86639"
       id="path5798"
       mask="url(#mask7573)"
       transform="matrix(1.0055632,0,0,0.9773573,278.95949,-248.74535)" />
    <text
       xml:space="preserve"
       style="font-style:normal;font-weight:normal;font-size:15px;line-height:125%;font-family:sans-serif;letter-spacing:0px;word-spacing:0px;display:inline;fill:#000000;fill-opacity:1;stroke:none;stroke-width:1px;stroke-linecap:butt;stroke-linejoin:miter;stroke-opacity:1"
       x="286.72885"
       y="170.37718"
       id="text7611"
       sodipodi:linespacing="125%"><tspan
         sodipodi:role="line"
         id="tspan7613"
         x="286.72885"
         y="170.37718">vacuum n = 1</tspan></text>
    <path
       sodipodi:nodetypes="ccccccccccc"
       inkscape:connector-curvature="0"
       id="path5542"
       d="m 615.95701,54.691046 3.39779,-13.16706 3.46279,13.16706 -2.3091,-0.10655 0,82.620354 2.3091,0.009 -3.46279,13.14713 -3.39779,-13.03723 2.24411,-0.0232 0,-82.716554 z"
       style="display:inline;fill:#0000ff;fill-opacity:1;stroke-width:0.85900003;stroke-miterlimit:4;stroke-dasharray:none" />
    <rect
       y="39.981956"
       x="575.80365"
       height="1.207448"
       width="65.912453"
       id="rect5553"
       style="display:inline;fill:#0000ff;fill-opacity:1;stroke-width:1.20099998;stroke-miterlimit:10;stroke-dasharray:none" />
    <rect
       style="display:inline;fill:#0000ff;fill-opacity:1;stroke-width:1.20099998;stroke-miterlimit:10;stroke-dasharray:none"
       id="rect7647"
       width="65.912453"
       height="1.207448"
       x="594.9856"
       y="151.89594" />
    <text
       xml:space="preserve"
       style="font-style:normal;font-weight:normal;font-size:15px;line-height:125%;font-family:sans-serif;letter-spacing:0px;word-spacing:0px;display:inline;opacity:0.76999996;fill:#000000;fill-opacity:1;stroke:none;stroke-width:1px;stroke-linecap:butt;stroke-linejoin:miter;stroke-opacity:1"
       x="242.2244"
       y="301.40842"
       id="text7615"
       sodipodi:linespacing="125%"><tspan
         sodipodi:role="line"
         x="242.2244"
         y="301.40842"
         id="tspan7637">medium: n = 1-  +i  	 	</tspan></text>
    <rect
       y="38.145824"
       x="111.98289"
       height="270.83237"
       width="1.2667129"
       id="rect7609"
       style="display:inline;fill:#008000;fill-opacity:1;stroke:none;stroke-width:0.85900003;stroke-miterlimit:4;stroke-dasharray:none;stroke-opacity:1" />
    <path
       style="display:inline;fill:#0000ff;fill-opacity:1;stroke-width:0.85900003;stroke-miterlimit:4;stroke-dasharray:none"
       d="m 639.88559,216.64905 4.28219,-7.9822 4.3641,7.9822 -2.91012,-0.0646 0,50.0866 2.91012,0.005 -4.3641,7.97013 -4.28219,-7.90351 2.82822,-0.014 0,-50.14491 z"
       id="path7583"
       inkscape:connector-curvature="0"
       sodipodi:nodetypes="ccccccccccc" />
    <rect
       y="207.92018"
       x="600.41412"
       height="1.207448"
       width="65.912453"
       id="rect7649"
       style="display:inline;fill:#0000ff;fill-opacity:1;stroke-width:1.20099998;stroke-miterlimit:10;stroke-dasharray:none" />
    <rect
       y="274.9447"
       x="613.83496"
       height="1.207448"
       width="65.912453"
       id="rect7651"
       style="display:inline;fill:#0000ff;fill-opacity:1;stroke-width:1.20099998;stroke-miterlimit:10;stroke-dasharray:none" />
    <text
       xml:space="preserve"
       style="font-style:normal;font-weight:normal;font-size:17.5px;line-height:125%;font-family:sans-serif;letter-spacing:0px;word-spacing:0px;display:inline;fill:#0000ff;fill-opacity:1;stroke:none;stroke-width:1px;stroke-linecap:butt;stroke-linejoin:miter;stroke-opacity:1"
       x="594.42975"
       y="187.43077"
       id="text7601"
       sodipodi:linespacing="125%"><tspan
         sodipodi:role="line"
         id="tspan7603"
         x="594.42975"
         y="187.43077">Attenuation</tspan></text>
    <rect
       style="display:inline;fill:#008000;fill-opacity:1;stroke:none;stroke-width:0.85900003;stroke-miterlimit:4;stroke-dasharray:none;stroke-opacity:1"
       id="rect7656"
       width="1.2667129"
       height="174.43382"
       x="540.09491"
       y="38.441044" />
    <rect
       y="197.76875"
       x="555.83911"
       height="81.349838"
       width="1.2667129"
       id="rect7658"
       style="display:inline;fill:#008000;fill-opacity:1;stroke:none;stroke-width:0.85900003;stroke-miterlimit:4;stroke-dasharray:none;stroke-opacity:1" />
    <path
       style="display:inline;fill:#008000;fill-opacity:1;stroke-width:0.85900003;stroke-miterlimit:4;stroke-dasharray:none"
       d="m 553.46802,197.8892 2.76771,3.65674 -2.76771,3.80413 0,-2.88994 -9.22568,0 0,2.81187 -2.76771,-3.72606 2.79023,-3.65674 -0.0225,2.74256 9.22569,0 z"
       id="path5544"
       inkscape:connector-curvature="0"
       sodipodi:nodetypes="ccccccccccc"
       inkscape:transform-center-x="61.814194"
       inkscape:transform-center-y="78.296596" />
    <text
       xml:space="preserve"
       style="font-style:normal;font-weight:normal;font-size:15px;line-height:125%;font-family:sans-serif;letter-spacing:0px;word-spacing:0px;display:inline;fill:#008000;fill-opacity:1;stroke:none;stroke-width:1px;stroke-linecap:butt;stroke-linejoin:miter;stroke-opacity:1"
       x="455.16635"
       y="170.19862"
       id="text7605"
       sodipodi:linespacing="125%"><tspan
         sodipodi:role="line"
         id="tspan7607"
         x="455.16635"
         y="170.19862">Phase shift</tspan></text>
  </g>
</svg>
